<svg width="251" height="43" viewBox="0 0 251 43" fill="none" xmlns="http://www.w3.org/2000/svg">
<path d="M189.229 24.9882V17.703H186.036V29.0172H188.722L196.409 21.668V29.0172H199.602V17.703H196.921L189.234 24.9882H189.229ZM223.429 25.0477V17.6985H220.236V29.0127H222.917L230.604 21.604V29.0127H233.797V17.6985H230.971L223.429 25.0477ZM213.423 22.0979H206.421V17.703H203.227V29.0172H206.421V24.5903H213.423V29.0172H216.616V17.703H213.423V22.0979ZM174.551 17.703L166.896 29.0172H170.667L175.711 21.5446L180.787 29.0172H184.741L177.086 17.703H174.551ZM248.168 17.703L240.621 25.0522V17.703H237.433V29.0172H240.12L247.807 21.6086V29.0172H251V17.703H248.168ZM170.635 17.703H155.768V20.1909H168.93L170.635 17.703ZM155.768 22.0979V24.5858H165.958L167.662 22.0979H155.768ZM85.2634 17.703H70.3965V20.1909H83.5588L85.2634 17.703ZM55.918 15.2106L48.2688 26.5248H46.3484V32.3374H49.3908V29.0172H65.0561V32.3374H68.1039V26.5248H66.1835L58.5343 15.2106H55.918ZM52.0718 26.5248L57.1102 19.0521L62.1863 26.5248H52.0665H52.0718ZM107.418 17.4241C102.088 17.4241 99.5477 20.1909 99.5477 23.2961C99.5477 26.4013 102.013 29.1682 107.418 29.1682C109.775 29.1682 115.213 28.2444 115.213 23.2961C115.213 20.0674 112.78 17.4241 107.418 17.4241ZM107.38 26.6803C104.3 26.6803 102.995 25.1757 102.995 23.3281C102.995 21.2976 104.484 19.9439 107.38 19.9439C110.644 19.9439 111.766 21.2976 111.766 23.3281C111.766 25.7565 109.63 26.6803 107.38 26.6803ZM89.1743 17.703L81.5251 29.0172H85.2958L90.3395 21.5446L95.4156 29.0172H99.3697L91.7205 17.703H89.1743ZM148.976 29.0172H152.132V17.703H148.976V29.0172ZM142.956 21.7595H138.096V17.703H134.902V29.0172H142.918C145.092 29.0172 147.342 28.002 147.342 25.3266C147.342 21.819 144.44 21.7595 142.951 21.7595H142.956ZM142.773 26.6163H138.096V24.0964H142.773C143.318 24.0964 144.154 24.2199 144.154 25.3586C144.154 26.4059 143.469 26.6209 142.773 26.6209V26.6163ZM70.3857 22.0979V24.5858H80.5757L82.2803 22.0979H70.3857ZM155.757 29.0172H162.975L164.642 26.5248H155.757V29.0172ZM129.168 22.3449C130.015 22.0385 130.733 21.5491 130.733 20.3189C130.733 17.982 128.413 17.7076 126.778 17.7076H118.147V29.0218H126.924C130.948 29.0218 131.784 27.1468 131.784 25.4227C131.784 23.4836 130.484 22.6833 129.168 22.3449ZM121.303 20.104H126.417C127.178 20.104 127.507 20.4424 127.507 21.0872C127.507 21.7321 127 22.1025 126.417 22.1025H121.303V20.104ZM126.924 26.6209H121.303V24.1925H126.924C127.83 24.1925 128.483 24.3754 128.483 25.3907C128.483 26.191 128.084 26.6209 126.924 26.6209ZM70.3857 29.0172H77.6034L79.2703 26.5248H70.3857V29.0172Z" fill="white"/>
<path d="M24.7709 20.4881L11.5062 12.142L8.26417 16.8981L23.4277 22.4638L24.7709 20.4881ZM26.81 17.4972L15.4387 6.36139L12.2236 11.0855L25.4884 19.4363L26.81 17.4927V17.4972ZM29.2483 13.9164L19.7704 0L16.1939 5.25466L27.5652 16.3859L29.2483 13.9164ZM3.57647 23.7855L0 29.031H18.9504L20.6335 26.5614L3.57647 23.7809V23.7855ZM20.5957 29.031H25.6394L30.0682 22.5232L34.497 29.031H39.5407L30.0682 15.1192L20.5957 29.031ZM22.7103 23.5111L7.54672 17.95L4.32628 22.6787L21.3833 25.4593L22.7049 23.5156L22.7103 23.5111Z" fill="#F39F00"/>
</svg>
