<svg width="169" height="40" viewBox="0 0 169 40" fill="none" xmlns="http://www.w3.org/2000/svg">
<path d="M38.5473 0H30.2462V8.30111H38.5473V0Z" fill="white"/>
<path opacity="0.8" d="M23.4253 0H15.1242V8.30111H23.4253V0Z" fill="white"/>
<path opacity="0.5" d="M8.30111 0H0V8.30111H8.30111V0Z" fill="white"/>
<path opacity="0.8" d="M23.4253 15.8494H15.1242V24.1505H23.4253V15.8494Z" fill="white"/>
<path opacity="0.8" d="M23.4253 31.699H15.1242V40.0001H23.4253V31.699Z" fill="white"/>
<path d="M38.5473 15.8494H30.2462V39.9999H38.5473V15.8494Z" fill="white"/>
<path d="M44.1678 23.3129C47.2592 23.3129 50.2241 22.0848 52.4101 19.8988C54.5961 17.7128 55.8242 14.7479 55.8242 11.6564C55.8242 8.56496 54.5961 5.6001 52.4101 3.41409C50.2241 1.22809 47.2592 0 44.1678 0V7.429C45.2889 7.429 46.3642 7.87439 47.157 8.66719C47.9498 9.45998 48.3952 10.5352 48.3952 11.6564C48.3952 12.7776 47.9498 13.8529 47.157 14.6457C46.3642 15.4385 45.2889 15.8839 44.1678 15.8839V23.3129Z" fill="white"/>
<path d="M79.5754 30.6869V28.3024C79.5089 25.8008 77.4709 23.7605 75.0359 23.7605H63.3427V40.0001H65.2682V35.2287H75.0473C76.2456 35.2126 77.3901 34.7285 78.2362 33.8798C79.0823 33.0311 79.563 31.8852 79.5754 30.6869ZM65.2636 25.6883H75.0473C75.7404 25.6889 76.405 25.9645 76.8951 26.4546C77.3852 26.9447 77.6608 27.6093 77.6614 28.3024V30.6869C77.6608 31.3802 77.3852 32.045 76.8952 32.5354C76.4052 33.0259 75.7407 33.302 75.0473 33.3032H65.2636V25.6883Z" fill="white"/>
<path d="M94.0066 39.9999H100.685C101.885 39.9844 103.031 39.501 103.88 38.6525C104.728 37.8041 105.211 36.6578 105.227 35.458V23.7534H103.299V30.9093H93.5292C92.8361 30.9087 92.1716 30.6331 91.6815 30.143C91.1914 29.6529 90.9158 28.9884 90.9152 28.2953V23.7603H88.9873V28.3022C88.9892 29.5062 89.4683 30.6604 90.3196 31.5117C91.171 32.3631 92.3252 32.8422 93.5292 32.844H103.299V35.458C103.299 36.1511 103.023 36.8157 102.533 37.3058C102.043 37.7959 101.378 38.0715 100.685 38.0721H94.0066C93.353 38.0718 92.7232 37.8269 92.2411 37.3856C91.7591 36.9443 91.4596 36.3385 91.4017 35.6876H89.4762C89.5426 36.8472 90.0477 37.9382 90.8891 38.7391C91.7305 39.54 92.845 39.9907 94.0066 39.9999Z" fill="white"/>
<path d="M128.941 28.0729H130.865C130.681 25.6745 128.696 23.7605 126.337 23.7605H119.181C116.635 23.8293 114.639 25.826 114.639 28.3024V35.4582C114.64 36.6624 115.119 37.817 115.97 38.6685C116.822 39.52 117.976 39.9989 119.181 40.0001H126.337C127.496 39.984 128.608 39.5311 129.448 38.7317C130.289 37.9323 130.797 36.8454 130.872 35.6877H128.941C128.883 36.3385 128.583 36.944 128.101 37.3852C127.619 37.8264 126.99 38.0715 126.337 38.0723H119.181C118.487 38.0717 117.823 37.7961 117.332 37.3061C116.842 36.8161 116.566 36.1516 116.564 35.4582V28.3024C116.566 27.609 116.842 26.9445 117.332 26.4545C117.823 25.9645 118.487 25.6889 119.181 25.6883H126.337C126.99 25.6891 127.619 25.9342 128.101 26.3754C128.583 26.8166 128.883 27.4221 128.941 28.0729Z" fill="white"/>
<path d="M142.546 23.7605H140.621V39.9978H142.546V23.7605Z" fill="white"/>
<path d="M168.313 23.7605H152.075V25.6883H159.231V40.0001H161.157V25.6883H168.313V23.7605Z" fill="white"/>
</svg>
