<svg width="88" height="43" viewBox="0 0 88 43" fill="none" xmlns="http://www.w3.org/2000/svg">
<path fill-rule="evenodd" clip-rule="evenodd" d="M59.4287 31.0315H65.6824L68.3693 25.034L71.163 23.1957L73.3636 28.6195C74.0441 30.2959 74.7447 31.0315 76.2727 31.0315H81.0607L76.1213 20.3883L88.0001 11.9648H80.3287L73.1179 17.9625C72.2779 18.6607 71.4281 19.3479 70.5761 20.1687H70.5036L74.1041 11.9648H67.8499L59.4287 31.0315Z" fill="#1AB248"/>
<path fill-rule="evenodd" clip-rule="evenodd" d="M59.1592 11.9656C61.1204 11.9658 63.0227 11.9661 64.6158 11.9662L63.3249 15.1142C62.9192 16.1033 61.8895 16.5764 59.6198 16.5764C55.6791 16.5764 49.8481 16.5759 45.907 16.5753L47.1978 13.4274C47.6033 12.4378 48.633 11.9648 50.9027 11.9648C53.2504 11.9648 56.2689 11.9652 59.1592 11.9656ZM47.7199 19.1925C51.6604 19.1925 57.4918 19.193 61.4329 19.1938L60.1421 22.3417C59.7364 23.331 58.7067 23.8039 56.4369 23.8039C52.4961 23.8039 46.6651 23.8034 42.724 23.8026L44.0148 20.655C44.4204 19.6655 45.4501 19.1925 47.7199 19.1925ZM58.0935 26.421C54.1527 26.4205 48.3216 26.4199 44.3809 26.4199C42.1108 26.4199 41.0814 26.8931 40.6759 27.8819L39.385 31.0303C43.3262 31.0306 49.1572 31.0315 53.0981 31.0315C55.3676 31.0315 56.3974 30.5582 56.8029 29.5689L58.0935 26.421Z" fill="#1AB248"/>
<path fill-rule="evenodd" clip-rule="evenodd" d="M31.0726 16.5572L34.4287 16.5583C37.2883 16.5588 36.6356 19.3048 35.1884 21.9812C33.9132 24.34 31.6531 26.4216 28.9569 26.4214L23.3619 26.4208C21.1302 26.4208 20.1013 26.894 19.6673 27.8827L18.2859 31.031L22.3886 31.0315L26.3991 31.0058C29.9558 30.9833 32.8675 30.7856 36.2725 28.4327C39.8709 25.9471 44.0664 19.49 43.3476 15.7552C42.7845 12.8285 40.7393 11.9662 35.7866 11.9659L26.7615 11.9648L21.5066 23.7904L24.8455 23.7936C26.8326 23.7953 27.8299 23.8146 28.8869 21.6275L31.0726 16.5572Z" fill="#1AB248"/>
<path fill-rule="evenodd" clip-rule="evenodd" d="M15.6434 16.5736L13.1191 16.5742C8.06234 16.5761 3.72916 26.423 9.70823 26.4214L13.5499 26.4208C15.7656 26.4208 17.4104 27.0429 16.6821 28.7204L15.6785 31.031L11.6041 31.0315L8.28989 31.0058C4.05005 30.9732 1.31408 29.3661 0.328951 26.9259C-0.737103 24.2853 0.767977 18.7776 5.13629 15.2494C7.67091 13.2026 11.1819 11.9662 15.6834 11.9659L24 11.9648L22.6999 14.8506C21.86 16.7151 20.1439 16.5761 19.1646 16.5758L15.6434 16.5736Z" fill="#1AB248"/>
</svg>
