<svg width="42" height="42" viewBox="0 0 42 42" fill="none" xmlns="http://www.w3.org/2000/svg">
<g clip-path="url(#clip0_735_6085)">
<path fill-rule="evenodd" clip-rule="evenodd" d="M11.2633 9.2257C11.8413 10.7599 12.4761 12.4552 12.4761 15.7044C12.4761 18.9535 11.8413 20.6488 11.2633 22.1831L11.2569 22.2001C10.7385 23.5761 10.2778 24.7988 10.2778 27.3741H8.40747C8.40747 24.1238 9.04213 22.4278 9.62023 20.8934L9.62695 20.8756C10.1453 19.4997 10.6058 18.2776 10.6058 15.7044C10.6058 13.1311 10.1453 11.9091 9.62695 10.5332L9.62023 10.5154C9.04213 8.98092 8.40747 7.28501 8.40747 4.03467H10.2778C10.2778 6.60991 10.7385 7.83265 11.2569 9.20869L11.2633 9.2257Z" fill="#FB3B11"/>
<path fill-rule="evenodd" clip-rule="evenodd" d="M18.3024 9.2257C18.8804 10.7599 19.5151 12.4552 19.5151 15.7044C19.5151 18.9535 18.8804 20.6488 18.3024 22.1831L18.296 22.2001C17.7775 23.5761 17.3168 24.7988 17.3168 27.3741H15.4465C15.4465 24.1238 16.0812 22.4278 16.6593 20.8934L16.666 20.8756C17.1844 19.4997 17.6448 18.2776 17.6448 15.7044C17.6448 13.1311 17.1844 11.9091 16.666 10.5332L16.6593 10.5154C16.0812 8.98092 15.4465 7.28501 15.4465 4.03467H17.3168C17.3168 6.60991 17.7775 7.83265 18.296 9.20869L18.3024 9.2257Z" fill="#FB3B11"/>
<path fill-rule="evenodd" clip-rule="evenodd" d="M25.3424 9.2257C25.9204 10.7599 26.5552 12.4552 26.5552 15.7044C26.5552 18.9535 25.9204 20.6488 25.3424 22.1831L25.336 22.2001C24.8176 23.5761 24.3569 24.7988 24.3569 27.3741H22.4866C22.4866 24.1238 23.1212 22.4278 23.6993 20.8934L23.7061 20.8756C24.2244 19.4997 24.6849 18.2776 24.6849 15.7044C24.6849 13.1311 24.2244 11.9091 23.7061 10.5332L23.6993 10.5154C23.1212 8.98092 22.4866 7.28501 22.4866 4.03467H24.3569C24.3569 6.60991 24.8176 7.83265 25.336 9.20869L25.3424 9.2257Z" fill="#FB3B11"/>
<path fill-rule="evenodd" clip-rule="evenodd" d="M32.3805 9.2257C32.9585 10.7599 33.5933 12.4552 33.5933 15.7044C33.5933 18.9535 32.9585 20.6488 32.3805 22.1831L32.3741 22.2001C31.8556 23.5761 31.395 24.7988 31.395 27.3741H29.5247C29.5247 24.1238 30.1593 22.4278 30.7374 20.8934L30.7441 20.8756C31.2625 19.4997 31.7229 18.2776 31.7229 15.7044C31.7229 13.1311 31.2625 11.9091 30.7441 10.5332L30.7374 10.5154C30.1593 8.98092 29.5247 7.28501 29.5247 4.03467H31.395C31.395 6.60991 31.8556 7.83265 32.3741 9.20869L32.3805 9.2257Z" fill="#FB3B11"/>
<path fill-rule="evenodd" clip-rule="evenodd" d="M4.14429 30.5601H37.8557V32.6851H4.14429V30.5601Z" fill="#FB3B11"/>
<path fill-rule="evenodd" clip-rule="evenodd" d="M4.14429 35.8843H37.8557V38.0093H4.14429V35.8843Z" fill="#FB3B11"/>
</g>
<defs>
<clipPath id="clip0_735_6085">
<rect width="34" height="34" fill="white" transform="translate(4 4)"/>
</clipPath>
</defs>
</svg>
