<svg width="78" height="78" viewBox="0 0 78 78" fill="none" xmlns="http://www.w3.org/2000/svg">
<path d="M35.703 14.3442H24.8989" stroke="#F1F1F1" stroke-width="2"/>
<path d="M7 32V72H65V42.9384" stroke="#F1F1F1" stroke-width="2"/>
<path fill-rule="evenodd" clip-rule="evenodd" d="M24.899 14.3442L7 32.321H24.899V14.3442Z" stroke="#F1F1F1" stroke-width="2" stroke-linecap="round" stroke-linejoin="round"/>
<path fill-rule="evenodd" clip-rule="evenodd" d="M74.6912 18.8848C74.7527 27.196 67.699 33.9953 59.3387 33.9953C51.1539 33.9953 44.5183 27.3989 44.5183 19.262V18.9974C44.5183 14.856 46.2097 11.1085 48.9361 8.39064C51.777 5.57151 55.6116 3.99348 59.6053 4.00003C63.5992 3.99183 67.4342 5.57011 70.274 8.39064C72.9801 11.0844 74.661 14.7892 74.6912 18.8848Z" stroke="url(#paint0_linear_735_6402)" stroke-width="2"/>
<line x1="59.4377" y1="7.33447" x2="59.4377" y2="23.1925" stroke="url(#paint1_linear_735_6402)" stroke-width="2"/>
<line x1="59.3507" y1="26.166" x2="59.3507" y2="28.1483" stroke="url(#paint2_linear_735_6402)" stroke-width="1.826"/>
<defs>
<linearGradient id="paint0_linear_735_6402" x1="44.5183" y1="8.22156" x2="66.3807" y2="11.7842" gradientUnits="userSpaceOnUse">
<stop stop-color="#323232"/>
<stop offset="1" stop-color="#F3F3F3"/>
</linearGradient>
<linearGradient id="paint1_linear_735_6402" x1="58.297" y1="7.33447" x2="54.3098" y2="8.88655" gradientUnits="userSpaceOnUse">
<stop stop-color="#323232"/>
<stop offset="1" stop-color="#F3F3F3"/>
</linearGradient>
<linearGradient id="paint2_linear_735_6402" x1="58.297" y1="26.166" x2="57.8678" y2="27.5026" gradientUnits="userSpaceOnUse">
<stop stop-color="#323232"/>
<stop offset="1" stop-color="#F3F3F3"/>
</linearGradient>
</defs>
</svg>
