<svg width="71" height="71" viewBox="0 0 71 71" fill="none" xmlns="http://www.w3.org/2000/svg">
<path d="M29.703 12.3442H18.8989" stroke="#F1F1F1" stroke-width="2"/>
<path d="M1 30V70H59V40.9384" stroke="#F1F1F1" stroke-width="2"/>
<path fill-rule="evenodd" clip-rule="evenodd" d="M18.899 12.3442L1 30.321H18.899V12.3442Z" stroke="#F1F1F1" stroke-width="2" stroke-linecap="round" stroke-linejoin="round"/>
<path fill-rule="evenodd" clip-rule="evenodd" d="M66.6912 18.8848C66.7527 27.196 59.699 33.9953 51.3387 33.9953C43.1539 33.9953 36.5183 27.3989 36.5183 19.262V18.9974C36.5183 14.856 38.2097 11.1085 40.9361 8.39064C43.777 5.57151 47.6116 3.99348 51.6053 4.00003C55.5992 3.99183 59.4342 5.57011 62.274 8.39064C64.9801 11.0844 66.661 14.7892 66.6912 18.8848Z" stroke="url(#paint0_linear_735_6402)" stroke-width="2"/>
<line x1="51.4377" y1="7.33447" x2="51.4377" y2="23.1925" stroke="url(#paint1_linear_735_6402)" stroke-width="2"/>
<line x1="51.3507" y1="26.166" x2="51.3507" y2="28.1483" stroke="url(#paint2_linear_735_6402)" stroke-width="1.826"/>
<defs>
<linearGradient id="paint0_linear_735_6402" x1="36.5183" y1="8.22156" x2="58.3807" y2="11.7842" gradientUnits="userSpaceOnUse">
<stop stop-color="#323232"/>
<stop offset="1" stop-color="#F3F3F3"/>
</linearGradient>
<linearGradient id="paint1_linear_735_6402" x1="50.297" y1="7.33447" x2="46.3098" y2="8.88655" gradientUnits="userSpaceOnUse">
<stop stop-color="#323232"/>
<stop offset="1" stop-color="#F3F3F3"/>
</linearGradient>
<linearGradient id="paint2_linear_735_6402" x1="50.297" y1="26.166" x2="49.8678" y2="27.5026" gradientUnits="userSpaceOnUse">
<stop stop-color="#323232"/>
<stop offset="1" stop-color="#F3F3F3"/>
</linearGradient>
</defs>
</svg>
