<svg width="44" height="44" viewBox="0 0 44 44" fill="none" xmlns="http://www.w3.org/2000/svg">
<path d="M22 5C12.6114 5 5 12.6114 5 22C5 31.3886 12.6114 39 22 39C31.3886 39 39 31.3886 39 22C39 12.6114 31.3886 5 22 5ZM22 31.5996C16.7078 31.5996 12.4004 27.2922 12.4004 22C12.4004 16.7078 16.7078 12.4004 22 12.4004C27.2922 12.4004 31.5996 16.7078 31.5996 22C31.5996 27.2922 27.2922 31.5996 22 31.5996Z" fill="url(#paint0_linear_663_7536)"/>
<path d="M22 29.7376C26.2734 29.7376 29.7376 26.2734 29.7376 22C29.7376 17.7266 26.2734 14.2624 22 14.2624C17.7266 14.2624 14.2624 17.7266 14.2624 22C14.2624 26.2734 17.7266 29.7376 22 29.7376Z" fill="url(#paint1_linear_663_7536)"/>
<defs>
<linearGradient id="paint0_linear_663_7536" x1="5" y1="9.78519" x2="29.6426" y2="13.7772" gradientUnits="userSpaceOnUse">
<stop stop-color="#323232"/>
<stop offset="1" stop-color="#F3F3F3"/>
</linearGradient>
<linearGradient id="paint1_linear_663_7536" x1="5" y1="9.78519" x2="29.6426" y2="13.7772" gradientUnits="userSpaceOnUse">
<stop stop-color="#323232"/>
<stop offset="1" stop-color="#F3F3F3"/>
</linearGradient>
</defs>
</svg>
