<svg width="71" height="71" viewBox="0 0 71 71" fill="none" xmlns="http://www.w3.org/2000/svg">
<path d="M29.703 12.437H18.8989" stroke="#F1F1F1" stroke-width="2"/>
<path d="M1 31V70H58V41.6649" stroke="#F1F1F1" stroke-width="2"/>
<path fill-rule="evenodd" clip-rule="evenodd" d="M18.899 12.437L1 30.5747H18.899V12.437Z" stroke="#F1F1F1" stroke-width="2" stroke-linecap="round" stroke-linejoin="round"/>
<path fill-rule="evenodd" clip-rule="evenodd" d="M66.6912 19.0181C66.7527 27.4037 59.699 34.2638 51.3387 34.2638C43.1539 34.2638 36.5183 27.6084 36.5183 19.3987V19.1316C36.5183 14.9532 38.2097 11.1721 40.9361 8.42995C43.777 5.58558 47.6116 3.99342 51.6053 4.00003C55.5992 3.99175 59.4342 5.58417 62.274 8.42995C64.9801 11.1478 66.661 14.8858 66.6912 19.0181Z" stroke="url(#paint0_linear_735_6435)" stroke-width="2"/>
<path d="M43.3418 20.9733L48.3476 25.9935L59.8678 14.437" stroke="url(#paint1_linear_735_6435)" stroke-width="2"/>
<path d="M15.3513 47.5989H44.0544" stroke="#F1F1F1" stroke-width="2"/>
<path d="M15.3513 55.134H44.0544" stroke="#F1F1F1" stroke-width="2"/>
<defs>
<linearGradient id="paint0_linear_735_6435" x1="36.5183" y1="8.25936" x2="58.3907" y2="11.792" gradientUnits="userSpaceOnUse">
<stop stop-color="#323232"/>
<stop offset="1" stop-color="#F3F3F3"/>
</linearGradient>
<linearGradient id="paint1_linear_735_6435" x1="43.3418" y1="16.0635" x2="55.0078" y2="18.766" gradientUnits="userSpaceOnUse">
<stop stop-color="#323232"/>
<stop offset="1" stop-color="#F3F3F3"/>
</linearGradient>
</defs>
</svg>
