<svg width="78" height="78" viewBox="0 0 78 78" fill="none" xmlns="http://www.w3.org/2000/svg">
<path d="M35.703 13.4373H24.8989" stroke="#F1F1F1" stroke-width="2"/>
<path d="M7 32V72H64V42.9384" stroke="#F1F1F1" stroke-width="2"/>
<path fill-rule="evenodd" clip-rule="evenodd" d="M24.899 13.4373L7 31.5749H24.899V13.4373Z" stroke="#F1F1F1" stroke-width="2" stroke-linecap="round" stroke-linejoin="round"/>
<path fill-rule="evenodd" clip-rule="evenodd" d="M74.6912 18.0181C74.7527 26.4037 67.699 33.2638 59.3387 33.2638C51.1539 33.2638 44.5183 26.6084 44.5183 18.3987V18.1316C44.5183 13.9532 46.2097 10.1721 48.9361 7.42995C51.777 4.58558 55.6116 2.99342 59.6053 3.00003C63.5992 2.99175 67.4342 4.58417 70.274 7.42995C72.9801 10.1478 74.661 13.8858 74.6912 18.0181Z" stroke="url(#paint0_linear_735_6435)" stroke-width="2"/>
<path d="M51.3418 19.9736L56.3476 24.9937L67.8678 13.4373" stroke="url(#paint1_linear_735_6435)" stroke-width="2"/>
<path d="M21.3513 48.5989H50.0544" stroke="#F1F1F1" stroke-width="2"/>
<path d="M21.3513 56.134H50.0544" stroke="#F1F1F1" stroke-width="2"/>
<defs>
<linearGradient id="paint0_linear_735_6435" x1="44.5183" y1="7.25936" x2="66.3907" y2="10.792" gradientUnits="userSpaceOnUse">
<stop stop-color="#323232"/>
<stop offset="1" stop-color="#F3F3F3"/>
</linearGradient>
<linearGradient id="paint1_linear_735_6435" x1="51.3418" y1="15.0637" x2="63.0078" y2="17.7663" gradientUnits="userSpaceOnUse">
<stop stop-color="#323232"/>
<stop offset="1" stop-color="#F3F3F3"/>
</linearGradient>
</defs>
</svg>
