<svg width="43" height="42" viewBox="0 0 43 42" fill="none" xmlns="http://www.w3.org/2000/svg">
<path fill-rule="evenodd" clip-rule="evenodd" d="M21.666 33C28.2934 33 33.666 27.6274 33.666 21C33.666 14.3726 28.2934 9 21.666 9C15.0386 9 9.66602 14.3726 9.66602 21C9.66602 27.6274 15.0386 33 21.666 33ZM13.666 20.5V21.4998C13.6785 21.5907 13.6899 21.6818 13.7014 21.7728C13.7275 21.9807 13.7536 22.1884 13.7917 22.3936C14.126 24.2314 14.9975 25.7694 16.395 27.0055C17.5332 28.0125 18.8568 28.6462 20.3569 28.8896C22.2035 29.1893 23.9491 28.8775 25.5874 27.9711C25.602 27.963 25.6157 27.9537 25.632 27.9426C25.6409 27.9365 25.6506 27.9299 25.6617 27.9227L24.6766 26.219C24.5729 26.2643 24.4712 26.3105 24.3706 26.3564C24.1529 26.4554 23.9401 26.5523 23.7212 26.6323C20.2046 27.9143 16.3937 25.703 15.7555 22.0137C15.1912 18.7528 17.3792 15.6602 20.655 15.0878C23.8986 14.5213 27.0312 16.7352 27.5738 19.9773C27.6932 20.6903 27.7094 21.4101 27.6305 22.1244C27.5684 22.69 27.1046 23.0407 26.5787 22.9965C26.0494 22.9518 25.6654 22.5164 25.665 21.9536C25.6641 21.0611 25.6643 20.1683 25.6645 19.2755C25.6645 18.9184 25.6646 18.5613 25.6646 18.2043V17.9997C25.5766 17.9997 25.4895 17.9981 25.4031 17.9966C25.2103 17.9931 25.0209 17.9897 24.8327 18.0039C24.4817 18.0306 24.2037 17.9296 23.9069 17.7217C21.4797 16.0209 18.1155 17.5029 17.7039 20.4398C17.355 22.9276 19.3715 25.1306 21.8779 24.9941C22.7407 24.9469 23.5075 24.6388 24.1782 24.0936C24.2177 24.0613 24.2568 24.0283 24.2971 23.9944C24.3219 23.9734 24.3472 23.9521 24.3732 23.9304C24.3965 23.9535 24.4192 23.9766 24.4418 23.9994C24.4933 24.0515 24.5435 24.1023 24.596 24.1508C25.4404 24.9302 26.4234 25.1999 27.5254 24.8659C28.6215 24.534 29.2839 23.7579 29.5652 22.6587C29.6274 22.4141 29.6541 22.1553 29.6587 21.9023C29.6733 21.0798 29.6833 20.257 29.5101 19.445C29.0117 17.108 27.7345 15.3245 25.6917 14.095C24.6453 13.4655 23.5037 13.1165 22.2845 13.0255C22.2568 13.0235 22.2295 13.0164 22.2022 13.0093C22.1896 13.006 22.1769 13.0028 22.1643 13H21.1646C21.0725 13.0127 20.9803 13.0246 20.888 13.0364C20.6871 13.0622 20.4862 13.088 20.2868 13.1232C18.6009 13.4196 17.1571 14.1844 15.9596 15.4042C14.7254 16.6613 13.9908 18.17 13.7386 19.9138C13.7187 20.0509 13.7026 20.1884 13.6866 20.3259C13.6798 20.384 13.6731 20.442 13.666 20.5ZM21.6638 19C22.7628 19 23.6627 19.8975 23.664 20.9955C23.6652 22.0956 22.7699 22.9969 21.6726 22.9998C20.5661 23.0027 19.6636 22.1027 19.6649 20.9963C19.6661 19.8975 20.5644 19 21.6638 19Z" fill="#F1F1F1"/>
</svg>
