<svg width="71" height="71" viewBox="0 0 71 71" fill="none" xmlns="http://www.w3.org/2000/svg">
<path fill-rule="evenodd" clip-rule="evenodd" d="M66.9994 18.9016C67.0608 27.2223 60.0258 34.0292 51.6878 34.0292C43.5247 34.0292 36.9067 27.4253 36.9067 19.2793V19.0143C36.9067 14.8682 38.5936 11.1165 41.3128 8.39561C44.1462 5.57328 47.9706 3.99347 51.9537 4.00003C55.9369 3.99182 59.7617 5.57189 62.5939 8.39561C65.2928 11.0924 66.9693 14.8014 66.9994 18.9016Z" stroke="url(#paint0_linear_735_6451)" stroke-width="2"/>
<line x1="51.8696" y1="8.96094" x2="51.8696" y2="24.8369" stroke="url(#paint1_linear_735_6451)" stroke-width="2"/>
<line x1="51.7826" y1="27.814" x2="51.7826" y2="29.7985" stroke="url(#paint2_linear_735_6451)" stroke-width="1.826"/>
<path d="M30 12H1V70H61V41" stroke="#F1F1F1" stroke-width="2"/>
<line x1="2" y1="56" x2="60" y2="56" stroke="#F1F1F1" stroke-width="2"/>
<path d="M29.923 37.7521C32.677 37.7521 34.9097 35.5308 34.9097 32.7908C34.9097 30.0508 32.677 27.8296 29.923 27.8296C27.1689 27.8296 24.9362 30.0508 24.9362 32.7908" stroke="#F1F1F1" stroke-width="2"/>
<line x1="30.9229" y1="37.752" x2="30.9229" y2="41.7209" stroke="#F1F1F1" stroke-width="2"/>
<line x1="1.54559" y1="56.1092" x2="31.4978" y2="40.8302" stroke="#F1F1F1" stroke-width="2"/>
<line x1="30.3414" y1="40.8292" x2="60.4525" y2="56.1082" stroke="#F1F1F1" stroke-width="2"/>
<defs>
<linearGradient id="paint0_linear_735_6451" x1="36.9067" y1="8.22634" x2="58.7152" y2="11.7668" gradientUnits="userSpaceOnUse">
<stop stop-color="#323232"/>
<stop offset="1" stop-color="#F3F3F3"/>
</linearGradient>
<linearGradient id="paint1_linear_735_6451" x1="50.7289" y1="8.96094" x2="46.7405" y2="10.5117" gradientUnits="userSpaceOnUse">
<stop stop-color="#323232"/>
<stop offset="1" stop-color="#F3F3F3"/>
</linearGradient>
<linearGradient id="paint2_linear_735_6451" x1="50.7289" y1="27.814" x2="50.2988" y2="29.1518" gradientUnits="userSpaceOnUse">
<stop stop-color="#323232"/>
<stop offset="1" stop-color="#F3F3F3"/>
</linearGradient>
</defs>
</svg>
