<svg width="44" height="44" viewBox="0 0 44 44" fill="none" xmlns="http://www.w3.org/2000/svg">
<path d="M24.8421 6.84211C24.8421 8.41176 23.5696 9.68421 21.9999 9.68421C20.4303 9.68421 19.1578 8.41176 19.1578 6.84211C19.1578 5.27245 20.4303 4 21.9999 4C23.5696 4 24.8421 5.27245 24.8421 6.84211Z" fill="url(#paint0_linear_663_7540)"/>
<path d="M37.6467 14.4211C37.6467 15.9907 36.3743 17.2632 34.8046 17.2632C33.235 17.2632 31.9625 15.9907 31.9625 14.4211C31.9625 12.8514 33.235 11.5789 34.8046 11.5789C36.3743 11.5789 37.6467 12.8514 37.6467 14.4211Z" fill="url(#paint1_linear_663_7540)"/>
<path d="M37.6467 22C37.6467 23.5697 36.3743 24.8421 34.8046 24.8421C33.235 24.8421 31.9625 23.5697 31.9625 22C31.9625 20.4304 33.235 19.1579 34.8046 19.1579C36.3743 19.1579 37.6467 20.4304 37.6467 22Z" fill="url(#paint2_linear_663_7540)"/>
<path d="M37.6467 29.579C37.6467 31.1486 36.3743 32.4211 34.8046 32.4211C33.235 32.4211 31.9625 31.1486 31.9625 29.579C31.9625 28.0093 33.235 26.7368 34.8046 26.7368C36.3743 26.7368 37.6467 28.0093 37.6467 29.579Z" fill="url(#paint3_linear_663_7540)"/>
<path d="M31.2444 10.9912C31.2444 12.5608 29.9719 13.8333 28.4023 13.8333C26.8326 13.8333 25.5602 12.5608 25.5602 10.9912C25.5602 9.42153 26.8326 8.14908 28.4023 8.14908C29.9719 8.14908 31.2444 9.42153 31.2444 10.9912Z" fill="url(#paint4_linear_663_7540)"/>
<path d="M31.2444 18.1579C31.2444 19.7276 29.9719 21 28.4023 21C26.8326 21 25.5602 19.7276 25.5602 18.1579C25.5602 16.5882 26.8326 15.3158 28.4023 15.3158C29.9719 15.3158 31.2444 16.5882 31.2444 18.1579Z" fill="url(#paint5_linear_663_7540)"/>
<path d="M31.2444 25.854C31.2444 27.4236 29.9719 28.6961 28.4023 28.6961C26.8326 28.6961 25.5602 27.4236 25.5602 25.854C25.5602 24.2843 26.8326 23.0119 28.4023 23.0119C29.9719 23.0119 31.2444 24.2843 31.2444 25.854Z" fill="url(#paint6_linear_663_7540)"/>
<path d="M31.2444 33.0948C31.2444 34.6645 29.9719 35.9369 28.4023 35.9369C26.8326 35.9369 25.5602 34.6645 25.5602 33.0948C25.5602 31.5252 26.8326 30.2527 28.4023 30.2527C29.9719 30.2527 31.2444 31.5252 31.2444 33.0948Z" fill="url(#paint7_linear_663_7540)"/>
<path d="M6.35352 29.6649C6.35352 28.0953 7.62597 26.8228 9.19562 26.8228C10.7653 26.8228 12.0377 28.0953 12.0377 29.6649C12.0377 31.2346 10.7653 32.507 9.19562 32.507C7.62597 32.507 6.35352 31.2346 6.35352 29.6649Z" fill="url(#paint8_linear_663_7540)"/>
<path d="M6.35352 22.086C6.35352 20.5163 7.62597 19.2439 9.19562 19.2439C10.7653 19.2439 12.0377 20.5163 12.0377 22.086C12.0377 23.6556 10.7653 24.9281 9.19562 24.9281C7.62597 24.9281 6.35352 23.6556 6.35352 22.086Z" fill="url(#paint9_linear_663_7540)"/>
<path d="M6.35352 14.507C6.35352 12.9374 7.62597 11.6649 9.19562 11.6649C10.7653 11.6649 12.0377 12.9374 12.0377 14.507C12.0377 16.0767 10.7653 17.3491 9.19562 17.3491C7.62597 17.3491 6.35352 16.0767 6.35352 14.507Z" fill="url(#paint10_linear_663_7540)"/>
<path d="M12.7559 33.0948C12.7559 31.5251 14.0283 30.2527 15.598 30.2527C17.1676 30.2527 18.4401 31.5251 18.4401 33.0948C18.4401 34.6645 17.1676 35.9369 15.598 35.9369C14.0283 35.9369 12.7559 34.6645 12.7559 33.0948Z" fill="url(#paint11_linear_663_7540)"/>
<path d="M12.7559 25.9281C12.7559 24.3584 14.0283 23.086 15.598 23.086C17.1676 23.086 18.4401 24.3584 18.4401 25.9281C18.4401 27.4977 17.1676 28.7702 15.598 28.7702C14.0283 28.7702 12.7559 27.4977 12.7559 25.9281Z" fill="url(#paint12_linear_663_7540)"/>
<path d="M12.7559 18.232C12.7559 16.6624 14.0283 15.3899 15.598 15.3899C17.1676 15.3899 18.4401 16.6624 18.4401 18.232C18.4401 19.8017 17.1676 21.0741 15.598 21.0741C14.0283 21.0741 12.7559 19.8017 12.7559 18.232Z" fill="url(#paint13_linear_663_7540)"/>
<path d="M12.7559 10.9912C12.7559 9.42153 14.0283 8.14907 15.598 8.14907C17.1676 8.14907 18.4401 9.42153 18.4401 10.9912C18.4401 12.5608 17.1676 13.8333 15.598 13.8333C14.0283 13.8333 12.7559 12.5608 12.7559 10.9912Z" fill="url(#paint14_linear_663_7540)"/>
<path d="M24.8421 14.4211C24.8421 15.9907 23.5696 17.2632 21.9999 17.2632C20.4303 17.2632 19.1578 15.9907 19.1578 14.4211C19.1578 12.8514 20.4303 11.5789 21.9999 11.5789C23.5696 11.5789 24.8421 12.8514 24.8421 14.4211Z" fill="url(#paint15_linear_663_7540)"/>
<path d="M24.8421 22C24.8421 23.5697 23.5696 24.8421 21.9999 24.8421C20.4303 24.8421 19.1578 23.5697 19.1578 22C19.1578 20.4304 20.4303 19.1579 21.9999 19.1579C23.5696 19.1579 24.8421 20.4304 24.8421 22Z" fill="url(#paint16_linear_663_7540)"/>
<path d="M24.8421 29.579C24.8421 31.1486 23.5696 32.4211 21.9999 32.4211C20.4303 32.4211 19.1578 31.1486 19.1578 29.579C19.1578 28.0093 20.4303 26.7368 21.9999 26.7368C23.5696 26.7368 24.8421 28.0093 24.8421 29.579Z" fill="url(#paint17_linear_663_7540)"/>
<path d="M24.8421 37.1579C24.8421 38.7276 23.5696 40 21.9999 40C20.4303 40 19.1578 38.7276 19.1578 37.1579C19.1578 35.5883 20.4303 34.3158 21.9999 34.3158C23.5696 34.3158 24.8421 35.5883 24.8421 37.1579Z" fill="url(#paint18_linear_663_7540)"/>
<defs>
<linearGradient id="paint0_linear_663_7540" x1="6.35352" y1="9.06667" x2="29.1769" y2="12.2806" gradientUnits="userSpaceOnUse">
<stop stop-color="#323232"/>
<stop offset="1" stop-color="#F3F3F3"/>
</linearGradient>
<linearGradient id="paint1_linear_663_7540" x1="6.35352" y1="9.06667" x2="29.1769" y2="12.2806" gradientUnits="userSpaceOnUse">
<stop stop-color="#323232"/>
<stop offset="1" stop-color="#F3F3F3"/>
</linearGradient>
<linearGradient id="paint2_linear_663_7540" x1="6.35352" y1="9.06667" x2="29.1769" y2="12.2806" gradientUnits="userSpaceOnUse">
<stop stop-color="#323232"/>
<stop offset="1" stop-color="#F3F3F3"/>
</linearGradient>
<linearGradient id="paint3_linear_663_7540" x1="6.35352" y1="9.06667" x2="29.1769" y2="12.2806" gradientUnits="userSpaceOnUse">
<stop stop-color="#323232"/>
<stop offset="1" stop-color="#F3F3F3"/>
</linearGradient>
<linearGradient id="paint4_linear_663_7540" x1="6.35352" y1="9.06667" x2="29.1769" y2="12.2806" gradientUnits="userSpaceOnUse">
<stop stop-color="#323232"/>
<stop offset="1" stop-color="#F3F3F3"/>
</linearGradient>
<linearGradient id="paint5_linear_663_7540" x1="6.35352" y1="9.06667" x2="29.1769" y2="12.2806" gradientUnits="userSpaceOnUse">
<stop stop-color="#323232"/>
<stop offset="1" stop-color="#F3F3F3"/>
</linearGradient>
<linearGradient id="paint6_linear_663_7540" x1="6.35352" y1="9.06667" x2="29.1769" y2="12.2806" gradientUnits="userSpaceOnUse">
<stop stop-color="#323232"/>
<stop offset="1" stop-color="#F3F3F3"/>
</linearGradient>
<linearGradient id="paint7_linear_663_7540" x1="6.35352" y1="9.06667" x2="29.1769" y2="12.2806" gradientUnits="userSpaceOnUse">
<stop stop-color="#323232"/>
<stop offset="1" stop-color="#F3F3F3"/>
</linearGradient>
<linearGradient id="paint8_linear_663_7540" x1="6.35352" y1="9.06667" x2="29.1769" y2="12.2806" gradientUnits="userSpaceOnUse">
<stop stop-color="#323232"/>
<stop offset="1" stop-color="#F3F3F3"/>
</linearGradient>
<linearGradient id="paint9_linear_663_7540" x1="6.35352" y1="9.06667" x2="29.1769" y2="12.2806" gradientUnits="userSpaceOnUse">
<stop stop-color="#323232"/>
<stop offset="1" stop-color="#F3F3F3"/>
</linearGradient>
<linearGradient id="paint10_linear_663_7540" x1="6.35352" y1="9.06667" x2="29.1769" y2="12.2806" gradientUnits="userSpaceOnUse">
<stop stop-color="#323232"/>
<stop offset="1" stop-color="#F3F3F3"/>
</linearGradient>
<linearGradient id="paint11_linear_663_7540" x1="6.35352" y1="9.06667" x2="29.1769" y2="12.2806" gradientUnits="userSpaceOnUse">
<stop stop-color="#323232"/>
<stop offset="1" stop-color="#F3F3F3"/>
</linearGradient>
<linearGradient id="paint12_linear_663_7540" x1="6.35352" y1="9.06667" x2="29.1769" y2="12.2806" gradientUnits="userSpaceOnUse">
<stop stop-color="#323232"/>
<stop offset="1" stop-color="#F3F3F3"/>
</linearGradient>
<linearGradient id="paint13_linear_663_7540" x1="6.35352" y1="9.06667" x2="29.1769" y2="12.2806" gradientUnits="userSpaceOnUse">
<stop stop-color="#323232"/>
<stop offset="1" stop-color="#F3F3F3"/>
</linearGradient>
<linearGradient id="paint14_linear_663_7540" x1="6.35352" y1="9.06667" x2="29.1769" y2="12.2806" gradientUnits="userSpaceOnUse">
<stop stop-color="#323232"/>
<stop offset="1" stop-color="#F3F3F3"/>
</linearGradient>
<linearGradient id="paint15_linear_663_7540" x1="6.35352" y1="9.06667" x2="29.1769" y2="12.2806" gradientUnits="userSpaceOnUse">
<stop stop-color="#323232"/>
<stop offset="1" stop-color="#F3F3F3"/>
</linearGradient>
<linearGradient id="paint16_linear_663_7540" x1="6.35352" y1="9.06667" x2="29.1769" y2="12.2806" gradientUnits="userSpaceOnUse">
<stop stop-color="#323232"/>
<stop offset="1" stop-color="#F3F3F3"/>
</linearGradient>
<linearGradient id="paint17_linear_663_7540" x1="6.35352" y1="9.06667" x2="29.1769" y2="12.2806" gradientUnits="userSpaceOnUse">
<stop stop-color="#323232"/>
<stop offset="1" stop-color="#F3F3F3"/>
</linearGradient>
<linearGradient id="paint18_linear_663_7540" x1="6.35352" y1="9.06667" x2="29.1769" y2="12.2806" gradientUnits="userSpaceOnUse">
<stop stop-color="#323232"/>
<stop offset="1" stop-color="#F3F3F3"/>
</linearGradient>
</defs>
</svg>
