<svg width="78" height="78" viewBox="0 0 78 78" fill="none" xmlns="http://www.w3.org/2000/svg">
<g clip-path="url(#clip0_735_6452)">
<path fill-rule="evenodd" clip-rule="evenodd" d="M73.9996 18.8871C74.0608 27.1997 67.0476 34 58.7353 34C50.5975 34 44 27.4025 44 19.2644V18.9997C44 14.8577 45.6817 11.1096 48.3924 8.39133C51.217 5.57175 55.0296 3.99348 59.0004 4.00003C62.9713 3.99183 66.7843 5.57036 69.6078 8.39133C72.2983 11.0855 73.9696 14.7909 73.9996 18.8871Z" stroke="url(#paint0_linear_735_6452)" stroke-width="2"/>
<path d="M51 20.7872L55.8465 26L67 14" stroke="url(#paint1_linear_735_6452)" stroke-width="2"/>
<path d="M65 41V71H8V13H36" stroke="#F1F1F1" stroke-width="2"/>
<path d="M36.5684 34.7446L64.0002 41.9878L36.5684 49.2311L9.13655 41.9878L36.5684 34.7446Z" stroke="#F1F1F1" stroke-width="2" stroke-linejoin="bevel"/>
<path d="M48.5698 46.0622L64.0002 50.1365L36.5684 57.3798L9.13655 50.1365L24.567 46.0622" stroke="#F1F1F1" stroke-width="2" stroke-linejoin="bevel"/>
<path d="M48.5698 54.2109L64.0002 58.2852L36.5684 65.5285L9.13655 58.2852L24.567 54.2109" stroke="#F1F1F1" stroke-width="2" stroke-linejoin="bevel"/>
</g>
<defs>
<linearGradient id="paint0_linear_735_6452" x1="44" y1="8.22222" x2="65.7434" y2="11.7446" gradientUnits="userSpaceOnUse">
<stop stop-color="#323232"/>
<stop offset="1" stop-color="#F3F3F3"/>
</linearGradient>
<linearGradient id="paint1_linear_735_6452" x1="51" y1="15.6889" x2="62.3703" y2="18.1449" gradientUnits="userSpaceOnUse">
<stop stop-color="#323232"/>
<stop offset="1" stop-color="#F3F3F3"/>
</linearGradient>
<clipPath id="clip0_735_6452">
<rect width="78" height="78" fill="white"/>
</clipPath>
</defs>
</svg>
