<svg width="71" height="71" viewBox="0 0 71 71" fill="none" xmlns="http://www.w3.org/2000/svg">
<g clip-path="url(#clip0_735_6452)">
<path fill-rule="evenodd" clip-rule="evenodd" d="M66.9996 18.8871C67.0608 27.1997 60.0476 34 51.7353 34C43.5975 34 37 27.4025 37 19.2644V18.9997C37 14.8577 38.6817 11.1096 41.3924 8.39133C44.217 5.57175 48.0296 3.99348 52.0004 4.00003C55.9713 3.99183 59.7843 5.57036 62.6078 8.39133C65.2983 11.0855 66.9696 14.7909 66.9996 18.8871Z" stroke="url(#paint0_linear_735_6452)" stroke-width="2"/>
<path d="M44 20.7872L48.8465 26L60 14" stroke="url(#paint1_linear_735_6452)" stroke-width="2"/>
<path d="M58 41V70H1V12H29" stroke="#F1F1F1" stroke-width="2"/>
<path d="M29.5684 34.7446L57.0002 41.9878L29.5684 49.2311L2.13655 41.9878L29.5684 34.7446Z" stroke="#F1F1F1" stroke-width="2" stroke-linejoin="bevel"/>
<path d="M41.5698 46.0622L57.0002 50.1365L29.5684 57.3798L2.13655 50.1365L17.567 46.0622" stroke="#F1F1F1" stroke-width="2" stroke-linejoin="bevel"/>
<path d="M41.5698 54.2109L57.0002 58.2852L29.5684 65.5285L2.13655 58.2852L17.567 54.2109" stroke="#F1F1F1" stroke-width="2" stroke-linejoin="bevel"/>
</g>
<defs>
<linearGradient id="paint0_linear_735_6452" x1="37" y1="8.22222" x2="58.7434" y2="11.7446" gradientUnits="userSpaceOnUse">
<stop stop-color="#323232"/>
<stop offset="1" stop-color="#F3F3F3"/>
</linearGradient>
<linearGradient id="paint1_linear_735_6452" x1="44" y1="15.6889" x2="55.3703" y2="18.1449" gradientUnits="userSpaceOnUse">
<stop stop-color="#323232"/>
<stop offset="1" stop-color="#F3F3F3"/>
</linearGradient>
<clipPath id="clip0_735_6452">
<rect width="71" height="71" fill="white"/>
</clipPath>
</defs>
</svg>
