<svg width="78" height="78" viewBox="0 0 78 78" fill="none" xmlns="http://www.w3.org/2000/svg">
<path fill-rule="evenodd" clip-rule="evenodd" d="M53.9999 45.4661C54.0182 47.9599 51.9143 50 49.4206 50C46.9793 50 45 48.0208 45 45.5793V45.4999C45 44.2573 45.5045 43.1329 46.3177 42.3174C47.1651 41.4715 48.3089 40.998 49.5001 41C50.6914 40.9975 51.8353 41.4711 52.6823 42.3174C53.4895 43.1256 53.9909 44.2373 53.9999 45.4661Z" stroke="#F1F1F1" stroke-width="2"/>
<path fill-rule="evenodd" clip-rule="evenodd" d="M74.1728 21.0181C74.2344 29.4037 67.1807 36.2638 58.8204 36.2638C50.6356 36.2638 44 29.6084 44 21.3987V21.1316C44 16.9532 45.6914 13.1721 48.4178 10.4299C51.2587 7.58558 55.0933 5.99342 59.087 6.00003C63.0809 5.99175 66.9159 7.58417 69.7557 10.4299C72.4618 13.1478 74.1427 16.8858 74.1728 21.0181Z" stroke="url(#paint0_linear_735_6418)" stroke-width="2"/>
<path d="M8 61.5L29 40.5L50 61.5L57.5 54L66 62.5M36 14H8V72H66V43" stroke="#F1F1F1" stroke-width="2"/>
<line x1="59" y1="10" x2="59" y2="26" stroke="url(#paint1_linear_735_6418)" stroke-width="2"/>
<line x1="58.913" y1="29" x2="58.913" y2="31" stroke="url(#paint2_linear_735_6418)" stroke-width="1.826"/>
<defs>
<linearGradient id="paint0_linear_735_6418" x1="44" y1="10.2594" x2="65.8723" y2="13.792" gradientUnits="userSpaceOnUse">
<stop stop-color="#323232"/>
<stop offset="1" stop-color="#F3F3F3"/>
</linearGradient>
<linearGradient id="paint1_linear_735_6418" x1="57.8593" y1="10" x2="53.8627" y2="11.5419" gradientUnits="userSpaceOnUse">
<stop stop-color="#323232"/>
<stop offset="1" stop-color="#F3F3F3"/>
</linearGradient>
<linearGradient id="paint2_linear_735_6418" x1="57.8593" y1="29" x2="57.4231" y2="30.3463" gradientUnits="userSpaceOnUse">
<stop stop-color="#323232"/>
<stop offset="1" stop-color="#F3F3F3"/>
</linearGradient>
</defs>
</svg>
