<svg width="71" height="71" viewBox="0 0 71 71" fill="none" xmlns="http://www.w3.org/2000/svg">
<path fill-rule="evenodd" clip-rule="evenodd" d="M46.9999 43.4661C47.0182 45.9599 44.9143 48 42.4206 48C39.9793 48 38 46.0208 38 43.5793V43.4999C38 42.2573 38.5045 41.1329 39.3177 40.3174C40.1651 39.4715 41.3089 38.998 42.5001 39C43.6914 38.9975 44.8353 39.4711 45.6823 40.3174C46.4895 41.1256 46.9909 42.2373 46.9999 43.4661Z" stroke="#F1F1F1" stroke-width="2"/>
<path fill-rule="evenodd" clip-rule="evenodd" d="M67.1728 19.0181C67.2344 27.4037 60.1807 34.2638 51.8204 34.2638C43.6356 34.2638 37 27.6084 37 19.3987V19.1316C37 14.9532 38.6914 11.1721 41.4178 8.42995C44.2587 5.58558 48.0933 3.99342 52.087 4.00003C56.0809 3.99175 59.9159 5.58417 62.7557 8.42995C65.4618 11.1478 67.1427 14.8858 67.1728 19.0181Z" stroke="url(#paint0_linear_735_6434)" stroke-width="2"/>
<path d="M43.8232 20.9733L48.8291 25.9935L60.3492 14.437" stroke="url(#paint1_linear_735_6434)" stroke-width="2"/>
<path d="M1 59.5L22 38.5L43 59.5L50.5 52L59 60.5M29 12H1V70H59V41" stroke="#F1F1F1" stroke-width="2"/>
<defs>
<linearGradient id="paint0_linear_735_6434" x1="37" y1="8.25936" x2="58.8723" y2="11.792" gradientUnits="userSpaceOnUse">
<stop stop-color="#323232"/>
<stop offset="1" stop-color="#F3F3F3"/>
</linearGradient>
<linearGradient id="paint1_linear_735_6434" x1="43.8232" y1="16.0635" x2="55.4892" y2="18.766" gradientUnits="userSpaceOnUse">
<stop stop-color="#323232"/>
<stop offset="1" stop-color="#F3F3F3"/>
</linearGradient>
</defs>
</svg>
