<svg width="42" height="42" viewBox="0 0 42 42" fill="none" xmlns="http://www.w3.org/2000/svg">
<path d="M21 9C27.6273 9 33 14.3727 33 21C33 27.6273 27.6273 33 21 33C14.3727 33 9 27.6273 9 21C9 14.3727 14.3727 9 21 9ZM25.1395 25.8916C25.3598 25.2147 26.3945 18.4653 26.5216 17.1349C26.5604 16.7324 26.4327 16.4645 26.184 16.3445C25.8824 16.2 25.4362 16.272 24.9175 16.4591C24.2067 16.7155 15.1222 20.5724 14.5975 20.796C14.1 21.0076 13.6293 21.2378 13.6293 21.5722C13.6293 21.8073 13.7689 21.9393 14.1529 22.0762C14.5522 22.2185 15.5585 22.5235 16.1536 22.6876C16.7264 22.8458 17.3771 22.7084 17.7425 22.4815C18.1293 22.2409 22.5976 19.2518 22.9178 18.9895C23.238 18.7276 23.4938 19.0631 23.232 19.3255C22.9702 19.5873 19.9036 22.5638 19.4989 22.9762C19.0075 23.4764 19.356 23.9951 19.686 24.2029C20.0618 24.4402 22.7673 26.2544 23.1747 26.5456C23.5822 26.8369 23.9951 26.9689 24.3736 26.9689C24.7522 26.9684 24.9513 26.4698 25.1395 25.8916Z" fill="#F1F1F1"/>
</svg>
