<svg width="42" height="42" viewBox="0 0 42 42" fill="none" xmlns="http://www.w3.org/2000/svg">
<path fill-rule="evenodd" clip-rule="evenodd" d="M15.5889 4.97612C17.0389 4.38352 18.7571 4 21 4C23.2429 4 24.9611 4.38352 26.4111 4.97612C27.8332 5.55731 28.9662 6.32917 30.0136 7.04271L30.0411 7.06144C31.1111 7.79034 32.0957 8.45764 33.3174 8.95706C34.5237 9.45015 35.9929 9.79042 38 9.79042V11.6799C35.7577 11.6799 34.0399 11.2964 32.5902 10.7038C31.1689 10.1228 30.0363 9.35116 28.9892 8.63782L28.9608 8.61849C27.8909 7.88963 26.9061 7.22233 25.684 6.7229C24.4775 6.2298 23.0077 5.88952 21 5.88952C18.9923 5.88952 17.5225 6.2298 16.316 6.7229C15.0939 7.22233 14.1091 7.88963 13.0392 8.61849L13.0108 8.63782C11.9637 9.35116 10.8311 10.1228 9.40978 10.7038C7.96006 11.2964 6.24229 11.6799 4 11.6799V9.79042C6.00709 9.79042 7.47635 9.45015 8.68257 8.95706C9.90431 8.45764 10.8889 7.79034 11.9589 7.06144L11.9864 7.04271C13.0338 6.32917 14.1668 5.55731 15.5889 4.97612ZM12.1662 15.5962C14.3416 14.7879 16.5884 13.9569 21 13.9569C25.4128 13.9569 27.6602 14.7879 29.8357 15.5962L29.8523 15.6024C31.921 16.3711 33.9238 17.1153 38 17.1153V19.0048C33.5884 19.0048 31.3416 18.1738 29.1662 17.3655L29.1504 17.3596C27.0815 16.5908 25.0781 15.8464 21 15.8464C16.9238 15.8464 14.921 16.5906 12.8523 17.3593L12.8357 17.3655C10.6602 18.1738 8.41282 19.0048 4 19.0048V17.1153C8.0781 17.1153 10.0815 16.3708 12.1504 15.6021L12.1662 15.5962ZM4 24.8399V22.9504H38V24.8399H4ZM4 31.42V29.5305H38V31.42H4ZM4 38V36.1105H38V38H4Z" fill="#FB3B11"/>
</svg>
