<svg width="43" height="42" viewBox="0 0 43 42" fill="none" xmlns="http://www.w3.org/2000/svg">
<path d="M21.333 9C14.706 9 9.33301 14.373 9.33301 21C9.33301 23.2512 9.96535 25.3501 11.0439 27.1504L9.44043 33L15.415 31.4316C17.1624 32.4251 19.1795 33 21.333 33C27.96 33 33.333 27.627 33.333 21C33.333 14.373 27.96 9 21.333 9ZM17.2256 15.4023C17.4206 15.4023 17.6209 15.4012 17.7939 15.4102C18.0079 15.4152 18.2409 15.4308 18.4639 15.9238C18.7289 16.5098 19.3059 17.9799 19.3799 18.1289C19.4539 18.2779 19.5063 18.4534 19.4033 18.6484C19.3053 18.8484 19.2544 18.9695 19.1104 19.1465C18.9614 19.3185 18.7981 19.5321 18.6631 19.6621C18.5141 19.8111 18.3602 19.9745 18.5322 20.2715C18.7042 20.5685 19.3016 21.5421 20.1846 22.3281C21.3196 23.3421 22.2772 23.6537 22.5752 23.8027C22.8732 23.9517 23.0458 23.9285 23.2178 23.7285C23.3948 23.5335 23.9611 22.8644 24.1611 22.5664C24.3561 22.2684 24.5552 22.32 24.8252 22.418C25.0992 22.516 26.5604 23.2358 26.8584 23.3848C27.1564 23.5338 27.3518 23.6075 27.4268 23.7285C27.5038 23.8535 27.5038 24.4486 27.2568 25.1426C27.0098 25.8356 25.7969 26.5057 25.2529 26.5527C24.7039 26.6037 24.1916 26.7995 21.6846 25.8125C18.6606 24.6215 16.7535 21.5242 16.6045 21.3242C16.4555 21.1292 15.3936 19.7139 15.3936 18.2539C15.3936 16.7889 16.1617 16.0714 16.4307 15.7734C16.7047 15.4754 17.0256 15.4023 17.2256 15.4023Z" fill="#F1F1F1"/>
</svg>
