<svg width="344" height="133" viewBox="0 0 344 133" fill="none" xmlns="http://www.w3.org/2000/svg">
<path d="M0.179688 107.25V85.9375L53.6172 1.75001H71.9922V31.25H61.1172L27.4297 84.5625V85.5625H103.367V107.25H0.179688ZM61.6172 129.75V100.75L62.1172 91.3125V1.75001H87.4922V129.75H61.6172Z" fill="url(#paint0_linear_518_6228)"/>
<path d="M171.586 132.562C160.836 132.521 151.586 129.875 143.836 124.625C136.128 119.375 130.19 111.771 126.023 101.813C121.898 91.8542 119.857 79.875 119.898 65.875C119.898 51.9167 121.961 40.0208 126.086 30.1875C130.253 20.3542 136.19 12.875 143.898 7.75001C151.648 2.58334 160.878 0 171.586 0C182.294 0 191.503 2.58334 199.211 7.75001C206.961 12.9167 212.919 20.4167 217.086 30.25C221.253 40.0417 223.315 51.9167 223.273 65.875C223.273 79.9167 221.19 91.9167 217.023 101.875C212.898 111.833 206.982 119.438 199.273 124.688C191.565 129.938 182.336 132.562 171.586 132.562ZM171.586 110.125C178.919 110.125 184.773 106.438 189.148 99.0625C193.523 91.6875 195.69 80.625 195.648 65.875C195.648 56.1667 194.648 48.0833 192.648 41.625C190.69 35.1667 187.898 30.3125 184.273 27.0625C180.69 23.8125 176.461 22.1875 171.586 22.1875C164.294 22.1875 158.461 25.8333 154.086 33.125C149.711 40.4167 147.503 51.3333 147.461 65.875C147.461 75.7083 148.44 83.9167 150.398 90.5C152.398 97.0417 155.211 101.958 158.836 105.25C162.461 108.5 166.711 110.125 171.586 110.125Z" fill="url(#paint1_linear_518_6228)"/>
<path d="M240.633 107.25V85.9375L294.07 1.75001H312.445V31.25H301.57L267.883 84.5625V85.5625H343.82V107.25H240.633ZM302.07 129.75V100.75L302.57 91.3125V1.75001H327.945V129.75H302.07Z" fill="url(#paint2_linear_518_6228)"/>
<defs>
<linearGradient id="paint0_linear_518_6228" x1="0.179687" y1="18.6569" x2="217.461" y2="109.904" gradientUnits="userSpaceOnUse">
<stop stop-color="#323232"/>
<stop offset="1" stop-color="#F3F3F3"/>
</linearGradient>
<linearGradient id="paint1_linear_518_6228" x1="0.179687" y1="18.6569" x2="217.461" y2="109.904" gradientUnits="userSpaceOnUse">
<stop stop-color="#323232"/>
<stop offset="1" stop-color="#F3F3F3"/>
</linearGradient>
<linearGradient id="paint2_linear_518_6228" x1="0.179687" y1="18.6569" x2="217.461" y2="109.904" gradientUnits="userSpaceOnUse">
<stop stop-color="#323232"/>
<stop offset="1" stop-color="#F3F3F3"/>
</linearGradient>
</defs>
</svg>
