<svg width="1359" height="257" viewBox="0 0 1359 257" fill="none" xmlns="http://www.w3.org/2000/svg">
<mask id="path-1-inside-1_752_6865" fill="white">
<path d="M73.2198 93.2837C68.9568 93.2837 65.4008 92.9634 62.5517 92.2586C59.7669 91.5539 57.5176 90.3152 55.8253 88.5853C54.2186 86.9196 52.9762 84.5917 52.2692 81.6873C51.5623 78.7188 51.1767 75.1096 51.1767 70.6675V1.13188H25.8347V73.1876C25.8347 81.1107 26.7344 87.8165 28.4268 93.4332C30.1619 98.9858 32.8182 103.492 36.567 106.973C40.2516 110.454 45.0287 112.974 50.8554 114.448C56.7464 115.985 63.8584 116.775 72.2558 116.775H144.019V93.3264H73.2412L73.2198 93.2837Z"/>
<path d="M337.951 36.3055C338.657 33.4651 339.9 31.1586 341.507 29.4715C343.178 27.7416 345.448 26.503 348.233 25.7982C351.082 25.0935 354.638 24.7731 358.965 24.7731H445.595V1.13188H357.937C349.54 1.13188 342.428 1.96477 336.537 3.52377C330.71 5.12548 325.933 7.6455 322.248 11.1266C318.564 14.6076 315.843 19.1138 314.108 24.6023C312.437 30.1549 311.516 36.8394 311.516 44.7839V73.2089C311.516 81.132 312.416 87.8379 314.108 93.4545C315.843 99.0071 318.564 103.513 322.248 106.994C325.933 110.475 330.71 112.995 336.537 114.469C342.428 116.007 349.54 116.797 357.937 116.797H424.902C431.5 116.797 436.598 114.917 440.154 111.116C443.646 107.315 445.445 100.801 445.445 91.5325V48.0941H367.684V68.0621H421.924V83.588C421.924 87.3253 421.217 89.9735 419.91 91.4471C418.561 92.9206 416.483 93.6468 413.57 93.6468H358.944C354.617 93.6468 351.061 93.3264 348.212 92.6217C345.427 91.9169 343.178 90.6783 341.485 88.9484C339.879 87.2826 338.636 84.9548 337.929 82.0504C337.222 79.1459 336.901 75.4727 336.901 71.0306V47.2398C336.901 42.8618 337.222 39.2526 337.929 36.3482L337.951 36.3055Z"/>
<path d="M616.563 116.754L553.218 1.13188H519.565L456.242 116.754H484.669L536.402 22.2958L588.136 116.754H616.563Z"/>
<path d="M649.574 1.13188V70.6889C649.574 75.0882 649.938 78.7615 650.645 81.666C651.373 84.5917 652.551 86.8982 654.201 88.6067C655.85 90.3152 658.1 91.5325 660.906 92.2372C663.734 92.9634 667.29 93.3051 671.595 93.3051H742.352V116.754H670.61C662.213 116.754 655.079 115.985 649.231 114.448C643.383 112.91 638.606 110.411 634.9 106.93C631.194 103.471 628.495 98.9431 626.781 93.3905C625.067 87.8379 624.21 81.0893 624.21 73.1448V1.13188H649.574Z"/>
<path d="M284.824 0V22.8724H208.884C204.6 22.8724 201.044 23.2355 198.237 23.9403C195.431 24.645 193.182 25.8623 191.468 27.5708C189.754 29.2793 188.576 31.5858 187.912 34.4902C187.248 37.3946 186.927 40.9825 186.927 45.2751V46.9195H283.839V67.1651H186.927V69.9628C186.927 74.234 187.248 77.8432 187.912 80.7476C188.576 83.6521 189.754 85.9585 191.468 87.667C193.182 89.3755 195.431 90.5715 198.237 91.2976C201.044 92.0237 204.6 92.3654 208.884 92.3654H284.824V115.238H208.37C199.994 115.238 192.903 114.469 187.077 112.931C181.25 111.394 176.473 108.895 172.788 105.435C169.104 101.976 166.405 97.4695 164.691 91.9383C162.977 86.407 162.142 79.6798 162.142 71.778V43.4598C162.142 35.558 162.999 28.8735 164.691 23.385C166.405 17.8965 169.082 13.433 172.788 9.97333C176.473 6.51363 181.229 3.9936 187.077 2.41325C192.903 0.811534 200.015 0.0213562 208.37 0.0213562H284.824V0Z"/>
<path d="M160.299 256.915L96.9766 141.292H63.3229L0 256.915H28.4268L80.1604 162.456L131.894 256.915H160.321H160.299Z"/>
<path d="M609.194 256.915L545.871 141.292H512.217L448.894 256.915H477.321L529.055 162.456L580.788 256.915H609.215H609.194Z"/>
<path d="M1065.86 256.915L1002.54 141.292H968.887L905.565 256.915H933.991L985.725 162.456L1037.46 256.915H1065.89H1065.86Z"/>
<path d="M315.501 141.292L378.823 256.915H412.477L475.8 141.292H447.373L395.64 235.751L343.906 141.292H315.479H315.501Z"/>
<path d="M257.79 141.292C266.744 141.292 274.413 142.211 280.819 144.026C287.224 145.841 292.472 148.66 296.564 152.462C300.655 156.263 303.654 161.111 305.604 167.005C307.532 172.899 308.496 179.862 308.496 187.913V210.38C308.496 218.431 307.532 225.393 305.604 231.287C303.676 237.182 300.655 242.029 296.564 245.831C292.472 249.632 287.224 252.43 280.819 254.266C274.413 256.082 266.744 257 257.79 257H175.273V141.356H257.79V141.292ZM200.615 233.957H257.126C261.989 233.957 266.08 233.53 269.401 232.633C272.721 231.757 275.399 230.326 277.434 228.34C279.469 226.354 280.947 223.706 281.825 220.417C282.704 217.107 283.154 213.049 283.154 208.201V190.027C283.154 185.179 282.704 181.1 281.825 177.811C280.947 174.501 279.469 171.874 277.434 169.888C275.399 167.902 272.721 166.471 269.401 165.596C266.08 164.72 261.989 164.272 257.126 164.272H200.615V233.978V233.957Z"/>
<path d="M653.644 141.292C656.3 141.292 658.507 141.399 660.263 141.634C662.02 141.848 663.584 142.317 664.912 143.044C666.24 143.77 667.504 144.752 668.725 146.012C669.946 147.272 671.317 148.959 672.859 151.052L734.49 231.672C734.918 232.44 735.647 232.825 736.653 232.825H738.153C739.031 232.825 739.481 232.27 739.481 231.18V141.314H764.181V256.957H735.004C732.455 256.957 730.334 256.851 728.62 256.637C726.907 256.423 725.386 255.975 724.057 255.313C722.729 254.651 721.422 253.69 720.159 252.43C718.895 251.17 717.417 249.44 715.767 247.219L653.965 166.599C653.301 165.831 652.573 165.446 651.802 165.446H650.302C649.424 165.446 648.974 166.001 648.974 167.091V256.957H624.125V141.314H653.622L653.644 141.292Z"/>
<path d="M919.446 164.741C919.446 164.741 919.36 164.912 919.274 164.912H863.599V256.915H838.257V164.891H782.582C782.582 164.891 782.41 164.827 782.41 164.72V141.271H919.446V164.741Z"/>
<path d="M1099.3 176.487C1100.01 173.647 1101.25 171.34 1102.86 169.653C1104.53 167.923 1106.8 166.685 1109.59 165.98C1112.43 165.275 1115.99 164.955 1120.32 164.955H1206.95V141.292H1119.29C1110.89 141.292 1103.78 142.125 1097.89 143.684C1092.06 145.286 1087.29 147.806 1083.6 151.287C1079.92 154.768 1077.2 159.274 1075.46 164.763C1073.79 170.315 1072.87 177 1072.87 184.944V213.369C1072.87 221.293 1073.77 227.998 1075.46 233.615C1077.2 239.168 1079.92 243.674 1083.6 247.155C1087.29 250.636 1092.06 253.156 1097.89 254.629C1103.78 256.167 1110.89 256.957 1119.29 256.957H1186.25C1192.85 256.957 1197.95 255.078 1201.51 251.277C1205 247.475 1206.8 240.962 1206.8 231.693V188.255H1129.04V208.223H1183.28V223.748C1183.28 227.486 1182.57 230.134 1181.26 231.608C1179.91 233.081 1177.84 233.807 1174.92 233.807H1120.3C1115.97 233.807 1112.41 233.487 1109.56 232.782C1106.78 232.077 1104.53 230.839 1102.84 229.109C1101.23 227.443 1099.99 225.115 1099.28 222.211C1098.57 219.306 1098.25 215.633 1098.25 211.191V187.4C1098.25 183.022 1098.57 179.413 1099.28 176.509L1099.3 176.487Z"/>
<path d="M1359 141.485V164.357H1283.06C1278.78 164.357 1275.22 164.72 1272.41 165.425C1269.61 166.13 1267.36 167.347 1265.64 169.055C1263.93 170.764 1262.75 173.07 1262.09 175.975C1261.42 178.879 1261.1 182.467 1261.1 186.76V188.404H1358.01V208.65H1261.1V211.447C1261.1 215.719 1261.42 219.328 1262.09 222.232C1262.75 225.137 1263.93 227.443 1265.64 229.152C1267.36 230.86 1269.61 232.056 1272.41 232.782C1275.22 233.508 1278.78 233.85 1283.06 233.85H1359V256.722H1282.55C1274.17 256.722 1267.08 255.954 1261.25 254.416C1255.43 252.878 1250.65 250.38 1246.96 246.92C1243.28 243.46 1240.58 238.954 1238.87 233.423C1237.15 227.892 1236.32 221.164 1236.32 213.263V184.944C1236.32 177.043 1237.17 170.358 1238.87 164.87C1240.58 159.381 1243.26 154.918 1246.96 151.458C1250.65 147.998 1255.4 145.478 1261.25 143.898C1267.08 142.296 1274.19 141.506 1282.55 141.506H1359V141.485Z"/>
</mask>
<path d="M73.2198 93.2837C68.9568 93.2837 65.4008 92.9634 62.5517 92.2586C59.7669 91.5539 57.5176 90.3152 55.8253 88.5853C54.2186 86.9196 52.9762 84.5917 52.2692 81.6873C51.5623 78.7188 51.1767 75.1096 51.1767 70.6675V1.13188H25.8347V73.1876C25.8347 81.1107 26.7344 87.8165 28.4268 93.4332C30.1619 98.9858 32.8182 103.492 36.567 106.973C40.2516 110.454 45.0287 112.974 50.8554 114.448C56.7464 115.985 63.8584 116.775 72.2558 116.775H144.019V93.3264H73.2412L73.2198 93.2837Z" stroke="url(#paint0_linear_752_6865)" stroke-width="2" mask="url(#path-1-inside-1_752_6865)"/>
<path d="M337.951 36.3055C338.657 33.4651 339.9 31.1586 341.507 29.4715C343.178 27.7416 345.448 26.503 348.233 25.7982C351.082 25.0935 354.638 24.7731 358.965 24.7731H445.595V1.13188H357.937C349.54 1.13188 342.428 1.96477 336.537 3.52377C330.71 5.12548 325.933 7.6455 322.248 11.1266C318.564 14.6076 315.843 19.1138 314.108 24.6023C312.437 30.1549 311.516 36.8394 311.516 44.7839V73.2089C311.516 81.132 312.416 87.8379 314.108 93.4545C315.843 99.0071 318.564 103.513 322.248 106.994C325.933 110.475 330.71 112.995 336.537 114.469C342.428 116.007 349.54 116.797 357.937 116.797H424.902C431.5 116.797 436.598 114.917 440.154 111.116C443.646 107.315 445.445 100.801 445.445 91.5325V48.0941H367.684V68.0621H421.924V83.588C421.924 87.3253 421.217 89.9735 419.91 91.4471C418.561 92.9206 416.483 93.6468 413.57 93.6468H358.944C354.617 93.6468 351.061 93.3264 348.212 92.6217C345.427 91.9169 343.178 90.6783 341.485 88.9484C339.879 87.2826 338.636 84.9548 337.929 82.0504C337.222 79.1459 336.901 75.4727 336.901 71.0306V47.2398C336.901 42.8618 337.222 39.2526 337.929 36.3482L337.951 36.3055Z" stroke="url(#paint1_linear_752_6865)" stroke-width="2" mask="url(#path-1-inside-1_752_6865)"/>
<path d="M616.563 116.754L553.218 1.13188H519.565L456.242 116.754H484.669L536.402 22.2958L588.136 116.754H616.563Z" stroke="url(#paint2_linear_752_6865)" stroke-width="2" mask="url(#path-1-inside-1_752_6865)"/>
<path d="M649.574 1.13188V70.6889C649.574 75.0882 649.938 78.7615 650.645 81.666C651.373 84.5917 652.551 86.8982 654.201 88.6067C655.85 90.3152 658.1 91.5325 660.906 92.2372C663.734 92.9634 667.29 93.3051 671.595 93.3051H742.352V116.754H670.61C662.213 116.754 655.079 115.985 649.231 114.448C643.383 112.91 638.606 110.411 634.9 106.93C631.194 103.471 628.495 98.9431 626.781 93.3905C625.067 87.8379 624.21 81.0893 624.21 73.1448V1.13188H649.574Z" stroke="url(#paint3_linear_752_6865)" stroke-width="2" mask="url(#path-1-inside-1_752_6865)"/>
<path d="M284.824 0V22.8724H208.884C204.6 22.8724 201.044 23.2355 198.237 23.9403C195.431 24.645 193.182 25.8623 191.468 27.5708C189.754 29.2793 188.576 31.5858 187.912 34.4902C187.248 37.3946 186.927 40.9825 186.927 45.2751V46.9195H283.839V67.1651H186.927V69.9628C186.927 74.234 187.248 77.8432 187.912 80.7476C188.576 83.6521 189.754 85.9585 191.468 87.667C193.182 89.3755 195.431 90.5715 198.237 91.2976C201.044 92.0237 204.6 92.3654 208.884 92.3654H284.824V115.238H208.37C199.994 115.238 192.903 114.469 187.077 112.931C181.25 111.394 176.473 108.895 172.788 105.435C169.104 101.976 166.405 97.4695 164.691 91.9383C162.977 86.407 162.142 79.6798 162.142 71.778V43.4598C162.142 35.558 162.999 28.8735 164.691 23.385C166.405 17.8965 169.082 13.433 172.788 9.97333C176.473 6.51363 181.229 3.9936 187.077 2.41325C192.903 0.811534 200.015 0.0213562 208.37 0.0213562H284.824V0Z" stroke="url(#paint4_linear_752_6865)" stroke-width="2" mask="url(#path-1-inside-1_752_6865)"/>
<path d="M160.299 256.915L96.9766 141.292H63.3229L0 256.915H28.4268L80.1604 162.456L131.894 256.915H160.321H160.299Z" stroke="url(#paint5_linear_752_6865)" stroke-width="2" mask="url(#path-1-inside-1_752_6865)"/>
<path d="M609.194 256.915L545.871 141.292H512.217L448.894 256.915H477.321L529.055 162.456L580.788 256.915H609.215H609.194Z" stroke="url(#paint6_linear_752_6865)" stroke-width="2" mask="url(#path-1-inside-1_752_6865)"/>
<path d="M1065.86 256.915L1002.54 141.292H968.887L905.565 256.915H933.991L985.725 162.456L1037.46 256.915H1065.89H1065.86Z" stroke="url(#paint7_linear_752_6865)" stroke-width="2" mask="url(#path-1-inside-1_752_6865)"/>
<path d="M315.501 141.292L378.823 256.915H412.477L475.8 141.292H447.373L395.64 235.751L343.906 141.292H315.479H315.501Z" stroke="url(#paint8_linear_752_6865)" stroke-width="2" mask="url(#path-1-inside-1_752_6865)"/>
<path d="M257.79 141.292C266.744 141.292 274.413 142.211 280.819 144.026C287.224 145.841 292.472 148.66 296.564 152.462C300.655 156.263 303.654 161.111 305.604 167.005C307.532 172.899 308.496 179.862 308.496 187.913V210.38C308.496 218.431 307.532 225.393 305.604 231.287C303.676 237.182 300.655 242.029 296.564 245.831C292.472 249.632 287.224 252.43 280.819 254.266C274.413 256.082 266.744 257 257.79 257H175.273V141.356H257.79V141.292ZM200.615 233.957H257.126C261.989 233.957 266.08 233.53 269.401 232.633C272.721 231.757 275.399 230.326 277.434 228.34C279.469 226.354 280.947 223.706 281.825 220.417C282.704 217.107 283.154 213.049 283.154 208.201V190.027C283.154 185.179 282.704 181.1 281.825 177.811C280.947 174.501 279.469 171.874 277.434 169.888C275.399 167.902 272.721 166.471 269.401 165.596C266.08 164.72 261.989 164.272 257.126 164.272H200.615V233.978V233.957Z" stroke="url(#paint9_linear_752_6865)" stroke-width="2" mask="url(#path-1-inside-1_752_6865)"/>
<path d="M653.644 141.292C656.3 141.292 658.507 141.399 660.263 141.634C662.02 141.848 663.584 142.317 664.912 143.044C666.24 143.77 667.504 144.752 668.725 146.012C669.946 147.272 671.317 148.959 672.859 151.052L734.49 231.672C734.918 232.44 735.647 232.825 736.653 232.825H738.153C739.031 232.825 739.481 232.27 739.481 231.18V141.314H764.181V256.957H735.004C732.455 256.957 730.334 256.851 728.62 256.637C726.907 256.423 725.386 255.975 724.057 255.313C722.729 254.651 721.422 253.69 720.159 252.43C718.895 251.17 717.417 249.44 715.767 247.219L653.965 166.599C653.301 165.831 652.573 165.446 651.802 165.446H650.302C649.424 165.446 648.974 166.001 648.974 167.091V256.957H624.125V141.314H653.622L653.644 141.292Z" stroke="url(#paint10_linear_752_6865)" stroke-width="2" mask="url(#path-1-inside-1_752_6865)"/>
<path d="M919.446 164.741C919.446 164.741 919.36 164.912 919.274 164.912H863.599V256.915H838.257V164.891H782.582C782.582 164.891 782.41 164.827 782.41 164.72V141.271H919.446V164.741Z" stroke="url(#paint11_linear_752_6865)" stroke-width="2" mask="url(#path-1-inside-1_752_6865)"/>
<path d="M1099.3 176.487C1100.01 173.647 1101.25 171.34 1102.86 169.653C1104.53 167.923 1106.8 166.685 1109.59 165.98C1112.43 165.275 1115.99 164.955 1120.32 164.955H1206.95V141.292H1119.29C1110.89 141.292 1103.78 142.125 1097.89 143.684C1092.06 145.286 1087.29 147.806 1083.6 151.287C1079.92 154.768 1077.2 159.274 1075.46 164.763C1073.79 170.315 1072.87 177 1072.87 184.944V213.369C1072.87 221.293 1073.77 227.998 1075.46 233.615C1077.2 239.168 1079.92 243.674 1083.6 247.155C1087.29 250.636 1092.06 253.156 1097.89 254.629C1103.78 256.167 1110.89 256.957 1119.29 256.957H1186.25C1192.85 256.957 1197.95 255.078 1201.51 251.277C1205 247.475 1206.8 240.962 1206.8 231.693V188.255H1129.04V208.223H1183.28V223.748C1183.28 227.486 1182.57 230.134 1181.26 231.608C1179.91 233.081 1177.84 233.807 1174.92 233.807H1120.3C1115.97 233.807 1112.41 233.487 1109.56 232.782C1106.78 232.077 1104.53 230.839 1102.84 229.109C1101.23 227.443 1099.99 225.115 1099.28 222.211C1098.57 219.306 1098.25 215.633 1098.25 211.191V187.4C1098.25 183.022 1098.57 179.413 1099.28 176.509L1099.3 176.487Z" stroke="url(#paint12_linear_752_6865)" stroke-width="2" mask="url(#path-1-inside-1_752_6865)"/>
<path d="M1359 141.485V164.357H1283.06C1278.78 164.357 1275.22 164.72 1272.41 165.425C1269.61 166.13 1267.36 167.347 1265.64 169.055C1263.93 170.764 1262.75 173.07 1262.09 175.975C1261.42 178.879 1261.1 182.467 1261.1 186.76V188.404H1358.01V208.65H1261.1V211.447C1261.1 215.719 1261.42 219.328 1262.09 222.232C1262.75 225.137 1263.93 227.443 1265.64 229.152C1267.36 230.86 1269.61 232.056 1272.41 232.782C1275.22 233.508 1278.78 233.85 1283.06 233.85H1359V256.722H1282.55C1274.17 256.722 1267.08 255.954 1261.25 254.416C1255.43 252.878 1250.65 250.38 1246.96 246.92C1243.28 243.46 1240.58 238.954 1238.87 233.423C1237.15 227.892 1236.32 221.164 1236.32 213.263V184.944C1236.32 177.043 1237.17 170.358 1238.87 164.87C1240.58 159.381 1243.26 154.918 1246.96 151.458C1250.65 147.998 1255.4 145.478 1261.25 143.898C1267.08 142.296 1274.19 141.506 1282.55 141.506H1359V141.485Z" stroke="url(#paint13_linear_752_6865)" stroke-width="2" mask="url(#path-1-inside-1_752_6865)"/>
<defs>
<linearGradient id="paint0_linear_752_6865" x1="106" y1="-42" x2="582.383" y2="526.033" gradientUnits="userSpaceOnUse">
<stop stop-color="#F3F3F3"/>
<stop offset="0.829628" stop-color="#323232"/>
</linearGradient>
<linearGradient id="paint1_linear_752_6865" x1="106" y1="-42" x2="582.383" y2="526.033" gradientUnits="userSpaceOnUse">
<stop stop-color="#F3F3F3"/>
<stop offset="0.829628" stop-color="#323232"/>
</linearGradient>
<linearGradient id="paint2_linear_752_6865" x1="106" y1="-42" x2="582.383" y2="526.033" gradientUnits="userSpaceOnUse">
<stop stop-color="#F3F3F3"/>
<stop offset="0.829628" stop-color="#323232"/>
</linearGradient>
<linearGradient id="paint3_linear_752_6865" x1="106" y1="-42" x2="582.383" y2="526.033" gradientUnits="userSpaceOnUse">
<stop stop-color="#F3F3F3"/>
<stop offset="0.829628" stop-color="#323232"/>
</linearGradient>
<linearGradient id="paint4_linear_752_6865" x1="106" y1="-42" x2="582.383" y2="526.033" gradientUnits="userSpaceOnUse">
<stop stop-color="#F3F3F3"/>
<stop offset="0.829628" stop-color="#323232"/>
</linearGradient>
<linearGradient id="paint5_linear_752_6865" x1="106" y1="-42" x2="582.383" y2="526.033" gradientUnits="userSpaceOnUse">
<stop stop-color="#F3F3F3"/>
<stop offset="0.829628" stop-color="#323232"/>
</linearGradient>
<linearGradient id="paint6_linear_752_6865" x1="106" y1="-42" x2="582.383" y2="526.033" gradientUnits="userSpaceOnUse">
<stop stop-color="#F3F3F3"/>
<stop offset="0.829628" stop-color="#323232"/>
</linearGradient>
<linearGradient id="paint7_linear_752_6865" x1="106" y1="-42" x2="582.383" y2="526.033" gradientUnits="userSpaceOnUse">
<stop stop-color="#F3F3F3"/>
<stop offset="0.829628" stop-color="#323232"/>
</linearGradient>
<linearGradient id="paint8_linear_752_6865" x1="106" y1="-42" x2="582.383" y2="526.033" gradientUnits="userSpaceOnUse">
<stop stop-color="#F3F3F3"/>
<stop offset="0.829628" stop-color="#323232"/>
</linearGradient>
<linearGradient id="paint9_linear_752_6865" x1="106" y1="-42" x2="582.383" y2="526.033" gradientUnits="userSpaceOnUse">
<stop stop-color="#F3F3F3"/>
<stop offset="0.829628" stop-color="#323232"/>
</linearGradient>
<linearGradient id="paint10_linear_752_6865" x1="106" y1="-42" x2="582.383" y2="526.033" gradientUnits="userSpaceOnUse">
<stop stop-color="#F3F3F3"/>
<stop offset="0.829628" stop-color="#323232"/>
</linearGradient>
<linearGradient id="paint11_linear_752_6865" x1="106" y1="-42" x2="582.383" y2="526.033" gradientUnits="userSpaceOnUse">
<stop stop-color="#F3F3F3"/>
<stop offset="0.829628" stop-color="#323232"/>
</linearGradient>
<linearGradient id="paint12_linear_752_6865" x1="106" y1="-42" x2="582.383" y2="526.033" gradientUnits="userSpaceOnUse">
<stop stop-color="#F3F3F3"/>
<stop offset="0.829628" stop-color="#323232"/>
</linearGradient>
<linearGradient id="paint13_linear_752_6865" x1="106" y1="-42" x2="582.383" y2="526.033" gradientUnits="userSpaceOnUse">
<stop stop-color="#F3F3F3"/>
<stop offset="0.829628" stop-color="#323232"/>
</linearGradient>
</defs>
</svg>
