<svg width="940" height="680" viewBox="0 0 940 680" fill="none" xmlns="http://www.w3.org/2000/svg">
<g clip-path="url(#clip0_735_6498)">
<g filter="url(#filter0_f_735_6498)">
<ellipse cx="470" cy="340" rx="255" ry="370" transform="rotate(90 470 340)" fill="url(#paint0_radial_735_6498)"/>
</g>
<g clip-path="url(#clip1_735_6498)">
<path d="M466.114 404.413L436.556 407.982L433.535 446.522L378.965 453.107L381.985 414.567L276.833 427.252L279.463 390.186L376.284 254.022L436.827 246.732L348.422 373.899L387.924 369.14L390.622 334.923L442.63 328.656L439.932 362.873L469.78 359.27L466.131 404.429L466.114 404.413Z" fill="url(#paint1_linear_735_6498)" stroke="#F1F1F1" stroke-width="3.44727" stroke-miterlimit="10"/>
<path d="M428.081 222.425C425.971 222.63 424.082 222.431 422.414 221.83C420.745 221.208 419.412 220.242 418.418 218.932C417.423 217.622 416.836 216.061 416.656 214.25C416.418 211.862 416.752 209.659 417.657 207.643C418.582 205.624 419.986 203.981 421.87 202.713C423.753 201.445 425.969 200.688 428.517 200.44C430.448 200.253 432.195 200.435 433.757 200.987C435.317 201.519 436.528 202.376 437.389 203.558L433.458 207.376C432.28 205.842 430.666 205.175 428.616 205.374C427.282 205.503 426.139 205.936 425.188 206.671C424.234 207.386 423.524 208.329 423.057 209.5C422.609 210.649 422.453 211.91 422.589 213.283C422.73 214.696 423.3 215.786 424.301 216.553C425.302 217.32 426.589 217.627 428.161 217.474C430.152 217.281 431.774 216.31 433.027 214.561L436.862 217.655C435.864 219.138 434.639 220.262 433.188 221.026C431.734 221.769 430.032 222.236 428.081 222.425ZM453.471 208.81L458.977 219.006L452.707 219.615L448.775 211.918L445.79 212.208L444.973 220.365L439.061 220.938L441.162 199.636L447.075 199.062L446.27 207.339L448.778 207.095L454.57 198.335L461.139 197.698L453.471 208.81ZM463.091 197.509L468.913 196.944L467.596 209.46L477.453 196.116L483.097 195.568L480.995 216.871L475.172 217.435L476.493 204.95L466.632 218.264L460.989 218.811L463.091 197.509ZM505.473 209.764L508.339 209.486L507.432 218.556L502.028 219.08L502.445 214.79L489.068 216.087L488.651 220.378L483.216 220.905L484.123 211.835L484.66 211.783C485.912 211.641 486.908 210.641 487.648 208.78C488.387 206.92 488.972 204.412 489.402 201.256L490.274 194.872L507.115 193.238L505.473 209.764ZM494.483 201.728C494.153 204.07 493.802 205.993 493.429 207.496C493.076 208.997 492.591 210.19 491.976 211.073L499.65 210.329L500.833 198.58L494.831 199.162L494.483 201.728ZM525.088 201.863L530.594 212.059L524.324 212.668L520.392 204.971L517.406 205.261L516.59 213.418L510.678 213.991L512.779 192.689L518.692 192.115L517.887 200.392L520.395 200.148L526.186 191.388L532.756 190.751L525.088 201.863ZM547.174 206.352L538.276 207.215L536.261 211.51L530.02 212.115L541.349 189.918L547.171 189.353L554.296 209.76L548.414 210.331L547.174 206.352ZM545.844 202.08L543.767 195.44L540.44 202.605L545.844 202.08Z" fill="#F1F1F1"/>
<path d="M578.851 329.112C577.434 329.364 576.214 329.145 575.193 328.453C574.192 327.758 573.557 326.673 573.287 325.197C573.057 323.938 573.095 322.753 573.4 321.642C573.705 320.531 574.258 319.61 575.06 318.878C575.877 318.123 576.897 317.637 578.117 317.419C579.535 317.166 580.745 317.388 581.746 318.083C582.767 318.774 583.412 319.858 583.682 321.333C583.912 322.593 583.874 323.778 583.569 324.888C583.283 325.996 582.732 326.927 581.914 327.682C581.113 328.414 580.092 328.89 578.851 329.112ZM590.57 315.474L595.03 314.679L580.819 338.543L576.33 339.343L590.57 315.474ZM578.664 326.25C579.392 326.12 579.866 325.65 580.083 324.839C580.298 324.009 580.317 323.111 580.14 322.147C580.007 321.419 579.772 320.913 579.436 320.628C579.115 320.319 578.738 320.203 578.305 320.281C577.576 320.41 577.105 320.891 576.891 321.721C576.673 322.532 576.652 323.419 576.828 324.383C576.961 325.111 577.188 325.629 577.509 325.938C577.846 326.223 578.231 326.327 578.664 326.25ZM593.272 336.597C591.854 336.85 590.637 336.64 589.619 335.969C588.618 335.273 587.981 334.178 587.708 332.683C587.477 331.424 587.507 330.251 587.796 329.163C588.101 328.052 588.655 327.131 589.456 326.399C590.274 325.644 591.303 325.156 592.543 324.934C593.961 324.682 595.17 324.903 596.172 325.598C597.189 326.27 597.833 327.344 598.102 328.819C598.332 330.078 598.295 331.263 597.989 332.374C597.704 333.482 597.152 334.413 596.335 335.168C595.533 335.9 594.512 336.376 593.272 336.597ZM593.09 333.765C593.818 333.636 594.28 333.157 594.474 332.33C594.689 331.5 594.708 330.603 594.531 329.639C594.398 328.911 594.173 328.402 593.856 328.113C593.536 327.805 593.159 327.689 592.725 327.766C591.997 327.896 591.526 328.376 591.311 329.207C591.097 330.037 591.076 330.925 591.249 331.869C591.382 332.597 591.609 333.115 591.929 333.424C592.27 333.729 592.657 333.843 593.09 333.765ZM612.096 333.395C610.009 333.767 608.118 333.708 606.422 333.218C604.746 332.724 603.359 331.864 602.261 330.638C601.182 329.408 600.481 327.908 600.157 326.137C599.726 323.776 599.879 321.555 600.617 319.473C601.374 317.388 602.631 315.641 604.386 314.231C606.161 312.817 608.298 311.888 610.799 311.442C612.886 311.07 614.768 311.131 616.444 311.625C618.139 312.115 619.526 312.975 620.605 314.205C621.703 315.431 622.414 316.929 622.738 318.7C623.169 321.061 623.006 323.284 622.249 325.369C621.511 327.451 620.255 329.198 618.48 330.612C616.725 332.022 614.597 332.949 612.096 333.395ZM611.714 328.466C613.014 328.234 614.096 327.706 614.962 326.881C615.828 326.056 616.428 325.056 616.762 323.879C617.092 322.682 617.137 321.425 616.896 320.107C616.641 318.71 616.004 317.676 614.987 317.004C613.986 316.309 612.717 316.098 611.181 316.372C609.882 316.603 608.799 317.131 607.933 317.956C607.067 318.781 606.469 319.791 606.139 320.988C605.805 322.165 605.759 323.412 606 324.73C606.255 326.127 606.883 327.173 607.884 327.868C608.902 328.54 610.178 328.739 611.714 328.466ZM631.952 312.761L631.866 317.469L640.993 315.843L640.902 320.521L631.806 322.142L631.682 329.478L625.834 330.52L626.194 309.125L642.379 306.241L642.289 310.919L631.952 312.761ZM650.901 309.384L650.816 314.092L659.942 312.466L659.852 317.144L650.755 318.765L650.632 326.101L644.784 327.143L645.144 305.748L661.329 302.864L661.238 307.542L650.901 309.384Z" fill="#F1F1F1"/>
<path d="M558.286 389.314C544.084 391.023 533.869 383.147 531.069 360.409C527.183 328.973 535.464 276.994 564.734 273.458C577.325 271.933 587.082 278.251 590.916 296.264L647.116 286.512C638.784 243.598 607.223 222.2 564.514 227.344C502.562 234.817 465.724 296.214 474.683 368.636C480.622 416.627 513.032 440.924 558.507 435.445C604.237 429.932 636.256 395.011 646.301 347.975L586.929 358.28C581.584 374.719 572.37 387.621 558.286 389.314Z" fill="url(#paint2_linear_735_6498)" stroke="#F1F1F1" stroke-width="3.44727" stroke-miterlimit="10"/>
</g>
</g>
<defs>
<filter id="filter0_f_735_6498" x="0" y="-15" width="940" height="710" filterUnits="userSpaceOnUse" color-interpolation-filters="sRGB">
<feFlood flood-opacity="0" result="BackgroundImageFix"/>
<feBlend mode="normal" in="SourceGraphic" in2="BackgroundImageFix" result="shape"/>
<feGaussianBlur stdDeviation="50" result="effect1_foregroundBlur_735_6498"/>
</filter>
<radialGradient id="paint0_radial_735_6498" cx="0" cy="0" r="1" gradientUnits="userSpaceOnUse" gradientTransform="translate(470 340) rotate(90) scale(370 255)">
<stop stop-color="#F1F1F1" stop-opacity="0.49"/>
<stop offset="1" stop-color="#F1F1F1" stop-opacity="0"/>
</radialGradient>
<linearGradient id="paint1_linear_735_6498" x1="297.5" y1="280" x2="430.134" y2="295.067" gradientUnits="userSpaceOnUse">
<stop stop-color="#323232"/>
<stop offset="1" stop-color="#F3F3F3"/>
</linearGradient>
<linearGradient id="paint2_linear_735_6498" x1="454" y1="227" x2="620.716" y2="229.495" gradientUnits="userSpaceOnUse">
<stop stop-color="#323232"/>
<stop offset="1" stop-color="#F3F3F3"/>
</linearGradient>
<clipPath id="clip0_735_6498">
<rect width="940" height="680" fill="white"/>
</clipPath>
<clipPath id="clip1_735_6498">
<rect width="390" height="344" fill="white" transform="translate(275 185)"/>
</clipPath>
</defs>
</svg>
