<svg width="97" height="31" viewBox="0 0 97 31" fill="none" xmlns="http://www.w3.org/2000/svg">
<path d="M35.2806 0.189331L18.0576 7.70708L22.6416 9.65091L21.0766 24.8603L35.2806 0.189331Z" fill="white"/>
<path d="M14.4474 6.31579L28.1971 0L0 0.050632L15.106 11.3063L14.4474 6.31579Z" fill="white"/>
<path d="M3.58838 6.32019L17.7771 31L19.8116 12.1165L15.8818 15.1984L3.58838 6.32019Z" fill="white"/>
<path d="M57.3766 16.8451C56.1094 15.6651 54.0141 15.9183 52.2318 16.1274C51.6928 16.1868 51.1559 16.2463 50.6321 16.2617C49.6149 16.3365 48.8846 15.6651 49.4888 14.7692C49.8649 14.2848 50.4474 14.1131 51.119 13.9634C53.0056 13.6508 56.2789 13.8732 58.1003 15.4274L58.3873 12.658C56.6984 11.8589 54.6357 11.5595 53.036 11.5529C51.2972 11.5595 49.6453 11.8369 48.2456 12.7241C47.6479 13.0741 47.1697 13.598 46.8371 14.1946C46.322 15.106 46.1742 16.1957 46.5415 17.0696C46.6589 17.369 46.8437 17.6442 47.0871 17.8841C48.3543 19.0641 50.4495 18.8109 52.2318 18.6018C52.7709 18.5423 53.3077 18.4829 53.8315 18.4675C54.8488 18.3926 55.5791 19.0641 54.9748 19.96C54.5988 20.4443 54.0163 20.616 53.3447 20.7657C51.4581 21.0783 48.1847 20.856 46.3633 19.3018L46.0764 22.0712C47.7652 22.8703 49.8279 23.1697 51.4276 23.1763C53.1664 23.1697 54.8183 22.8923 56.2181 22.0051C56.8158 21.6551 57.294 21.1312 57.6265 20.5346C58.1416 19.6232 58.2894 18.5335 57.9221 17.6596C57.8047 17.3602 57.62 17.085 57.3766 16.8451Z" fill="white"/>
<path d="M70.4461 16.8451C69.179 15.6651 67.0837 15.9183 65.3014 16.1274C64.7624 16.1868 64.2255 16.2463 63.7017 16.2617C62.6845 16.3365 61.9542 15.6651 62.5584 14.7692C62.9345 14.2848 63.517 14.1131 64.1886 13.9634C66.0752 13.6508 69.3485 13.8732 71.1699 15.4274L71.4568 12.658C69.768 11.8589 67.7053 11.5595 66.1056 11.5529C64.3668 11.5595 62.7149 11.8369 61.3152 12.7241C60.7175 13.0741 60.2393 13.598 59.9067 14.1946C59.3916 15.106 59.2438 16.1957 59.6111 17.0696C59.7285 17.369 59.9132 17.6442 60.1567 17.8841C61.4238 19.0641 63.5191 18.8109 65.3014 18.6018C65.8404 18.5423 66.3773 18.4829 66.9011 18.4675C67.9183 18.3926 68.6486 19.0641 68.0444 19.96C67.6684 20.4443 67.0859 20.616 66.4143 20.7657C64.5276 21.0783 61.2543 20.856 59.4329 19.3018L59.146 22.0712C60.8348 22.8703 62.8975 23.1697 64.4972 23.1763C66.236 23.1697 67.8879 22.8923 69.2877 22.0051C69.8854 21.6551 70.3636 21.1312 70.6961 20.5346C71.2112 19.6232 71.359 18.5335 70.9917 17.6596C70.8743 17.3602 70.6896 17.085 70.4461 16.8451Z" fill="white"/>
<path d="M44.6985 15.3657C42.9662 9.81824 32.4768 10.4082 31.5182 17.336C30.9792 23.0112 37.6954 24.4531 44.0877 22.0712L44.4007 19.3018C39.845 21.7168 35.3523 21.1818 34.4677 18.4257H44.8028C45.031 17.2545 44.9723 16.2309 44.7007 15.3635L44.6985 15.3657ZM34.6872 16.2551C36.037 13.3647 41.4534 13.2678 42.1468 16.2551H34.6872Z" fill="white"/>
<path d="M83.3742 17.3734C83.898 12.4885 89.7318 10.6812 93.5441 12.0901C98.6563 13.8842 97.9346 20.8626 92.4508 22.6568C88.3472 24.0657 82.8873 22.2561 83.3764 17.3734H83.3742ZM86.2563 17.3734C85.952 20.1758 89.171 21.2479 91.5162 20.4091C94.6309 19.3943 95.046 15.3437 92.1466 14.3289C89.9687 13.488 86.5323 14.5666 86.2585 17.3734H86.2563Z" fill="white"/>
<path d="M85.1173 11.8435H81.5354L75.5495 17.1621L76.1015 11.8435H73.3586L72.2109 22.8857H74.9583L75.506 17.5847L80.3747 22.8857H83.9545L78.8923 17.3734L85.1173 11.8435Z" fill="white"/>
</svg>
