<svg width="89" height="110" viewBox="0 0 89 110" fill="none" xmlns="http://www.w3.org/2000/svg">
<path d="M45.914 66.5671L46.269 66.922L64.146 84.7942L64.1532 84.8014L64.1601 84.8088C65.8004 86.5874 71.132 90.9944 76.0991 94.9895C78.5731 96.9793 80.9429 98.8561 82.6943 100.236C83.5147 100.882 84.1993 101.419 84.6953 101.807L84.5151 99.1695L84.4859 98.7425L84.9033 98.6478L87.862 97.9763C87.0216 97.275 85.8392 96.2022 84.4906 94.9422C82.5699 93.1478 80.2765 90.9395 78.0735 88.7939C75.8701 86.6479 73.7555 84.563 72.1918 83.0147C71.4099 82.2405 70.7657 81.6004 70.3169 81.1538C70.0925 80.9305 69.917 80.7555 69.7975 80.6364L69.6613 80.5005L69.6264 80.4657L69.6176 80.4568L69.6153 80.4546L69.6148 80.454C69.6146 80.4539 69.6146 80.4538 69.9679 80.1001L69.6146 80.4538L69.5733 80.4127L69.5427 80.3631C69.1662 79.7543 68.914 78.7771 68.7333 77.7311C68.5488 76.6634 68.427 75.4468 68.3462 74.3057C68.2653 73.1628 68.2249 72.0866 68.2048 71.2966C68.1956 70.9401 68.1906 70.6415 68.1879 70.4208L67.8317 70.361L67.4457 70.2962L67.4159 69.9059L67.0309 64.8582L67.0301 64.8475L67.0298 64.8368C66.9848 63.4886 66.3577 61.9553 65.549 60.5327C64.7471 59.1219 63.7997 57.8764 63.1788 57.1165L63.2823 57.0267C63.2241 56.9232 63.1297 56.7679 62.987 56.546L62.9861 56.5446C62.6359 55.9961 62.4246 55.1341 62.2857 54.2319C62.1433 53.3073 62.0661 52.258 62.0256 51.277C61.985 50.2941 61.981 49.3697 61.9871 48.6917C61.9901 48.3524 61.9957 48.0743 62.0005 47.8805C62.0029 47.7836 62.0051 47.7078 62.0068 47.656L62.0087 47.5967L62.0093 47.5812L62.0094 47.5771L62.0095 47.576L62.0095 47.5756C62.0095 47.5755 62.0095 47.5755 62.5091 47.5941L62.0095 47.5755L62.0242 47.1817L62.4104 47.104L63.0521 46.9747L63.4619 46.8922L63.6158 47.2809L64.3858 49.227L64.3981 49.2581L64.4061 49.2905C64.4164 49.3319 64.4262 49.3566 64.4334 49.3705C64.4588 49.3706 64.5165 49.3654 64.6152 49.3292C64.7423 49.2827 64.8753 49.2077 64.984 49.1371C65.0365 49.103 65.0794 49.0725 65.1085 49.051C65.1129 49.0478 65.1169 49.0448 65.1206 49.0421C65.1291 49.0356 65.1359 49.0305 65.1405 49.0269L65.1473 49.0216L65.1475 49.0215L65.1477 49.0213L65.1479 49.0211L65.1482 49.0209L65.451 48.7769L65.6624 48.9366C65.6885 48.9085 65.7206 48.8696 65.7574 48.8171C65.8329 48.7094 65.9001 48.5854 65.95 48.483C65.9744 48.433 65.9934 48.3908 66.0061 48.3617C66.0119 48.3483 66.0163 48.3378 66.0192 48.3308C66.5511 46.7708 66.3279 45.7491 66.0237 45.1356C65.8675 44.8207 65.682 44.5974 65.5392 44.4552C65.4679 44.3841 65.4078 44.3339 65.3683 44.3032C65.3486 44.2878 65.3341 44.2774 65.3261 44.2719L65.3219 44.2688L65.321 44.2683L65.3198 44.2675L65.3197 44.2674L65.3192 44.2671L65.1663 44.1709L65.1116 43.9941L64.5577 42.2025L64.2072 42.132L63.9723 42.0847L63.862 41.872L62.4503 39.1505L62.4169 39.0861L62.4031 39.0148C61.5735 34.7015 60.718 32.4952 60.0956 31.3806C59.7856 30.8255 59.541 30.5552 59.399 30.4302C59.3379 30.3764 59.2965 30.3501 59.2774 30.3392L59.2167 30.3262L59.1334 30.2674C58.3884 29.7423 57.9229 28.9712 57.6472 28.3662C57.5072 28.059 57.4108 27.7829 57.349 27.5826C57.3181 27.4821 57.2956 27.4 57.2806 27.3417C57.2731 27.3126 57.2674 27.2893 57.2635 27.2726L57.259 27.2529L57.2589 27.2526L57.2582 27.2494C56.8793 25.6568 56.5034 24.6183 56.2282 23.9863C56.0906 23.6701 55.9782 23.4559 55.9035 23.325C55.8914 23.3038 55.8803 23.2848 55.8702 23.2679C55.0083 22.8959 54.3531 22.2898 53.9145 21.7829C53.6801 21.5122 53.5018 21.263 53.3812 21.0802C53.3208 20.9887 53.2746 20.9132 53.2428 20.8594C53.2269 20.8325 53.2146 20.8109 53.2058 20.7954L53.1954 20.7768L53.1923 20.771L53.1912 20.769L53.1908 20.7683L53.1906 20.7679C53.1906 20.7678 53.1905 20.7677 53.631 20.5312L53.1905 20.7677L53.1806 20.7493L53.1723 20.7301C52.1219 18.3083 50.5843 16.8565 49.3162 16.0095C48.681 15.5851 48.1128 15.3123 47.7069 15.1464C47.5041 15.0636 47.3424 15.0076 47.2337 14.973C47.1793 14.9557 47.1383 14.9437 47.1121 14.9364L47.0842 14.9288L47.08 14.9277L47.0793 14.9275L47.079 14.9274L47.0786 14.9273L42.7127 13.8947L42.2454 13.7842L42.337 13.3128C42.9622 10.0947 42.5129 8.1031 41.9559 6.93895C41.6761 6.35404 41.3637 5.96653 41.1301 5.72999C41.0131 5.61148 40.9154 5.5304 40.8508 5.48122C40.823 5.46004 40.8013 5.44479 40.7869 5.43503C38.8736 4.60156 37.3427 4.40159 36.1294 4.54046C34.9112 4.67988 33.9791 5.16458 33.2722 5.75028C32.561 6.33949 32.0744 7.03412 31.7649 7.58679C31.6107 7.86204 31.5023 8.09888 31.4331 8.26475C31.3986 8.34759 31.3739 8.41242 31.3584 8.45513C31.3506 8.47648 31.3451 8.49227 31.3418 8.50198L31.3385 8.51193L31.3384 8.51235L31.3382 8.51283L31.3381 8.51316L31.338 8.51335L31.3344 8.52474L31.3298 8.53691C30.8305 9.86031 30.7203 10.6732 30.7203 11.1294C30.7203 11.3563 30.7475 11.4927 30.7661 11.5595C30.7721 11.5811 30.7773 11.5957 30.7805 11.604L30.7829 11.6075L30.7968 11.6356L31.8235 13.7109L31.8851 13.8354L31.8737 13.9739C31.812 14.7188 31.8243 15.5367 31.8531 16.1755C31.8675 16.4933 31.8858 16.7635 31.9004 16.9538C31.9077 17.0489 31.9141 17.1239 31.9187 17.1748L31.924 17.2324L31.9253 17.2467L31.9257 17.25L31.9257 17.2507L31.9257 17.2507L45.914 66.5671ZM45.914 66.5671L45.5605 66.9236M45.914 66.5671L45.5605 66.9236M45.5605 66.9236L45.5529 66.9312L45.442 67.0431M45.5605 66.9236L45.442 67.0431M45.442 67.0431L45.4152 67.1983L45.442 67.0431ZM45.4152 67.1983L45.4152 67.1984L45.415 67.1996L45.414 67.2051L45.4099 67.2284C45.4081 67.2384 45.4058 67.2509 45.4031 67.2656C45.4002 67.2814 45.3968 67.2999 45.3928 67.3209C45.3776 67.4018 45.3546 67.5195 45.3243 67.6648C45.2635 67.9556 45.1735 68.3547 45.0563 68.7881C44.8144 69.6831 44.4816 70.6273 44.1005 71.1206L44.0091 71.239L43.9977 71.3882L43.8693 73.0682L43.845 73.3867L44.1158 73.5381C44.116 73.5382 44.1166 73.5385 44.117 73.5388C44.1172 73.5389 44.1173 73.539 44.1175 73.5392C44.1196 73.5405 44.1232 73.5429 44.1283 73.5464C44.1424 73.5564 44.1664 73.5745 44.1953 73.6011C44.2536 73.6549 44.3263 73.7383 44.3813 73.8544C44.4786 74.0599 44.5716 74.4756 44.1832 75.2052L44.175 75.2206L44.1679 75.2366L44.6246 75.4401C44.1679 75.2366 44.1678 75.2367 44.1677 75.2369L44.1676 75.2372L44.1672 75.238L44.1662 75.2403L44.1629 75.2478L44.1517 75.274C44.1421 75.2963 44.1287 75.3284 44.1119 75.3698C44.0783 75.4525 44.0314 75.5724 43.9759 75.7256C43.8651 76.0318 43.7199 76.4721 43.5791 77.0157C43.298 78.1008 43.0316 79.6091 43.0982 81.2906L43.0983 81.2923L43.0983 81.2925L43.0984 81.2938L43.0986 81.2995L43.0995 81.323C43.1003 81.3439 43.1014 81.3751 43.1026 81.4153C43.105 81.4957 43.108 81.6118 43.1099 81.7535C43.1139 82.0373 43.1138 82.4207 43.0982 82.8222C43.0825 83.226 43.0515 83.6362 42.996 83.9776C42.9683 84.1483 42.936 84.2919 42.9003 84.404C42.8625 84.5228 42.8308 84.574 42.8213 84.5859L42.5274 84.9559L42.8802 85.2703L63.8167 103.922L63.7312 104.095L61.5768 104.208L61.2852 104.224L61.1554 104.485L60.7792 105.243C60.6703 105.162 60.5439 105.068 60.4014 104.962C59.853 104.555 59.0653 103.969 58.1084 103.254C56.1945 101.824 53.604 99.8787 50.8973 97.816C45.4659 93.6769 39.6188 89.1053 37.7848 87.2585L37.775 87.2487L37.7646 87.2394L37.43 87.6109C37.7646 87.2394 37.7646 87.2393 37.7644 87.2392L37.7637 87.2385L37.7607 87.2358L37.7488 87.2251L37.7017 87.1826L37.5176 87.0165C37.3562 86.8708 37.1191 86.6567 36.8167 86.383C36.2119 85.8358 35.3457 85.0506 34.3002 84.0991C32.209 82.1959 29.4009 79.6276 26.5328 76.9665C23.6641 74.3049 20.7375 71.5525 18.4085 69.2805C17.2437 68.1442 16.2312 67.1309 15.4511 66.3105C14.6599 65.4784 14.1377 64.8754 13.9254 64.5481L13.9105 64.5252L13.8932 64.504L13.5059 64.8202L13.8932 64.504L13.893 64.5037L13.8919 64.5023L13.8871 64.4964L13.8673 64.472C13.8497 64.4503 13.8233 64.4174 13.7885 64.3739C13.7188 64.2869 13.6157 64.1571 13.4828 63.9872C13.217 63.6475 12.8321 63.1477 12.3573 62.5095C11.4077 61.2329 10.0994 59.4038 8.6672 57.196C5.8326 52.8265 2.52648 46.9957 0.54434 41.0419L0.774773 40.6358L9.15283 42.0796C9.19613 42.1865 9.25228 42.3248 9.32019 42.4913C9.49502 42.9197 9.74781 43.5351 10.06 44.283C10.6842 45.7787 11.5463 47.8062 12.4975 49.9317C13.4481 52.0561 14.4899 54.2837 15.4734 56.1778C16.4417 58.0429 17.3797 59.6374 18.1351 60.4739L18.1492 60.4921L18.2262 60.5911C18.294 60.678 18.3942 60.806 18.5247 60.9712C18.7857 61.3014 19.1676 61.7803 19.6528 62.3762C20.6229 63.5679 22.0061 65.2281 23.6594 67.1036C26.9622 70.8502 31.3579 75.4732 35.6991 78.9327L35.8304 79.0374L35.9982 79.0416L36.0107 78.5417C35.9982 79.0416 35.9984 79.0416 35.9987 79.0416L35.9994 79.0416L36.001 79.0416L36.0058 79.0417L36.0209 79.0419C36.0334 79.042 36.0506 79.0421 36.0722 79.0419C36.1153 79.0415 36.1761 79.0402 36.2512 79.0366C36.401 79.0293 36.61 79.0126 36.8519 78.975C37.3282 78.9008 37.9676 78.7399 38.5321 78.3798C39.1104 78.0109 39.6135 77.4284 39.7619 76.5465C39.8946 75.758 39.7335 74.7897 39.1917 73.5979L39.7661 73.6622L39.7256 73.0649L39.7256 73.0647L39.7255 73.0636L39.7252 73.0589L39.7239 73.0393L39.7191 72.9608C39.715 72.8914 39.7091 72.7887 39.7025 72.6569C39.6892 72.3931 39.6725 72.0125 39.6593 71.5474C39.6329 70.6165 39.6203 69.3503 39.6754 68.0059C39.7305 66.6591 39.8531 65.2468 40.0933 64.0193C40.3374 62.7712 40.6887 61.7953 41.1488 61.2506L41.368 60.9911L41.2075 60.6918L33.3637 46.058L33.1205 45.6044L32.6741 45.8605L29.9715 47.4113L29.6233 47.6111L29.7429 47.9936L29.743 47.9938L29.743 47.9939L29.743 47.994L29.7431 47.9942L29.744 47.9971L29.7487 48.0131C29.7531 48.028 29.7596 48.0509 29.7677 48.0807C29.7838 48.1403 29.8056 48.2266 29.8274 48.3296C29.872 48.5398 29.9128 48.8015 29.9128 49.0442C29.9128 49.3045 29.8653 49.4535 29.8188 49.5162C29.8184 49.5167 29.818 49.5173 29.8175 49.5181C29.808 49.5325 29.7667 49.5957 29.533 49.5565L29.5092 49.5525L29.4856 49.5508L29.4856 49.5508L29.4855 49.5508L29.4852 49.5508L29.484 49.5507L29.4751 49.55L29.4353 49.5465C29.3995 49.5431 29.3457 49.5376 29.2769 49.5292C29.1393 49.5125 28.9432 49.4844 28.7137 49.4396C28.2494 49.3489 27.6715 49.1941 27.1657 48.9396C26.654 48.6822 26.278 48.3546 26.114 47.9502C25.9623 47.5763 25.9488 47.0278 26.3812 46.2113C26.3843 46.2083 26.3876 46.2052 26.391 46.202C26.432 46.1629 26.4934 46.1059 26.5717 46.0365C26.7289 45.8973 26.9522 45.7106 27.216 45.5209C27.762 45.1281 28.4085 44.7762 28.9749 44.7244L29.1673 44.7068L29.2979 44.5643L30.838 42.8843L30.8503 42.8708L30.8617 42.8565L30.4694 42.5464C30.8617 42.8565 30.8618 42.8564 30.8619 42.8563L30.8621 42.856L30.8627 42.8552L30.8643 42.8532L30.8691 42.847L30.8851 42.8262C30.8985 42.8085 30.9173 42.7833 30.9408 42.7509C30.988 42.686 31.0542 42.5919 31.1345 42.47C31.295 42.2263 31.512 41.8711 31.7449 41.4165C32.2102 40.508 32.7418 39.1965 33.0086 37.5802L33.0126 37.5562L33.0142 37.532L33.0142 37.532L33.0142 37.5317L33.0143 37.5301L33.0148 37.5232L33.0169 37.4945C33.0187 37.4689 33.0216 37.431 33.0256 37.3823C33.0335 37.2847 33.0456 37.1442 33.0626 36.9736C33.0967 36.6319 33.1498 36.1731 33.226 35.7007C33.3027 35.225 33.4005 34.7509 33.5206 34.3723C33.5807 34.1828 33.6423 34.0309 33.7023 33.9198C33.762 33.8093 33.8014 33.7745 33.8054 33.7711C33.8057 33.7708 33.8057 33.7707 33.8056 33.7708L34.1678 33.5277L33.9761 33.1361L33.9761 33.136L33.976 33.1358L33.9756 33.135L33.973 33.1296L33.9615 33.1055C33.9512 33.0836 33.9358 33.0505 33.9162 33.0073C33.877 32.9207 33.8214 32.7941 33.7574 32.6368C33.6289 32.3213 33.4682 31.8874 33.3372 31.4102C33.2054 30.9304 33.1082 30.4231 33.0968 29.9568C33.0853 29.4851 33.1627 29.1029 33.3322 28.8308L33.5699 28.4494L33.2159 28.1726L31.9207 27.1596V25.0695V24.8877L31.8047 24.7494L31.8046 24.7493L31.8044 24.749L31.8041 24.7487L31.8038 24.7483L31.8016 24.7455C31.7983 24.7415 31.7925 24.7343 31.7845 24.724C31.7686 24.7034 31.7438 24.6707 31.7122 24.6263C31.6489 24.5374 31.5587 24.4024 31.4575 24.2259C31.2546 23.872 31.0101 23.3559 30.8475 22.7129C30.5258 21.4405 30.5159 19.6431 31.8487 17.5708L31.943 17.4242L31.9257 17.2508L45.4152 67.1983ZM64.4445 49.3863C64.4445 49.387 64.4423 49.3854 64.4387 49.3799C64.4428 49.3831 64.4446 49.3857 64.4445 49.3863ZM63.3159 74.3697C63.316 74.3698 63.3161 74.3699 63.6642 74.0109L63.3161 74.3699L64.2893 75.3136L64.162 73.964L63.9053 71.2425L63.8971 71.1559L63.8602 71.0771C63.3608 70.0127 62.7587 68.169 62.2754 66.5633C62.0355 65.7662 61.8277 65.0374 61.6798 64.5078C61.6059 64.243 61.547 64.0283 61.5067 63.8798C61.4998 63.8546 61.4935 63.8312 61.4877 63.8099C61.4765 63.7685 61.4674 63.7347 61.4605 63.709L61.4533 63.6824C61.3128 62.5885 60.9425 61.6101 60.6115 60.9093C60.4435 60.5534 60.2835 60.2648 60.1646 60.0638C60.1052 59.9632 60.0558 59.8843 60.0207 59.8295C60.0031 59.8021 59.9891 59.7808 59.9791 59.7658L59.9672 59.7481L59.9637 59.7428L59.9625 59.7411L59.9621 59.7405L59.9619 59.7403C59.9619 59.7402 59.9618 59.7401 59.5498 60.0233L59.9618 59.7401L59.9359 59.7024L59.9035 59.67C59.3064 59.0723 58.6577 58.0847 58.1453 57.2137C57.8927 56.7843 57.6795 56.3942 57.5295 56.1115C57.4546 55.9703 57.3956 55.8562 57.3555 55.7778C57.3507 55.7684 57.3462 55.7596 57.342 55.7513C57.3284 55.7247 57.3177 55.7035 57.31 55.688L57.2986 55.6653L57.2958 55.6598L57.2952 55.6586L57.2951 55.6584L57.2951 55.6584L57.2812 55.6304L57.264 55.6043C57.0437 55.2716 56.6852 54.4459 56.2582 53.3277C55.8396 52.2316 55.3757 50.9108 54.9425 49.6342C54.5095 48.3584 54.1083 47.1304 53.8153 46.2212C53.6689 45.7666 53.5495 45.3919 53.4668 45.1309C53.4254 45.0005 53.3932 44.8984 53.3714 44.8291L53.3465 44.7501L53.3402 44.73L53.3387 44.7249L53.3383 44.7237L53.3382 44.7234L52.861 44.8726L53.3382 44.7233L53.3264 44.6856L53.3088 44.6503C53.0957 44.221 52.8313 43.8952 52.4823 43.7546C52.0983 43.5999 51.7538 43.7214 51.5235 43.876C51.3036 44.0235 51.1412 44.2275 51.0427 44.3692C51.0419 44.3703 51.0411 44.3715 51.0403 44.3726H50.9565L50.8405 44.7101L47.3678 54.8131L47.2917 55.0344L47.4128 55.2345C50.1403 59.7417 54.1215 64.5284 57.4079 68.1775C59.0534 70.0047 60.5293 71.5517 61.5941 72.6421C62.1266 73.1874 62.5564 73.6187 62.8535 73.914C63.002 74.0616 63.1173 74.1753 63.1956 74.2522L63.285 74.3396L63.308 74.362L63.3139 74.3678L63.3155 74.3693L63.3159 74.3697ZM42.8173 37.1716L42.822 37.1377V37.1093C42.8544 36.5002 42.7995 36.0338 42.6596 35.6857C42.5106 35.315 42.2601 35.0721 41.9441 34.9716C41.6549 34.8796 41.3846 34.9313 41.2186 34.9823C41.131 35.0092 41.0581 35.0404 41.0062 35.0652C40.9799 35.0777 40.9582 35.089 40.9419 35.098C40.9368 35.1007 40.9323 35.1032 40.9282 35.1055C40.9257 35.107 40.9233 35.1083 40.9211 35.1096L40.9198 35.1104C40.4547 35.3672 39.8557 35.4319 39.3298 35.4168C39.073 35.4094 38.8486 35.3835 38.6891 35.3595C38.6097 35.3476 38.5471 35.3362 38.5056 35.3281C38.4848 35.3241 38.4694 35.3209 38.4598 35.3188L38.4499 35.3166L38.4491 35.3165L38.4489 35.3164L38.4487 35.3164L38.4484 35.3163L38.4483 35.3163L37.8854 35.1855L37.8376 35.7623C37.815 36.0359 37.6458 36.4729 37.3414 37.0253C37.0472 37.5592 36.6616 38.14 36.2732 38.6824C35.886 39.2232 35.5018 39.7176 35.214 40.0772C35.0702 40.2568 34.9509 40.4023 34.8678 40.5026C34.8263 40.5527 34.7938 40.5915 34.7719 40.6176L34.747 40.647L34.7409 40.6542L34.7395 40.6559L34.7392 40.6563L34.7392 40.6563L34.7392 40.6563L33.726 41.8461L35.2417 41.4654L38.8305 40.5638C39.5755 40.4187 40.1543 40.7339 40.5821 41.1378C40.7971 41.3407 40.9625 41.5569 41.0745 41.7238C41.13 41.8066 41.1712 41.8755 41.1978 41.9222C41.2111 41.9455 41.2206 41.9632 41.2263 41.974L41.2321 41.9851L41.2321 41.9851L41.2323 41.9855L41.2325 41.9858L41.2327 41.9862L41.2328 41.9866L41.9537 43.4436L42.1756 41.8316L42.8173 37.1716ZM40.7669 5.42191C40.7664 5.42158 40.7666 5.42168 40.7674 5.42222L40.7669 5.42191Z" stroke="url(#paint0_linear_735_6104)"/>
<defs>
<linearGradient id="paint0_linear_735_6104" x1="-6.77851e-08" y1="18.3556" x2="64.9016" y2="27.5295" gradientUnits="userSpaceOnUse">
<stop stop-color="#323232"/>
<stop offset="1" stop-color="#F3F3F3"/>
</linearGradient>
</defs>
</svg>
