<svg width="34" height="110" viewBox="0 0 34 110" fill="none" xmlns="http://www.w3.org/2000/svg">
<path d="M26.4559 78.1969C26.0213 78.4441 26.0214 78.4442 26.0215 78.4444L26.0217 78.4447L26.0222 78.4456L26.0235 78.448L26.0276 78.455L26.0411 78.4779C26.0525 78.4969 26.0687 78.5234 26.0896 78.5563C26.1312 78.6219 26.1917 78.7133 26.2699 78.8214C26.4258 79.0369 26.6558 79.3241 26.9527 79.6088C27.5228 80.1556 28.4027 80.7518 29.5148 80.7052C29.5161 80.7056 29.5174 80.7059 29.5187 80.7063C29.5588 80.7175 29.6174 80.7366 29.6838 80.7663C29.8208 80.8275 29.9651 80.9219 30.0656 81.0605C30.2224 81.2768 30.4418 81.8574 29.5637 83.2367C29.5512 83.2515 29.5355 83.2705 29.5171 83.2937C29.4738 83.3483 29.4153 83.4262 29.3484 83.5261C29.2148 83.7257 29.0461 84.0155 28.8968 84.3868C28.5977 85.1307 28.3778 86.1993 28.669 87.5097L28.6716 87.5246C28.6728 87.5318 28.6743 87.541 28.676 87.5521C28.6781 87.5658 28.6806 87.5825 28.6833 87.6018C28.6928 87.6714 28.7049 87.7757 28.7138 87.9069C28.7316 88.1702 28.7359 88.5368 28.6825 88.9475C28.5753 89.7722 28.2429 90.7309 27.3669 91.4233L27.3155 91.464L26.4559 78.1969ZM26.4559 78.1969L26.0213 78.4441L25.8829 78.2007L26.0181 77.9556L27.4856 75.2935L22.2723 68.0763L22.1205 67.8661L22.2048 67.6209C23.2604 64.552 23.7974 59.9715 24.067 56.1181C24.2013 54.1996 24.2685 52.4757 24.302 51.2315C24.3188 50.6095 24.3272 50.1077 24.3314 49.7618C24.3335 49.5889 24.3345 49.455 24.335 49.3645L24.3355 49.2619L24.3356 49.2361L24.3356 49.2298V49.2283V49.2279V49.1454L24.3621 49.0673L24.7513 47.9196C24.7821 46.7137 25.4571 45.5705 26.0652 44.7683C26.384 44.3477 26.7018 43.9984 26.9397 43.7543C27.059 43.6319 27.1589 43.5352 27.2298 43.4684C27.2653 43.435 27.2936 43.409 27.3135 43.3909L27.3369 43.3698L27.3436 43.3638L27.3456 43.362L27.3463 43.3614L27.3466 43.3611C27.3467 43.361 27.3468 43.361 27.677 43.7364L27.3468 43.361L27.3837 43.3285L27.4262 43.3039C29.277 42.2307 30.7078 40.3802 31.6855 38.7569C32.171 37.951 32.5372 37.2138 32.7817 36.6788C32.9039 36.4115 32.9954 36.1953 33.0559 36.047C33.0862 35.9729 33.1087 35.9158 33.1234 35.8778L33.1397 35.8355L33.1434 35.8256L33.1442 35.8235L33.1442 35.8234L33.1443 35.8233L33.1443 35.8232L33.1568 35.7892L33.1743 35.7572C33.5695 35.0327 33.5462 34.3005 33.4115 33.7258C33.3444 33.439 33.2509 33.1991 33.1746 33.0319C33.1366 32.9487 33.1034 32.8846 33.0807 32.8429C33.0693 32.8221 33.0607 32.807 33.0554 32.798L33.0506 32.7898L33.0504 32.7894L33.0502 32.7892L33.0501 32.7891L33.0499 32.7887L33.0496 32.7882L33.0233 32.746L33.0056 32.6977C32.8908 32.3847 32.5967 31.849 32.1902 31.189C31.7913 30.5415 31.3071 29.8102 30.8368 29.1206C30.367 28.4316 29.9136 27.7878 29.5774 27.3159C29.4094 27.0801 29.2709 26.8874 29.1744 26.7539C29.1262 26.6871 29.0885 26.6351 29.0629 26.5999L29.0338 26.5598L29.0264 26.5497L29.0246 26.5472L29.0242 26.5466L29.0241 26.5465L29.4279 26.2517L29.0241 26.5465L28.9913 26.5017L28.9692 26.4508C28.013 24.2475 26.5298 23.1633 25.2953 22.6223C24.674 22.35 24.1122 22.2142 23.7082 22.1466C23.5065 22.1129 23.3452 22.0963 23.2368 22.0882C23.1826 22.0841 23.1418 22.0822 23.1159 22.0813C23.1029 22.0808 23.0937 22.0806 23.0884 22.0805L23.0847 22.0805H23.0842H23.0838H23.0835L23.0833 22.0805L22.8502 22.0805L22.7003 21.9002C21.8368 20.8622 20.5145 20.1656 19.3641 19.7262C18.7953 19.509 18.2828 19.3599 17.9132 19.2654C17.7286 19.2182 17.5804 19.1847 17.4794 19.1633C17.4289 19.1526 17.3903 19.1449 17.365 19.14L17.3371 19.1347L17.3309 19.1335L17.3301 19.1334L17.3299 19.1334L17.3298 19.1333L17.3298 19.1333L16.9224 19.0613L16.9172 18.6473L16.8788 15.5788L16.8755 15.3161L17.0899 15.1643C17.8683 14.6135 18.007 13.9616 17.9722 13.437C17.9541 13.1632 17.8868 12.9191 17.8224 12.7418C17.7905 12.654 17.7602 12.5849 17.7389 12.5396C17.7282 12.5171 17.7199 12.5006 17.7149 12.4909L17.7102 12.482L17.7099 12.4815L17.7099 12.4814L17.7095 12.4808L26.4559 78.1969ZM27.2765 91.5162L27.2764 91.5163L27.2763 91.5165L27.2759 91.5171L27.2722 91.5219L27.2558 91.5433C27.2498 91.551 27.2426 91.5603 27.2342 91.5709C27.2219 91.5866 27.207 91.6053 27.1899 91.6265C27.1323 91.6978 27.0501 91.7962 26.9526 91.9034C26.7486 92.1276 26.5114 92.3526 26.3089 92.4717C26.2714 92.4938 26.2396 92.5095 26.2137 92.5201C26.1956 92.4749 26.1723 92.3973 26.1546 92.2723C26.1246 92.061 26.1162 91.756 26.1476 91.3292L26.1491 91.3154L26.1557 91.2516C26.1613 91.196 26.1693 91.1149 26.1787 91.0116C26.1977 90.8051 26.2227 90.5093 26.2471 90.1505C26.2959 89.4338 26.3427 88.4614 26.3339 87.4439C26.3251 86.4302 26.2612 85.3529 26.0821 84.4336C25.9925 83.9737 25.8713 83.5383 25.7055 83.1639C25.5445 82.8005 25.3275 82.4628 25.0262 82.2262L21.9376 79.4361L21.5405 79.0774L21.2096 79.4979L21.6025 79.8072C21.2096 79.4979 21.2095 79.498 21.2094 79.4981L21.2092 79.4984L21.2086 79.4991L21.207 79.5012L21.2017 79.508L21.1834 79.5318C21.1679 79.5522 21.1459 79.5815 21.1184 79.619C21.0633 79.6941 20.9861 79.8024 20.8944 79.9389C20.7113 80.2115 20.4689 80.5994 20.2306 81.0623C19.765 81.9668 19.283 83.2188 19.3507 84.4783L19.1003 88.8304L18.0096 89.3698L17.8377 89.4547L17.7667 89.6328L17.7667 89.6329L17.7666 89.6333L17.7658 89.6351L17.7628 89.6428L17.7504 89.6736C17.7394 89.7008 17.723 89.7413 17.7017 89.7936C17.6592 89.8982 17.5968 90.05 17.5181 90.2382C17.3607 90.6148 17.1383 91.1362 16.8784 91.7153C16.3549 92.8818 15.6925 94.2521 15.1087 95.1511L15.0536 95.2358L15.0358 95.3352L15.528 95.4234C15.0358 95.3352 15.0358 95.3353 15.0358 95.3353L15.0358 95.3355L15.0356 95.3363L15.0352 95.339L15.0333 95.3493L15.0264 95.3888C15.0203 95.4233 15.0115 95.474 15.0004 95.5392C14.9782 95.6696 14.9466 95.8581 14.9092 96.0916C14.8345 96.5584 14.7363 97.2063 14.6424 97.9301C14.4571 99.3586 14.2826 101.125 14.352 102.376L14.3518 102.385C14.3514 102.401 14.3505 102.426 14.3486 102.459C14.3447 102.524 14.337 102.616 14.3216 102.721C14.2892 102.942 14.2293 103.171 14.1351 103.33C14.0509 103.472 13.9805 103.502 13.8934 103.5C13.7513 103.497 13.4397 103.403 12.9057 102.941C12.8968 102.932 12.8858 102.92 12.8726 102.906C12.8383 102.871 12.7895 102.822 12.7269 102.763C12.6019 102.646 12.4206 102.49 12.189 102.324C11.7287 101.995 11.0536 101.621 10.2175 101.471L10.212 101.47C10.205 101.468 10.1932 101.466 10.1771 101.462C10.145 101.455 10.0966 101.443 10.0371 101.425C9.9166 101.39 9.75841 101.334 9.60039 101.252C9.26677 101.08 9.04246 100.854 9.00478 100.562L8.98774 100.43L27.2765 91.5162ZM8.90755 100.324L8.90744 100.324L8.90731 100.324L8.90708 100.324L8.9041 100.32L8.89051 100.301C8.88097 100.288 8.86778 100.27 8.85174 100.247C8.84719 100.241 8.84241 100.234 8.83742 100.227C8.79206 100.162 8.73016 100.07 8.66465 99.9636C8.52671 99.739 8.39971 99.4913 8.35142 99.3006C8.34867 99.2898 8.34635 99.2798 8.34439 99.2705C8.38138 99.2702 8.43105 99.2726 8.49599 99.281C8.67582 99.304 8.93165 99.3671 9.284 99.494L9.30541 99.5017L9.32743 99.5075L9.45351 99.0236C9.32743 99.5075 9.32776 99.5076 9.3281 99.5077L9.32884 99.5079L9.3305 99.5083L9.33455 99.5093L9.34553 99.512C9.35411 99.514 9.3652 99.5165 9.37865 99.5194C9.40553 99.5251 9.44199 99.5321 9.48686 99.5392C9.57636 99.5533 9.70066 99.5678 9.85005 99.5715C10.1471 99.5791 10.5558 99.5446 10.9892 99.371C11.8972 99.0071 12.7616 98.0971 13.0506 96.1579L13.0538 96.1361L13.0551 96.1141L13.4621 89.3085L13.4838 88.9462L13.146 88.8134L11.4965 88.1645L11.8102 86.3142C11.8399 86.2717 11.8622 86.2303 11.8789 86.1945C11.927 86.0917 11.954 85.9822 11.9716 85.8873C12.0067 85.6975 12.0218 85.4604 12.0334 85.2165C12.0378 85.1223 12.0418 85.024 12.046 84.9217C12.0645 84.4718 12.0861 83.9463 12.1593 83.3687C12.3383 81.9569 12.8166 80.3329 14.2335 79.1154L14.5052 78.882L14.3716 78.5499L14.3716 78.5498L14.3715 78.5496L14.3712 78.5488L14.3689 78.5432L14.3591 78.5179C14.3503 78.495 14.337 78.4601 14.3201 78.4142C14.2862 78.3223 14.2378 78.1863 14.181 78.0138C14.0672 77.6684 13.9207 77.1787 13.7905 76.6043C13.5277 75.4449 13.3426 73.9877 13.5923 72.6857L13.6204 72.5395L13.5639 72.4018L9.80386 63.2332L9.7993 63.2103C9.79317 63.1798 9.78511 63.1396 9.7752 63.0907C9.77015 63.0657 9.76463 63.0385 9.75864 63.009C9.72314 62.8345 9.67127 62.5824 9.60567 62.2712C9.47449 61.6489 9.28822 60.7897 9.0679 59.8423C8.63259 57.9703 8.05661 55.7193 7.50438 54.2797L7.49958 54.2602C7.4919 54.2284 7.48055 54.18 7.46661 54.1165C7.43872 53.9896 7.40052 53.8025 7.3606 53.5672C7.28065 53.0959 7.19439 52.4348 7.16938 51.678C7.11889 50.1505 7.3203 48.3004 8.25566 46.8216L8.34483 46.6806L8.3315 46.5143L7.92451 41.4406L7.86927 40.7519L7.23285 41.0194L7.23276 41.0194L7.23269 41.0195L7.23238 41.0196L7.23088 41.0202L7.22048 41.0245C7.21064 41.0284 7.19505 41.0347 7.17405 41.0428C7.13205 41.0591 7.06853 41.0829 6.98629 41.1117C6.82163 41.1693 6.58305 41.2462 6.29284 41.3213C5.70859 41.4724 4.93352 41.6112 4.13867 41.58C3.34428 41.5489 2.56175 41.3498 1.92237 40.857C1.3017 40.3787 0.763288 39.5831 0.505013 38.2549L1.56465 28.3175L1.56807 28.2853L1.56734 28.2534L1.56734 28.2533L1.56734 28.2532L1.56733 28.2531L1.56729 28.2508L1.56713 28.2386C1.567 28.2272 1.56687 28.2094 1.56691 28.1857C1.56697 28.1381 1.56768 28.0667 1.57034 27.9749C1.57567 27.7912 1.5888 27.5265 1.62003 27.2083C1.68277 26.5691 1.81733 25.7272 2.10128 24.895C2.3862 24.0599 2.81111 23.2653 3.4353 22.6873C4.04754 22.1203 4.87533 21.7384 6.02945 21.7538L6.28396 21.7572L6.43598 21.554L6.43608 21.5539L6.43615 21.5538L6.43628 21.5536L6.43645 21.5534L6.43794 21.5515L6.44822 21.5382C6.45795 21.5257 6.47335 21.5063 6.49412 21.481C6.5357 21.4303 6.59851 21.3562 6.68009 21.2673C6.844 21.0886 7.07974 20.8541 7.36754 20.6289C7.95893 20.1662 8.68676 19.8063 9.42991 19.9109L10.1959 20.0187L9.97968 19.2761L9.97967 19.2761L9.97966 19.276L9.97953 19.2756L9.97878 19.273L9.97552 19.2616L9.96218 19.2143C9.95039 19.1722 9.93298 19.109 9.91099 19.0266C9.86699 18.8618 9.80466 18.6202 9.73218 18.316C9.58714 17.7074 9.40189 16.85 9.24154 15.8573C8.92271 13.8835 8.71011 11.4198 9.07975 9.31752C9.08019 9.31671 9.08063 9.31588 9.08108 9.31505C9.10435 9.27179 9.14033 9.20698 9.18883 9.12554C9.286 8.96235 9.43244 8.73402 9.62646 8.47914C10.0179 7.96497 10.5856 7.36556 11.3124 6.96265C12.0281 6.56589 12.901 6.35655 13.9445 6.6119C14.9694 6.8627 16.2083 7.57411 17.6467 9.1004V12.2381V12.3688L8.90755 100.324ZM6.75799 37.7284L6.99634 38.1679L7.29597 38.0054L7.25423 37.6672L6.57843 32.1908L5.60224 32.1119C5.08999 33.8659 4.86671 35.1205 4.83283 36.0176C4.79953 36.8996 4.94585 37.5222 5.27745 37.9157C5.63632 38.3417 6.10955 38.3869 6.43204 38.3448C6.59182 38.3239 6.72819 38.2813 6.82306 38.2453C6.87132 38.227 6.91103 38.2096 6.94021 38.1959C6.95485 38.1891 6.967 38.1831 6.9764 38.1783L6.98847 38.1721L6.99294 38.1698L6.99478 38.1688L6.99559 38.1683C6.99597 38.1681 6.99634 38.1679 6.75799 37.7284ZM24.7509 30.6635L24.3364 30.3277L24.0281 30.7631C23.2595 31.8489 22.8115 33.2483 22.5586 34.6984C22.3047 36.1541 22.2412 37.6981 22.267 39.1019C22.2928 40.5075 22.4084 41.7842 22.5174 42.7091C22.5719 43.1719 22.6249 43.5476 22.6644 43.8084C22.6842 43.9388 22.7006 44.0406 22.7121 44.1102C22.7179 44.145 22.7224 44.1717 22.7256 44.1901L22.7292 44.2112L22.7302 44.2168L22.7305 44.2184L22.7306 44.2189C22.7306 44.2191 22.7307 44.2192 23.2229 44.1313L22.7307 44.2192L22.9211 45.2857L23.6091 44.4489L27.1187 40.1802L27.2037 40.0768L27.2257 39.9448C27.4133 38.8168 27.9275 37.5679 28.4103 36.5809C28.6495 36.0919 28.8767 35.676 29.0438 35.3828C29.1272 35.2364 29.1955 35.1208 29.2426 35.0425C29.2661 35.0033 29.2844 34.9735 29.2965 34.9537L29.31 34.9318L29.3132 34.9267L29.3139 34.9256L29.3139 34.9256L29.314 34.9255L29.314 34.9255L29.5494 34.5502L29.2051 34.2713L24.7509 30.6635Z" stroke="url(#paint0_linear_735_6114)"/>
<defs>
<linearGradient id="paint0_linear_735_6114" x1="-2.58954e-08" y1="19.7926" x2="25.2096" y2="21.2095" gradientUnits="userSpaceOnUse">
<stop stop-color="#323232"/>
<stop offset="1" stop-color="#F3F3F3"/>
</linearGradient>
</defs>
</svg>
