<svg width="51" height="110" viewBox="0 0 51 110" fill="none" xmlns="http://www.w3.org/2000/svg">
<mask id="path-1-inside-1_735_6118" fill="white">
<path d="M50.8628 30.6902C51.3448 29.669 50.2508 27.9163 50.2508 27.9163L50.3655 26.1711L49.5928 25.2109C48.0169 23.3438 41.5446 22.2616 41.5446 22.2616V21.7206C43.0747 21.4767 41.4835 18.1083 41.4835 18.1083L41.5446 17.9254V16.4851L41.1239 16.3098C41.3075 14.4427 39.2801 11.4325 39.2801 11.4325C36.503 7.75928 31.2778 9.33679 31.2778 9.33679C27.9499 10.4799 27.1237 14.6027 27.1237 14.6027C26.5193 17.1328 27.6669 20.0745 27.6669 20.0745L27.5903 20.5851H27.2843L27.2231 21.4233L26.2592 21.6901C24.928 21.3319 22.9313 21.9492 22.9313 21.9492C20.2689 22.4293 18.1498 24.7917 18.1498 24.7917C18.2722 25.6376 17.5454 26.7808 17.5454 26.7808C16.6962 27.802 17.1858 28.3507 17.1858 28.3507C17.3618 29.0746 16.5202 30.4616 16.5202 30.4616C15.8547 32.0848 17.4306 32.2068 17.4306 32.2068C17.9126 32.5116 17.3082 32.9307 17.3082 32.9307C15.189 34.6759 14.1639 36.9088 14.1639 36.9088C14.1639 38.654 12.8327 40.7649 12.8327 40.7649C11.8076 42.4491 12.5879 44.9792 12.5879 44.9792C12.5267 46.1223 14.2787 46.1223 14.2787 46.1223C17.9662 46.9072 21.2941 43.897 21.2941 43.897C22.9848 42.5101 23.6504 42.6929 23.6504 42.6929C22.8624 43.295 22.6864 44.682 22.6864 44.682C22.1433 44.3772 22.3269 45.406 22.3269 45.406C22.0208 46.3129 23.5968 47.7532 23.5968 47.7532C23.1761 48.5991 24.2624 48.9573 24.2624 48.9573C23.5968 49.2011 23.5968 50.1614 23.5968 50.1614C23.8417 50.2833 24.14 51.3045 24.14 51.3045L23.9564 51.6626V52.3866L22.5105 53.9565C20.8809 55.6407 21.4241 60.1598 21.4241 60.1598C22.0285 62.7509 25.4482 65.1591 25.4482 65.1591C24.2395 66.3632 22.6252 71.0652 22.6252 71.0652C22.2045 72.4522 21.1487 75.7062 21.1487 75.7062C20.4219 76.5521 19.5039 78.9603 19.5039 78.9603C15.388 80.3473 15.0207 82.5116 15.0207 82.5116C14.4776 83.8376 12.5956 85.1027 12.5956 85.1027L12.2896 84.2568L11.5016 84.4397L11.624 85.2855L11.0808 85.4075C10.4764 87.0307 8.60206 86.3677 8.60206 86.3677C5.87852 86.4897 5.33535 88.2958 4.97578 88.2958L4.73097 88.7149L4.97578 89.195L4.79218 90.0409L4.3102 90.1019L4.24899 90.7649L4.60858 90.8869C4.42497 92.2738 2.36702 94.3771 2.36702 94.3771C-0.295312 96.6634 0.0106902 99.5593 0.0106902 99.5593C-0.111716 101.792 2.30581 100.763 2.30581 100.763C5.26651 100.283 7.02608 96.7853 7.02608 96.7853C7.87527 95.4593 10.7136 93.295 10.7136 93.295C11.4404 92.9902 10.7748 92.4491 10.7748 92.4491L13.5595 91.1231L13.3759 90.2162C14.8907 89.1341 18.517 87.3279 18.517 87.3279L18.2722 87.7471C17.3618 88.3491 17.423 89.5532 17.423 89.5532C16.7574 89.7971 16.6809 91.1155 16.6809 91.1155C15.5945 92.2586 16.2983 93.7065 16.2983 93.7065V94.4915H16.5126L16.9333 94.3086L16.7497 94.9563L17.4765 95.2916L17.7749 94.5905L18.6241 95.1392L18.3793 95.8632L18.9224 95.9852L19.1672 95.8022L19.1061 96.2214L19.8328 96.5262L20.1924 96.0461L20.858 96.1681L21.1564 96.953L21.6995 97.0749L22.1203 96.5948L22.1815 97.3188L23.3291 97.3797L23.4515 97.0826L23.9946 97.2655L24.0558 97.8675L25.2034 97.9285L25.2646 97.3874L26.175 96.7853C27.2614 95.8175 24.9662 93.7141 24.9662 93.7141C23.6963 92.8073 23.8187 90.582 23.8187 90.582L26.1138 90.3381L25.1498 90.0333C25.9914 89.8504 26.0602 89.1874 26.0602 89.1874C26.3051 88.2805 24.8515 88.2805 24.8515 88.2805L26.0602 85.0874L25.2723 84.7826C25.8767 83.7004 28.7226 80.6293 28.7226 80.6293C31.7445 77.741 32.2265 75.8663 32.2265 75.8663C32.5325 75.0813 33.1369 74.1821 33.1369 74.1821C33.68 73.58 36.22 71.53 36.22 71.53C37.6736 70.5088 37.7347 68.154 37.7347 68.154C38.2167 66.5308 39.6703 62.789 39.6703 62.789C40.7566 60.861 41.1851 57.4239 41.1851 57.4239C43.9698 54.8329 43.5414 50.5576 43.5414 50.5576L46.5633 49.5898C47.3513 49.4069 47.4737 48.0199 47.4737 48.0199C47.8332 46.3357 49.348 40.9707 49.348 40.9707C50.2584 38.6235 48.4376 34.7674 48.4376 34.7674C51.888 34.0434 50.8552 30.6674 50.8552 30.6674L50.8628 30.6902ZM21.4777 38.5244C21.4777 38.5244 22.564 37.2594 22.6864 36.2991L23.5356 37.869C23.5356 37.869 22.1433 38.1739 21.4777 38.532V38.5244ZM25.7695 88.8292C25.7695 88.8292 25.9531 90.2162 23.8952 89.3703C23.8952 89.3703 25.2264 88.1662 25.7695 88.8292ZM40.7719 23.5267L40.8331 22.2007L41.4376 21.8958C41.4376 21.8958 41.1927 23.039 40.7719 23.5191V23.5267ZM40.5272 21.5986L41.2539 18.1617L41.5599 21.1718L40.5348 21.591L40.5272 21.5986Z"/>
</mask>
<path d="M50.8628 30.6902C51.3448 29.669 50.2508 27.9163 50.2508 27.9163L50.3655 26.1711L49.5928 25.2109C48.0169 23.3438 41.5446 22.2616 41.5446 22.2616V21.7206C43.0747 21.4767 41.4835 18.1083 41.4835 18.1083L41.5446 17.9254V16.4851L41.1239 16.3098C41.3075 14.4427 39.2801 11.4325 39.2801 11.4325C36.503 7.75928 31.2778 9.33679 31.2778 9.33679C27.9499 10.4799 27.1237 14.6027 27.1237 14.6027C26.5193 17.1328 27.6669 20.0745 27.6669 20.0745L27.5903 20.5851H27.2843L27.2231 21.4233L26.2592 21.6901C24.928 21.3319 22.9313 21.9492 22.9313 21.9492C20.2689 22.4293 18.1498 24.7917 18.1498 24.7917C18.2722 25.6376 17.5454 26.7808 17.5454 26.7808C16.6962 27.802 17.1858 28.3507 17.1858 28.3507C17.3618 29.0746 16.5202 30.4616 16.5202 30.4616C15.8547 32.0848 17.4306 32.2068 17.4306 32.2068C17.9126 32.5116 17.3082 32.9307 17.3082 32.9307C15.189 34.6759 14.1639 36.9088 14.1639 36.9088C14.1639 38.654 12.8327 40.7649 12.8327 40.7649C11.8076 42.4491 12.5879 44.9792 12.5879 44.9792C12.5267 46.1223 14.2787 46.1223 14.2787 46.1223C17.9662 46.9072 21.2941 43.897 21.2941 43.897C22.9848 42.5101 23.6504 42.6929 23.6504 42.6929C22.8624 43.295 22.6864 44.682 22.6864 44.682C22.1433 44.3772 22.3269 45.406 22.3269 45.406C22.0208 46.3129 23.5968 47.7532 23.5968 47.7532C23.1761 48.5991 24.2624 48.9573 24.2624 48.9573C23.5968 49.2011 23.5968 50.1614 23.5968 50.1614C23.8417 50.2833 24.14 51.3045 24.14 51.3045L23.9564 51.6626V52.3866L22.5105 53.9565C20.8809 55.6407 21.4241 60.1598 21.4241 60.1598C22.0285 62.7509 25.4482 65.1591 25.4482 65.1591C24.2395 66.3632 22.6252 71.0652 22.6252 71.0652C22.2045 72.4522 21.1487 75.7062 21.1487 75.7062C20.4219 76.5521 19.5039 78.9603 19.5039 78.9603C15.388 80.3473 15.0207 82.5116 15.0207 82.5116C14.4776 83.8376 12.5956 85.1027 12.5956 85.1027L12.2896 84.2568L11.5016 84.4397L11.624 85.2855L11.0808 85.4075C10.4764 87.0307 8.60206 86.3677 8.60206 86.3677C5.87852 86.4897 5.33535 88.2958 4.97578 88.2958L4.73097 88.7149L4.97578 89.195L4.79218 90.0409L4.3102 90.1019L4.24899 90.7649L4.60858 90.8869C4.42497 92.2738 2.36702 94.3771 2.36702 94.3771C-0.295312 96.6634 0.0106902 99.5593 0.0106902 99.5593C-0.111716 101.792 2.30581 100.763 2.30581 100.763C5.26651 100.283 7.02608 96.7853 7.02608 96.7853C7.87527 95.4593 10.7136 93.295 10.7136 93.295C11.4404 92.9902 10.7748 92.4491 10.7748 92.4491L13.5595 91.1231L13.3759 90.2162C14.8907 89.1341 18.517 87.3279 18.517 87.3279L18.2722 87.7471C17.3618 88.3491 17.423 89.5532 17.423 89.5532C16.7574 89.7971 16.6809 91.1155 16.6809 91.1155C15.5945 92.2586 16.2983 93.7065 16.2983 93.7065V94.4915H16.5126L16.9333 94.3086L16.7497 94.9563L17.4765 95.2916L17.7749 94.5905L18.6241 95.1392L18.3793 95.8632L18.9224 95.9852L19.1672 95.8022L19.1061 96.2214L19.8328 96.5262L20.1924 96.0461L20.858 96.1681L21.1564 96.953L21.6995 97.0749L22.1203 96.5948L22.1815 97.3188L23.3291 97.3797L23.4515 97.0826L23.9946 97.2655L24.0558 97.8675L25.2034 97.9285L25.2646 97.3874L26.175 96.7853C27.2614 95.8175 24.9662 93.7141 24.9662 93.7141C23.6963 92.8073 23.8187 90.582 23.8187 90.582L26.1138 90.3381L25.1498 90.0333C25.9914 89.8504 26.0602 89.1874 26.0602 89.1874C26.3051 88.2805 24.8515 88.2805 24.8515 88.2805L26.0602 85.0874L25.2723 84.7826C25.8767 83.7004 28.7226 80.6293 28.7226 80.6293C31.7445 77.741 32.2265 75.8663 32.2265 75.8663C32.5325 75.0813 33.1369 74.1821 33.1369 74.1821C33.68 73.58 36.22 71.53 36.22 71.53C37.6736 70.5088 37.7347 68.154 37.7347 68.154C38.2167 66.5308 39.6703 62.789 39.6703 62.789C40.7566 60.861 41.1851 57.4239 41.1851 57.4239C43.9698 54.8329 43.5414 50.5576 43.5414 50.5576L46.5633 49.5898C47.3513 49.4069 47.4737 48.0199 47.4737 48.0199C47.8332 46.3357 49.348 40.9707 49.348 40.9707C50.2584 38.6235 48.4376 34.7674 48.4376 34.7674C51.888 34.0434 50.8552 30.6674 50.8552 30.6674L50.8628 30.6902ZM21.4777 38.5244C21.4777 38.5244 22.564 37.2594 22.6864 36.2991L23.5356 37.869C23.5356 37.869 22.1433 38.1739 21.4777 38.532V38.5244ZM25.7695 88.8292C25.7695 88.8292 25.9531 90.2162 23.8952 89.3703C23.8952 89.3703 25.2264 88.1662 25.7695 88.8292ZM40.7719 23.5267L40.8331 22.2007L41.4376 21.8958C41.4376 21.8958 41.1927 23.039 40.7719 23.5191V23.5267ZM40.5272 21.5986L41.2539 18.1617L41.5599 21.1718L40.5348 21.591L40.5272 21.5986Z" stroke="url(#paint0_linear_735_6118)" stroke-width="2" mask="url(#path-1-inside-1_735_6118)"/>
<defs>
<linearGradient id="paint0_linear_735_6118" x1="-3.88431e-08" y1="21.9481" x2="37.6304" y2="25.3275" gradientUnits="userSpaceOnUse">
<stop stop-color="#323232"/>
<stop offset="1" stop-color="#F3F3F3"/>
</linearGradient>
</defs>
</svg>
