<svg width="39" height="110" viewBox="0 0 39 110" fill="none" xmlns="http://www.w3.org/2000/svg">
<path d="M24.9348 7.77005C24.9104 7.7472 24.8316 7.69895 24.6546 7.66261C24.4843 7.62763 24.2787 7.61482 24.0684 7.61678C23.8609 7.61871 23.6649 7.63477 23.5197 7.65066C23.4475 7.65855 23.3891 7.66626 23.3494 7.67189C23.3296 7.67469 23.3145 7.67697 23.3048 7.67847L23.2945 7.68011L23.2927 7.68039L23.2926 7.68041L23.2925 7.68043L23.2924 7.68043L23.2923 7.68046L23.011 7.7275L22.8273 7.50871C22.8251 7.50605 22.823 7.50377 22.8213 7.50184C22.7828 7.50958 22.7063 7.54087 22.5968 7.62164C22.4871 7.70255 22.383 7.80413 22.3029 7.89105C22.2639 7.93337 22.2329 7.96975 22.2121 7.9948C22.2018 8.00727 22.1942 8.01678 22.1895 8.02264L22.185 8.0284L22.1849 8.02857L22.1849 8.0286L22.1847 8.02877L22.1845 8.02904L22.1843 8.02928L21.8592 8.45544L21.4566 8.09994C21.4299 8.07636 21.407 8.06074 21.3215 8.08336C21.2121 8.11229 21.0656 8.19492 20.8989 8.32962C20.7388 8.45895 20.5925 8.60965 20.4836 8.73208C20.43 8.79239 20.3873 8.84381 20.3585 8.87944C20.3442 8.89721 20.3334 8.91093 20.3266 8.91971L20.3194 8.92905L20.3185 8.93025L20.3183 8.93043L20.3182 8.93057L20.3181 8.93071L20.3181 8.93075L20.1832 9.11044L19.9587 9.12851C19.8409 9.13799 19.8195 9.17261 19.811 9.1865C19.8106 9.18714 19.8102 9.18773 19.8099 9.18828C19.7837 9.2293 19.7556 9.31899 19.7556 9.47324C19.7556 9.61948 19.7808 9.77428 19.8094 9.89972C19.8233 9.96068 19.8371 10.0109 19.8471 10.0448C19.852 10.0617 19.856 10.0743 19.8585 10.082L19.8608 10.0892L19.8609 10.0895L19.861 10.0896L19.861 10.0897L19.8611 10.0901L19.8613 10.0905L20.026 10.5679L19.5453 10.727C19.4936 10.7441 19.4696 10.7607 19.461 10.7676C19.4566 10.7712 19.4547 10.7734 19.4542 10.774L19.4534 10.7753C19.4525 10.7769 19.4408 10.8032 19.4497 10.874C19.4583 10.9429 19.4825 11.0184 19.5097 11.0835C19.5225 11.1142 19.5345 11.1389 19.5426 11.1546C19.5466 11.1624 19.5495 11.1678 19.5509 11.1704C19.5511 11.1708 19.5512 11.1709 19.5514 11.1712L19.5517 11.1717L19.5517 11.1719L19.5518 11.1721L19.6023 11.2581L19.615 11.3603L19.8844 13.5289L20.0422 14.7992L19.1812 14.0705C19.1787 14.1022 19.1768 14.1359 19.1754 14.1715C19.1657 14.4184 19.1854 14.7012 19.2095 14.9312C19.2213 15.0442 19.2338 15.1405 19.2433 15.2082C19.248 15.242 19.252 15.2684 19.2547 15.2861L19.2577 15.3056L19.2584 15.3101L19.2585 15.3107L19.2586 15.3108L19.2586 15.3109L19.2586 15.3109L19.2589 15.3126C19.3626 15.9577 19.525 16.1397 19.5732 16.1809L20.1696 15.882L20.2395 16.6078L20.5089 19.4082L20.5139 19.4607L20.5079 19.5132C20.4101 20.3633 20.1262 20.8731 19.759 21.152C19.5793 21.2884 19.4007 21.3524 19.2583 21.3803C19.1878 21.3941 19.1268 21.3989 19.0791 21.3999C19.0561 21.4003 19.036 21.3998 19.0192 21.399C18.698 21.4026 18.2711 21.5184 17.7786 21.7264C17.2878 21.9336 16.7742 22.2139 16.3022 22.5003C15.8318 22.7858 15.4115 23.0722 15.1084 23.2875C14.9941 23.3688 14.8968 23.4397 14.8201 23.4963V23.7794L14.3049 23.7637C12.9248 23.7215 12.1769 24.0734 11.7666 24.5155C11.3477 24.9669 11.1868 25.6123 11.1969 26.3487C11.207 27.0809 11.3863 27.8351 11.5708 28.4188C11.6622 28.7078 11.7529 28.9489 11.8202 29.1168C11.8539 29.2006 11.8816 29.2658 11.9005 29.3093C11.91 29.331 11.9173 29.3473 11.922 29.3577L11.927 29.3689L11.928 29.371L11.928 29.3711L11.9281 29.3712L11.9282 29.3713L11.9817 29.4864L11.9736 29.6134L11.7969 32.4137L11.7777 32.7179L11.4985 32.8402C11.0873 33.0204 10.6341 33.4057 10.1723 33.935C9.71726 34.4564 9.28586 35.0801 8.91029 35.6878C8.53574 36.2938 8.22272 36.8739 8.00315 37.3032C7.89352 37.5175 7.80758 37.6934 7.74932 37.8152C7.72019 37.8761 7.69801 37.9233 7.68326 37.9551L7.66678 37.9907L7.6642 37.9964C7.23795 39.0023 6.14026 40.6666 5.18253 42.0405C4.69614 42.7383 4.23519 43.3761 3.89596 43.8392C3.72628 44.0709 3.58691 44.2591 3.48984 44.3895C3.4413 44.4548 3.40333 44.5055 3.37743 44.5401L3.34781 44.5796L3.34014 44.5898L3.33815 44.5924L3.33763 44.5931L3.33748 44.5933C3.33744 44.5934 3.33742 44.5934 2.93817 44.2925L3.33742 44.5934L3.33303 44.5992L3.32848 44.6049C2.77982 45.2904 2.15245 46.3823 1.65225 47.3286C1.40483 47.7967 1.19311 48.2203 1.04326 48.5269C0.968387 48.6801 0.909074 48.8038 0.868604 48.889C0.858251 48.9108 0.849134 48.93 0.841306 48.9466L0.526305 51.7608L1.37066 52.4858L3.00571 52.7373L3.13095 52.7566L3.23189 52.8332C3.24027 52.8395 3.24843 52.8456 3.25637 52.8515C3.25628 52.8501 3.25618 52.8487 3.25608 52.8473C3.25277 52.7998 3.24782 52.7583 3.24376 52.7291C3.24274 52.7219 3.2418 52.7155 3.24097 52.71C3.24016 52.7048 3.23947 52.7004 3.23893 52.6972L3.23798 52.6915L3.23793 52.6912L3.23788 52.6909L3.23782 52.6907L3.23781 52.6905L3.23773 52.6901L3.19537 52.4633L3.22918 52.4219C3.1985 52.4112 3.16671 52.4016 3.13545 52.3931C3.09975 52.3834 3.06929 52.3764 3.04858 52.3721C3.04009 52.3703 3.03341 52.369 3.02888 52.3681L3.02632 52.3676L3.0238 52.3671L3.02354 52.3671L3.0233 52.367L3.0229 52.367L3.02234 52.3669L2.744 52.3202L2.64077 52.056L2.46398 51.6034L2.07365 50.6043L2.89495 50.882C2.89874 50.8676 2.90245 50.8524 2.90607 50.8364C2.93157 50.7235 2.94573 50.5986 2.95307 50.4961C2.95665 50.4462 2.95841 50.4045 2.95928 50.376C2.95958 50.366 2.95977 50.3577 2.95989 50.3514C2.95994 50.3487 2.95997 50.3463 2.96 50.3443L2.96008 50.3374L2.96008 50.3372C2.96008 50.3371 2.96008 50.3371 2.96008 50.337M24.9348 7.77005L3.46008 50.3372C2.96008 50.3372 2.96008 50.3371 2.96008 50.337M24.9348 7.77005L24.9354 7.77602C24.9645 8.06068 25.0715 8.40116 25.4195 8.54573C25.5632 8.6054 25.6985 8.60661 25.7814 8.60236C25.7941 8.60171 25.8079 8.60071 25.8219 8.5995C25.8239 8.6316 25.8252 8.66998 25.8252 8.71551V9.49141L26.5288 9.17215L26.5292 9.17197L26.5293 9.17196L26.534 9.16999C26.54 9.16751 26.5508 9.16317 26.5657 9.15771C26.5958 9.14667 26.6406 9.13179 26.6944 9.11843C26.809 9.08995 26.9302 9.0769 27.0293 9.09402C27.1129 9.10844 27.1715 9.14046 27.2205 9.21562C27.2804 9.30739 27.3596 9.51754 27.341 9.95795L27.3165 10.537L27.8765 10.4781C27.8791 10.4783 27.8826 10.4786 27.8867 10.4794C27.9032 10.4823 27.9088 10.4869 27.9094 10.4874C27.9094 10.4874 27.9138 10.4909 27.9203 10.5032C27.9271 10.5161 27.9391 10.544 27.9476 10.5949C27.9653 10.7004 27.9661 10.8936 27.8858 11.2156L27.8733 11.2655L27.8713 11.3169L27.7787 13.6648L27.7762 13.7284L27.7895 13.7899L27.7896 13.79L27.7896 13.7901L27.7896 13.7903L27.7897 13.7906L27.7901 13.7928L27.7932 13.8082C27.7961 13.8227 27.8004 13.8455 27.8055 13.8756C27.8159 13.9358 27.8296 14.0246 27.8422 14.1341C27.8675 14.3549 27.8868 14.6512 27.8667 14.9628C27.8241 15.6218 27.6217 16.1647 27.1608 16.397L27.0055 16.4753L26.9323 16.6331L27.3859 16.8435C26.9323 16.6331 26.9323 16.6332 26.9322 16.6333L26.932 16.6337L26.9316 16.6345L26.9305 16.6371L26.9268 16.6452L26.914 16.6737C26.9033 16.6979 26.8883 16.7324 26.8699 16.7762C26.8333 16.8636 26.7832 16.9881 26.7278 17.1404C26.6176 17.4434 26.4834 17.8642 26.3932 18.3261C26.3038 18.7839 26.2523 19.3084 26.3266 19.8091C26.4016 20.315 26.6112 20.8295 27.0712 21.2021L27.144 21.2611L27.2333 21.2897L27.2333 21.2897L27.2336 21.2898L27.2352 21.2903L27.2418 21.2924L27.2691 21.3013C27.2934 21.3092 27.3297 21.3212 27.3766 21.3368C27.4704 21.3681 27.607 21.4142 27.7764 21.4733C28.1155 21.5916 28.5849 21.7614 29.1061 21.967C30.1551 22.3809 31.371 22.9238 32.1664 23.4708L32.1942 23.4922C32.2197 23.5117 32.2561 23.5393 32.3019 23.573C32.3932 23.6403 32.5223 23.7327 32.6752 23.8341C32.9748 24.033 33.3899 24.2833 33.7994 24.4396L33.8442 24.4568L33.8776 24.4626C33.8828 24.4642 33.8926 24.4673 33.9065 24.4728C33.9431 24.487 34.0092 24.5173 34.0957 24.5763C34.2666 24.6928 34.5308 24.931 34.8021 25.4061C35.3496 26.365 35.9263 28.2908 35.7932 32.083L35.7902 32.1674L35.8152 32.2481L36.2929 32.1005C35.8152 32.2481 35.8152 32.2482 35.8152 32.2482L35.8152 32.2484L35.8153 32.2488L35.8157 32.25L35.8171 32.2544L35.8221 32.2703L35.8409 32.3293C35.8572 32.3801 35.8811 32.4533 35.9117 32.5438C35.9727 32.7248 36.0606 32.9765 36.1686 33.2602C36.379 33.8128 36.6769 34.5175 37.011 35.0541C37.015 35.062 37.0205 35.0731 37.0274 35.0871C37.0443 35.1218 37.0692 35.1744 37.0993 35.2425C37.1597 35.3789 37.2399 35.5752 37.3175 35.8108C37.475 36.289 37.6104 36.8957 37.5704 37.4792L37.5485 37.7983L37.8215 37.9479C37.8236 37.9492 37.8271 37.9515 37.8319 37.9549C37.8468 37.9653 37.8741 37.9857 37.9093 38.0176C37.9793 38.0812 38.0815 38.1913 38.181 38.3625C38.3762 38.6982 38.5845 39.309 38.4649 40.3417L38.463 40.3576L38.4622 40.3736L38.9615 40.3992L38.4622 40.3736L38.4622 40.3737L38.4622 40.374L38.4621 40.3751L38.4619 40.3793L38.4611 40.3951L38.4583 40.4549C38.4559 40.5065 38.4526 40.5807 38.4489 40.672C38.4416 40.8544 38.4328 41.1055 38.4269 41.38C38.4155 41.9152 38.4138 42.584 38.4656 42.9897L38.4716 43.0371L38.4825 43.0703C38.4833 43.0739 38.4844 43.08 38.4856 43.0884C38.4891 43.1143 38.4927 43.1608 38.4863 43.2228C38.4741 43.3411 38.4233 43.5385 38.225 43.7746L38.2242 43.7756L37.2653 44.9241C37.2622 44.927 37.2585 44.9304 37.2542 44.9342C37.2346 44.9518 37.2039 44.978 37.1644 45.008C37.083 45.0696 36.9761 45.1379 36.8599 45.1837C36.7439 45.2294 36.6402 45.2443 36.5504 45.2297C36.4699 45.2166 36.3592 45.1736 36.2282 45.0268L36.2043 45L36.1768 44.977L31.9928 41.4594L31.4867 41.0339L31.2151 41.6368L31.671 41.8421C31.2151 41.6368 31.215 41.637 31.2149 41.6372L31.2147 41.6377L31.2142 41.6389L31.2127 41.6422L31.2083 41.6522L31.1939 41.6862C31.1818 41.715 31.1652 41.7561 31.1447 41.8092C31.1039 41.9154 31.0481 42.0699 30.9845 42.271C30.8573 42.6732 30.6989 43.262 30.5669 44.0247C30.3029 45.5507 30.1452 47.7703 30.5532 50.5798L30.5559 50.5986L30.56 50.617L30.5601 50.617L30.5601 50.6172L30.5601 50.6174L30.5607 50.62L30.5634 50.6326L30.5747 50.6865C30.5847 50.735 30.5993 50.8085 30.6174 50.9056C30.6535 51.0997 30.7032 51.3881 30.7565 51.7596C30.8631 52.5027 30.9839 53.5776 31.0388 54.8959C31.1489 57.5342 30.9948 61.1368 29.9426 65.0019L29.9355 65.0279L29.9313 65.0545L29.9313 65.0545L29.9312 65.0547L29.931 65.056L29.9302 65.0615L29.9264 65.0843L29.9112 65.1755C29.8975 65.256 29.8769 65.3748 29.8494 65.5266C29.7943 65.8304 29.7116 66.266 29.6011 66.7912C29.38 67.8428 29.0489 69.2483 28.6088 70.6716L28.5392 70.8967L28.6681 71.093L28.6682 71.0932L28.6683 71.0934L28.6683 71.0934L28.6685 71.0937L28.6705 71.0968L28.6819 71.1148C28.6923 71.1317 28.7084 71.1579 28.7289 71.1927C28.77 71.2625 28.8284 71.3661 28.8945 71.4966C29.0276 71.7591 29.1886 72.1232 29.3052 72.5351C29.5434 73.376 29.5684 74.2992 28.9716 75.0159L28.8432 75.1702L28.857 75.3695L28.857 75.3698L28.8571 75.37L28.8571 75.3701L28.8571 75.3704L28.8573 75.375L28.8586 75.4009C28.8596 75.4251 28.8608 75.4628 28.8614 75.5128C28.8626 75.6127 28.8611 75.7611 28.8502 75.9472C28.8282 76.3202 28.7684 76.84 28.6172 77.4226C28.3146 78.5891 27.6545 79.9787 26.2255 80.9697L26.2086 80.9814L26.1937 80.9937L26.1934 80.9939L26.1931 80.9941L26.1928 80.9944L26.1894 80.9971L26.1686 81.0134C26.1492 81.0283 26.1192 81.0508 26.0803 81.0784C26.0021 81.1339 25.8902 81.2081 25.7574 81.2819C25.4783 81.437 25.1654 81.5572 24.8982 81.5572C24.7736 81.5572 24.6694 81.5311 24.5795 81.4782C24.4904 81.4258 24.3864 81.3301 24.2878 81.1453C24.0812 80.7579 23.9216 80.0219 23.9875 78.699L24.0017 78.4125L23.7697 78.2609C23.7694 78.2607 23.769 78.2604 23.7686 78.2601C23.7651 78.2575 23.7577 78.2517 23.7467 78.2424C23.7221 78.2215 23.6794 78.1825 23.6245 78.1215C23.5151 77.9999 23.3548 77.788 23.1917 77.4523C22.8658 76.7818 22.5203 75.6001 22.5652 73.6311L22.5654 73.6214L22.5653 73.6116L22.0653 73.6197C22.5653 73.6116 22.5653 73.6115 22.5653 73.6115L22.5653 73.6112L22.5652 73.6104L22.5652 73.607L22.565 73.5944L22.564 73.5456C22.5632 73.503 22.5619 73.4404 22.56 73.3604C22.5562 73.2004 22.5501 72.9704 22.5409 72.6894C22.5223 72.1278 22.4911 71.3613 22.4402 70.5428C22.3893 69.7255 22.3186 68.8509 22.2204 68.0749C22.1267 67.3345 22.0032 66.64 21.8316 66.1723L21.4859 64.4944L21.2722 63.4576L20.6073 64.281L20.6073 64.281L20.6072 64.2811L20.6071 64.2812L20.6061 64.2824L20.6005 64.2892L20.576 64.3188C20.5539 64.3453 20.5202 64.385 20.4759 64.4359C20.3872 64.5378 20.2563 64.684 20.0898 64.8579C19.7559 65.2068 19.2837 65.6629 18.7273 66.0962L18.6414 66.1632L18.5911 66.2599L18.5911 66.2599L18.591 66.2601L18.5906 66.2609L18.5889 66.264L18.5823 66.2768L18.5564 66.3262C18.5339 66.3692 18.5012 66.4315 18.4605 66.5087C18.379 66.663 18.2659 66.8761 18.1389 67.1113C17.8829 67.5857 17.578 68.1366 17.3641 68.4805L17.3012 68.5817L17.2906 68.7003L24.9348 7.77005ZM2.96008 50.337C2.96013 49.5857 3.24703 48.8913 3.5088 48.4084C3.64223 48.1623 3.77545 47.9596 3.87589 47.8177C3.92626 47.7465 3.96878 47.69 3.9995 47.6503C4.00804 47.6393 4.01568 47.6296 4.02233 47.6212C4.02766 47.6145 4.03235 47.6086 4.03637 47.6036L4.04733 47.5901L4.05079 47.5859L4.05199 47.5845L4.05246 47.5839L4.05266 47.5837C4.05275 47.5836 4.05284 47.5835 4.43665 47.9039M2.96008 50.337L4.43665 47.9039M4.43665 47.9039L4.05284 47.5835L4.07489 47.5571L4.10035 47.5339C4.42013 47.2433 4.57318 46.7944 4.63383 46.3571C4.66314 46.1458 4.6683 45.9549 4.66599 45.8172C4.66484 45.7488 4.66187 45.6946 4.65935 45.659C4.65809 45.6412 4.65694 45.6281 4.6562 45.6203L4.65552 45.6132L4.65548 45.6129L4.65546 45.6126L4.65544 45.6126L4.65541 45.6122L4.65536 45.6118L4.63608 45.4442L4.72369 45.2985C4.89581 45.0121 5.20728 44.68 5.53466 44.3661C5.87274 44.0419 6.26696 43.7007 6.63879 43.3922C7.01152 43.0829 7.36649 42.8027 7.62798 42.6C7.75885 42.4985 7.86662 42.4162 7.94187 42.3591L8.02925 42.2931L8.05249 42.2757L8.05861 42.2711L8.06025 42.2699L8.06071 42.2695L8.06085 42.2694L8.35975 42.6703L8.06093 42.2694L8.08842 42.2489L8.11845 42.2323C8.59266 41.9711 9.21026 41.4617 9.88916 40.8105C10.56 40.1671 11.262 39.4133 11.9023 38.6909C12.5419 37.9692 13.1158 37.2834 13.53 36.7777C13.737 36.525 13.9039 36.3176 14.0188 36.1737C14.0762 36.1017 14.1207 36.0456 14.1506 36.0076L14.1845 35.9646L14.193 35.9538L14.1951 35.9512L14.1955 35.9506L14.1956 35.9505L14.5896 36.2584L14.1956 35.9504L15.2179 34.6429L15.088 36.2975L14.6418 41.9837L14.6323 42.1054L14.5677 42.209C14.347 42.5633 14.1668 43.1045 14.029 43.7588C13.8932 44.4034 13.8068 45.1168 13.7525 45.7874C13.6983 46.4566 13.6769 47.0744 13.669 47.5254C13.665 47.7506 13.6645 47.9336 13.6649 48.0597C13.6651 48.1228 13.6656 48.1716 13.666 48.2043L13.6665 48.2411L13.6667 48.2501L13.6667 48.2521L13.6667 48.2525L13.6667 48.2525L13.6708 48.4555L13.5322 48.6038C13.2388 48.9179 12.9805 49.4855 12.7726 50.2368C12.5691 50.9721 12.4308 51.8184 12.3376 52.6291C12.2447 53.4375 12.198 54.198 12.1747 54.7571C12.163 55.0364 12.1572 55.2646 12.1543 55.4224C12.1529 55.5013 12.1522 55.5626 12.1518 55.6038L12.1515 55.6502L12.1515 55.6616L12.1514 55.6642L12.1514 55.6648V55.6648V55.7349L12.1321 55.8024C11.4406 58.2177 11.491 59.9447 11.6978 61.0475C11.8013 61.6002 11.9449 62.0004 12.0578 62.2558C12.1144 62.3836 12.1633 62.4754 12.1959 62.5322C12.2122 62.5606 12.2244 62.5803 12.2315 62.5913L12.2374 62.6003L12.2379 62.601L12.238 62.6013C12.2384 62.6019 12.2385 62.6019 12.2381 62.6014L12.2858 62.6686L12.3093 62.7515C12.6829 64.0709 12.7969 65.4255 12.8195 66.4411C12.8309 66.951 12.8193 67.3801 12.8048 67.683C12.7975 67.8345 12.7895 67.9547 12.7832 68.0379C12.78 68.0795 12.7773 68.1118 12.7753 68.1342L12.773 68.1603L12.7723 68.1676L12.7721 68.1698L12.772 68.1705L12.772 68.1707C12.772 68.1708 12.772 68.1709 12.2744 68.1214L12.772 68.1709L12.7594 68.2969L12.6885 68.4017C12.2813 69.0033 12.153 69.8104 12.143 70.518C12.1381 70.864 12.1616 71.1691 12.1864 71.3871C12.1987 71.4958 12.2113 71.582 12.2205 71.6398C12.2251 71.6686 12.2289 71.6904 12.2314 71.7042L12.2341 71.7189L12.2345 71.7212L12.2346 71.7214L12.2346 71.7216L12.2346 71.7218L12.2491 71.7947L12.2414 71.8692C12.1874 72.3976 11.9391 73.1112 11.7289 73.6499C11.6202 73.9287 11.5146 74.1778 11.4363 74.3572C11.3971 74.447 11.3646 74.5196 11.3417 74.5701L11.315 74.6287L11.3077 74.6445L11.3057 74.6488L11.3051 74.65L11.305 74.6504L11.3049 74.6505L10.8517 74.4394M4.43665 47.9039L10.8517 74.4394M13.6568 96.0355L13.5937 95.7689L13.7846 95.5722C13.8509 95.5039 13.8961 95.3223 13.8106 94.9778C13.7741 94.8306 13.7229 94.6932 13.6795 94.5908C13.6581 94.5404 13.6393 94.5001 13.6264 94.4735C13.62 94.4602 13.6151 94.4505 13.6121 94.4446L13.6094 94.4394L13.6093 94.4392L13.6092 94.439L13.6092 94.4389L13.609 94.4386L13.6089 94.4383L13.5869 94.397L13.5728 94.3512C13.3729 93.7005 13.3034 92.9498 13.2807 92.3823C13.2692 92.0944 13.2695 91.8449 13.2726 91.6669C13.2742 91.5778 13.2765 91.5063 13.2785 91.4564C13.2795 91.4314 13.2803 91.4119 13.281 91.3982L13.2818 91.3822L13.2821 91.3777L13.2821 91.3763L13.2822 91.3758L13.2822 91.3756C13.2822 91.3755 13.2822 91.3754 13.7814 91.4039L13.6568 96.0355ZM13.6568 96.0355L13.6568 96.0356L13.6568 96.0358L13.6573 96.0375L13.6592 96.0458L13.6671 96.0807C13.6741 96.1118 13.6843 96.1583 13.6969 96.2181C13.722 96.3377 13.7564 96.5099 13.7929 96.7181C13.8663 97.1362 13.9467 97.6913 13.9788 98.2521C14.0115 98.8215 13.9918 99.3576 13.8871 99.7552C13.7795 100.164 13.6281 100.28 13.5036 100.308L13.3239 100.348L13.2445 100.454C13.2209 100.469 13.1702 100.497 13.0803 100.533C12.858 100.623 12.4163 100.75 11.5988 100.836L11.5044 100.846L13.6568 96.0355ZM10.8517 93.4872L11.3509 93.46L11.3832 94.053L10.8634 93.992C10.855 94.0049 10.8447 94.0224 10.8327 94.0456C10.7573 94.1901 10.6925 94.4239 10.645 94.7082C10.5992 94.9828 10.5756 95.2652 10.5636 95.4824C10.5577 95.5901 10.5548 95.6798 10.5533 95.742C10.5526 95.7731 10.5522 95.7972 10.552 95.8131L10.5519 95.8307L10.5519 95.8346L10.5519 95.8351V95.8352L10.5519 95.8353L10.8517 93.4872ZM10.8517 93.4872C11.3509 93.46 11.3509 93.46 11.3509 93.4599L11.3509 93.4595L11.3508 93.4582L11.3505 93.4529L11.3494 93.4318L11.3449 93.3497L11.3276 93.0356C11.3125 92.7639 11.2908 92.373 11.2638 91.896C11.2098 90.942 11.1351 89.6436 11.0519 88.2661C10.8859 85.5175 10.6853 82.4346 10.5491 81.1568L10.5452 81.1205L10.8517 93.4872ZM10.8517 74.4394L11.3049 74.6506L11.2855 74.6922L11.2588 74.7297C10.4177 75.9092 10.2181 77.4703 10.2508 78.7952C10.2669 79.4492 10.3391 80.026 10.4073 80.439C10.4414 80.6452 10.4743 80.8095 10.4983 80.921C10.5104 80.9767 10.5202 81.0192 10.5268 81.047L10.5342 81.0776L10.5359 81.0843L10.5361 81.0851M10.8517 74.4394L10.5361 81.0851M10.5361 81.0853L10.5362 81.0854L10.5361 81.0853ZM10.5361 81.0853L10.5361 81.0851M10.5361 81.0853L10.5361 81.0851M3.24264 53.1073C3.24264 53.1073 3.24282 53.1068 3.24322 53.1058L3.24264 53.1073ZM11.4206 100.89L11.4205 100.89L11.4203 100.89L11.4198 100.89L11.4147 100.893L11.3912 100.905C11.3698 100.915 11.3374 100.931 11.2955 100.951C11.2115 100.991 11.0899 101.046 10.943 101.107C10.6457 101.229 10.259 101.366 9.87476 101.442C9.47684 101.52 9.15203 101.52 8.93709 101.438C8.83945 101.401 8.76988 101.35 8.71809 101.282C8.66521 101.213 8.61082 101.1 8.58618 100.91L8.5829 100.885L8.57742 100.862L8.57733 100.861L8.57721 100.861L8.57714 100.861L8.57705 100.86L8.57453 100.848C8.5721 100.837 8.56831 100.817 8.56384 100.792C8.55488 100.74 8.54335 100.663 8.53448 100.569C8.5165 100.377 8.51071 100.127 8.55227 99.8717C8.59392 99.616 8.67939 99.3782 8.8265 99.1884C8.96744 99.0066 9.18519 98.8418 9.54657 98.7543L9.90697 98.667L9.92808 98.2971L9.92808 98.297L9.92809 98.297L9.9281 98.2968L9.92824 98.2945L9.92896 98.2833C9.92966 98.2729 9.93079 98.2569 9.93242 98.2358C9.9357 98.1935 9.94102 98.1312 9.94903 98.0534C9.9651 97.8974 9.99175 97.6816 10.0339 97.4427C10.1219 96.9442 10.2647 96.4232 10.4704 96.1087L10.5519 95.984L11.4206 100.89ZM10.8898 93.9588C10.8898 93.9594 10.8872 93.9624 10.882 93.9661C10.8871 93.9602 10.8897 93.9583 10.8898 93.9588ZM26.0066 8.58039C26.0065 8.58048 26.0042 8.58056 26.0001 8.5803C26.0047 8.58016 26.0067 8.58029 26.0066 8.58039Z" stroke="url(#paint0_linear_735_6106)"/>
<defs>
<linearGradient id="paint0_linear_735_6106" x1="-2.97036e-08" y1="20.3704" x2="28.8805" y2="22.2911" gradientUnits="userSpaceOnUse">
<stop stop-color="#323232"/>
<stop offset="1" stop-color="#F3F3F3"/>
</linearGradient>
</defs>
</svg>
