<svg width="112" height="110" viewBox="0 0 112 110" fill="none" xmlns="http://www.w3.org/2000/svg">
<path d="M1.04788 74.9727C1.01722 75.0059 0.988837 75.0445 0.962418 75.0892C0.815107 75.3382 0.749528 75.7422 0.76395 76.2442C0.7779 76.7299 0.863769 77.2332 0.949206 77.6225C0.991539 77.8154 1.03291 77.9764 1.06347 78.0885C1.07873 78.1445 1.09125 78.1881 1.09976 78.2171L1.10731 78.2424C1.51805 79.2934 1.43838 80.422 1.27655 81.2528C1.19397 81.6768 1.087 82.0382 1.00046 82.2944C0.957084 82.4228 0.918569 82.5255 0.890364 82.5974C0.876758 82.6321 0.865528 82.6597 0.857281 82.6795C0.21335 85.0382 0.550965 86.5536 0.999217 87.4593C1.22704 87.9196 1.49053 88.237 1.69137 88.436C1.79187 88.5355 1.87657 88.6054 1.93295 88.6483C1.96112 88.6698 1.98214 88.6845 1.99442 88.6928L2.00389 88.6992L2.00445 88.6995L2.00538 88.7001L2.00586 88.7004L2.00604 88.7005L2.00653 88.7008L2.05524 88.7303L2.09816 88.7732C2.47802 89.1535 2.76965 89.3516 2.98104 89.4406C3.18105 89.5248 3.27976 89.5011 3.32906 89.4795C3.39325 89.4512 3.4851 89.3756 3.58411 89.1922C3.68192 89.011 3.76433 88.765 3.82879 88.4687C3.95756 87.8769 3.99608 87.1745 4.00003 86.6047C4.00199 86.3229 3.99549 86.08 3.98853 85.908C3.98505 85.8221 3.98146 85.7541 3.97879 85.7082L3.97559 85.6563L3.97474 85.6437L3.97454 85.641L3.97452 85.6406L3.97451 85.6405C3.97451 85.6405 3.97452 85.6406 4.47318 85.6041L1.04788 74.9727ZM1.04788 74.9727L1.8525 74.7943L1.04788 74.9727ZM33.667 74.6261C33.37 75.3546 33.0204 75.8581 32.6311 76.1818C32.2325 76.5132 31.8134 76.6378 31.428 76.6378C31.0543 76.6378 30.7396 76.5212 30.5272 76.4138C30.4193 76.3593 30.3325 76.3045 30.2709 76.262C30.24 76.2406 30.2151 76.2221 30.1967 76.2079C30.1874 76.2008 30.1798 76.1947 30.1738 76.1899L30.1661 76.1836L30.1632 76.1811L30.1619 76.1801L30.1614 76.1797L33.667 74.6261ZM33.667 74.6261C33.6673 74.6255 33.6675 74.6248 33.6678 74.6242L37.6342 65.0793L37.7218 64.8683L37.6221 64.6687C37.6221 64.6688 37.6217 64.6678 37.6216 64.6676C37.6214 64.6673 37.6209 64.6664 37.6207 64.6659C37.6206 64.6656 37.6207 64.6658 37.6206 64.6655C37.6185 64.6607 37.6142 64.6508 37.6083 64.6361C37.5967 64.6066 37.5791 64.5581 37.5609 64.493C37.5245 64.3624 37.4862 64.1673 37.4862 63.925C37.4862 63.4508 37.6323 62.7609 38.2967 61.9874L38.3657 61.9069L38.3962 61.8054L37.9173 61.6616C38.3962 61.8054 38.3963 61.8053 38.3963 61.8051L38.3964 61.8047L38.3967 61.8038L38.3975 61.8012L38.3998 61.7933L38.4072 61.7669C38.4134 61.7447 38.4219 61.7132 38.4321 61.6731C38.4524 61.5929 38.4795 61.478 38.5085 61.3334C38.5663 61.0445 38.6317 60.635 38.6642 60.1446C38.7291 59.1674 38.6651 57.8465 38.1305 56.5149L38.1178 56.4833L38.1024 56.4563L38.102 56.4554L38.1018 56.4552L38.1015 56.4547L38.1013 56.4542L38.095 56.4422C38.0881 56.4288 38.0768 56.406 38.0622 56.3744C38.0332 56.3109 37.9916 56.212 37.9474 56.0809C37.8591 55.8184 37.7614 55.4287 37.7334 54.9372C37.678 53.9631 37.8941 52.5563 39.0618 50.9126C39.6787 50.0489 40.0071 49.5692 40.1458 49.342C40.1785 49.2884 40.2141 49.2273 40.2387 49.1714C40.2421 49.1634 40.2851 49.0736 40.2882 48.9598C40.2895 48.9092 40.2877 48.701 40.0979 48.5502C39.9724 48.4504 39.8411 48.436 39.7499 48.4424C39.7518 48.4349 39.7536 48.4274 39.7555 48.4199C39.9856 47.4957 40.2355 46.3643 40.2621 45.6579C40.2735 45.6344 40.2871 45.6066 40.3029 45.5749C40.3603 45.4598 40.4462 45.2926 40.5588 45.0882C40.7843 44.6787 41.1147 44.1231 41.534 43.5388C42.3872 42.3499 43.5487 41.1272 44.8792 40.681L45.0171 40.6347L45.1087 40.5217L52.5424 31.3464L52.7251 31.1209L52.62 30.8505L52.1539 31.0316C52.62 30.8505 52.6197 30.8498 52.6194 30.8491L52.6189 30.8477L52.6177 30.8447L52.615 30.8381L52.6083 30.8226C52.6032 30.8112 52.597 30.7978 52.5893 30.7825C52.574 30.7519 52.5531 30.7137 52.5251 30.6689C52.4691 30.5792 52.3852 30.4635 52.2618 30.3285C52.0149 30.0584 51.6123 29.7135 50.9621 29.3429C49.6684 28.6054 47.3794 27.7572 43.3348 27.1928L43.2749 27.1774C43.2179 27.1626 43.1337 27.1408 43.0256 27.1124C42.8095 27.0555 42.4979 26.9726 42.1174 26.8684C41.356 26.66 40.3198 26.3669 39.2189 26.028C38.1169 25.6887 36.9557 25.3052 35.9426 24.9161C34.9169 24.5221 34.0856 24.1382 33.6144 23.8062L33.5718 23.7762L33.524 23.7556L33.3264 24.2149C33.524 23.7556 33.5238 23.7555 33.5236 23.7554L33.5232 23.7553L33.5222 23.7548L33.5195 23.7537L33.5113 23.7502L33.4838 23.739C33.4607 23.7297 33.4281 23.7169 33.3871 23.7015C33.3051 23.6709 33.1886 23.6301 33.0457 23.5868C32.7616 23.5007 32.3644 23.4027 31.92 23.3596C31.0495 23.2753 29.8675 23.3944 29.0914 24.4048L29.0753 24.4257L29.0624 24.4468L29.0622 24.4472L29.062 24.4475L29.0619 24.4476L29.0617 24.4479L29.0615 24.4482L29.0572 24.4549C29.0523 24.4624 29.0443 24.4746 29.0334 24.4904C29.0113 24.5221 28.9787 24.5669 28.9381 24.6161C28.8505 24.7222 28.7529 24.8161 28.6671 24.8653C28.6407 24.8805 28.6229 24.887 28.6133 24.8897C28.5843 24.8693 28.4738 24.7713 28.347 24.4186L28.261 24.179L28.0175 24.108L28.0174 24.1079L28.0172 24.1079L28.0169 24.1078L28.0166 24.1077L28.0141 24.1069L27.996 24.1012C27.979 24.0958 27.9525 24.0871 27.9183 24.075C27.8498 24.0507 27.7512 24.0133 27.6362 23.9622C27.4023 23.8584 27.1192 23.7065 26.8818 23.5074C26.6427 23.307 26.4841 23.0881 26.4301 22.8542C26.3809 22.6415 26.4005 22.34 26.663 21.9191L27.9698 20.5042C28.068 20.5071 28.1974 20.5121 28.3531 20.5206C28.7358 20.5413 29.2764 20.5828 29.904 20.6659C31.1663 20.8331 32.7493 21.1645 34.1065 21.813L34.1755 21.846L34.2511 21.8568L34.3221 21.3619L34.2511 21.8568L34.2512 21.8568L34.2515 21.8569L34.2529 21.8571L34.2584 21.8578L34.2803 21.861L34.3656 21.8734C34.4401 21.8843 34.549 21.9002 34.6859 21.9205C34.9596 21.9612 35.3454 22.0192 35.7929 22.0889C36.689 22.2284 37.8289 22.4139 38.8131 22.5988L38.8479 22.6054L38.8828 22.6069L38.8829 22.6069L38.883 22.6069L38.8832 22.6069L38.8833 22.6069L38.8873 22.6072L38.9066 22.6082C38.9243 22.6093 38.9517 22.6111 38.9877 22.6139C39.0599 22.6194 39.1669 22.6289 39.3013 22.6445C39.5707 22.6758 39.9482 22.7312 40.377 22.8274C41.2454 23.0222 42.2763 23.3738 43.0572 23.9909L43.1514 24.0654L43.2692 24.0889L43.3672 23.5986C43.2692 24.0889 43.2693 24.0889 43.2693 24.089L43.2696 24.089L43.2707 24.0892L43.2747 24.09L43.29 24.0931L43.3491 24.1046C43.4008 24.1147 43.4768 24.1294 43.5749 24.1479C43.7709 24.1851 44.055 24.2377 44.4084 24.3C45.1151 24.4246 46.1002 24.5883 47.2143 24.7443C49.4318 25.0548 52.1988 25.341 54.2967 25.2161L54.3323 25.214L54.3662 25.207L54.3665 25.207L54.3668 25.2069L54.3669 25.2069L54.3672 25.2068L54.3735 25.2057C54.38 25.2044 54.391 25.2024 54.4062 25.1998C54.4366 25.1946 54.4836 25.1871 54.5456 25.1788C54.6697 25.1621 54.8528 25.1423 55.0807 25.1316C55.538 25.1099 56.1681 25.1249 56.8604 25.2692C58.234 25.5556 59.8508 26.3474 60.881 28.4097L60.9082 28.4641L60.9476 28.5104L61.3283 28.1863C60.9476 28.5104 60.9477 28.5105 60.9478 28.5106L60.948 28.5109L60.9487 28.5117L60.9509 28.5143L60.9583 28.5229L60.985 28.5535C61.008 28.5796 61.041 28.6167 61.083 28.6626C61.1668 28.7544 61.2866 28.8819 61.4327 29.0271C61.7219 29.3145 62.1267 29.6838 62.5663 29.9799C62.9856 30.2623 63.5269 30.5412 64.0683 30.5152C64.359 30.5012 64.6437 30.3992 64.8853 30.1809C65.1194 29.9694 65.2833 29.6758 65.3931 29.3245L65.4249 29.2228L65.4126 29.1175L65.4125 29.1174L65.4125 29.1171L65.4122 29.1142L65.4106 29.0996C65.4102 29.0951 65.4096 29.0897 65.409 29.0836C65.4078 29.0712 65.4063 29.0555 65.4046 29.0368C65.3996 28.9805 65.393 28.8964 65.3869 28.7891C65.3748 28.5741 65.3652 28.2674 65.3754 27.9053C65.3962 27.1753 65.4973 26.2462 65.8052 25.3937C66.1125 24.5428 66.6095 23.8103 67.3974 23.3939C68.1824 22.979 69.3476 22.8296 71.0937 23.3334L71.1033 23.3362L71.1126 23.3385L71.1127 23.3385L71.113 23.3386L71.1147 23.339L71.1256 23.3418C71.1359 23.3445 71.152 23.3487 71.1737 23.3546C71.217 23.3665 71.2822 23.385 71.3659 23.4107C71.5334 23.4621 71.7741 23.5419 72.0609 23.654C72.6369 23.879 73.3877 24.2297 74.1035 24.7339C75.5025 25.7195 76.7123 27.2396 76.3369 29.559C76.3048 29.5929 76.2657 29.6338 76.2205 29.6804C76.0854 29.8198 75.8984 30.0074 75.6898 30.2016C75.4801 30.3967 75.2545 30.5929 75.0418 30.7523C74.8192 30.919 74.6483 31.0165 74.543 31.0509L74.0857 31.2004L74.2172 31.6622L74.2172 31.6624L74.2173 31.6627L74.2174 31.6629L74.2175 31.6632L74.2176 31.6637L74.2202 31.6733C74.2227 31.6827 74.2265 31.6976 74.2312 31.7173C74.2407 31.7569 74.2536 31.8147 74.2661 31.884C74.2919 32.0268 74.3128 32.2008 74.307 32.3601C74.3007 32.5329 74.2655 32.614 74.2478 32.6374C74.2475 32.6378 74.2472 32.6382 74.2469 32.6386C74.2411 32.6406 74.2098 32.65 74.1372 32.6421L73.835 32.6089L73.6665 32.8619L72.9216 33.9803L72.8584 34.0752L72.8431 34.1846L72.843 34.1854L72.8429 34.1858L72.8428 34.1868L72.8427 34.1874L72.8427 34.1877L72.8426 34.1881L72.8406 34.1984C72.838 34.2117 72.8335 34.2325 72.8266 34.2576C72.8119 34.3116 72.7912 34.3673 72.7667 34.4095C72.7663 34.4103 72.7658 34.4111 72.7653 34.4119L72.4547 34.2906L72.224 34.5438L72.2237 34.5441L72.2235 34.5443L72.2233 34.5446L72.2206 34.5475L72.2037 34.5651C72.1879 34.5815 72.1632 34.6066 72.1303 34.6383C72.0645 34.7018 71.9673 34.7911 71.8452 34.8898C71.5973 35.0903 71.2653 35.3149 70.9008 35.4517C70.5389 35.5875 70.1765 35.626 69.8322 35.5066C69.4913 35.3884 69.0883 35.0876 68.6969 34.3865L68.4451 33.9355L68.0025 34.2019L66.7636 34.9474L66.183 35.2968L66.688 35.7485L67.0214 35.3759C66.688 35.7485 66.6881 35.7486 66.6882 35.7487L66.6885 35.7489L66.6891 35.7495L66.691 35.7512L66.6974 35.7568L66.7201 35.7767C66.7397 35.7937 66.7679 35.818 66.804 35.8485C66.8763 35.9095 66.9807 35.9957 67.1118 36.0985C67.3733 36.3038 67.7439 36.5778 68.18 36.8526C69.0108 37.3761 70.1618 37.9561 71.2756 37.9824C71.3081 37.9935 71.3568 38.0115 71.4201 38.0384C71.5635 38.0994 71.7829 38.2065 72.061 38.3846C72.6164 38.7403 73.4114 39.383 74.3058 40.5166L74.3498 40.5724L74.4076 40.6137L78.7401 43.7102L79.0056 43.8999L79.2861 43.7333L79.0309 43.3034C79.2861 43.7333 79.2862 43.7333 79.2863 43.7332L79.2866 43.7331L79.2873 43.7326L79.2897 43.7312L79.298 43.7263L79.328 43.7081C79.3384 43.7017 79.3507 43.6942 79.3647 43.6856C79.385 43.6731 79.409 43.6582 79.4361 43.6412C79.5274 43.584 79.6548 43.5023 79.8008 43.4034C80.0893 43.2081 80.4651 42.9362 80.7783 42.6482C80.9345 42.5045 81.0875 42.3457 81.2076 42.1804C81.3206 42.0249 81.4434 41.8114 81.4629 41.5648C81.4863 41.2692 81.3558 41.0052 81.1092 40.8313C80.8979 40.6824 80.6213 40.6116 80.3273 40.5776L80.3 40.5744C80.3077 40.5368 80.3237 40.4812 80.3568 40.4042L80.4578 40.169L80.326 39.9495L79.6244 38.7815C79.6244 38.7814 79.6244 38.7813 79.6244 38.7812C79.6146 38.7315 79.6017 38.6598 79.5897 38.575C79.5649 38.4006 79.5469 38.1914 79.5592 38.0086C79.5673 37.8881 79.5861 37.8183 79.5992 37.7823C79.6236 37.7872 79.6601 37.7976 79.712 37.8183L80.107 37.976L80.3256 37.6121L80.3257 37.6119L80.3258 37.6117L80.3259 37.6116L80.326 37.6114L80.3262 37.6111L80.3304 37.6043C80.3345 37.5977 80.3411 37.5871 80.35 37.5734C80.3679 37.5458 80.3947 37.5057 80.4283 37.4586C80.4972 37.3621 80.5879 37.2466 80.6853 37.1491C80.7498 37.0845 80.8021 37.0434 80.8396 37.0188L81.2234 37.4029L81.5578 36.8774L81.5578 36.8773L81.558 36.8771L81.5581 36.8769L81.5582 36.8768L81.5586 36.8762L81.5636 36.8685C81.5654 36.8658 81.5676 36.8625 81.5702 36.8586C81.5745 36.8521 81.5799 36.8441 81.5864 36.8347C81.607 36.8046 81.6375 36.7617 81.6751 36.7124C81.7531 36.6101 81.8503 36.496 81.9468 36.4109C81.9497 36.4083 81.9526 36.4058 81.9554 36.4034L82.2391 37.064L82.7527 36.4421C82.7565 36.4384 82.7639 36.432 82.774 36.4248C82.7984 36.4076 82.825 36.3957 82.8516 36.3925L82.852 36.3925C82.8644 36.3908 83.0747 36.3621 83.4442 36.8793L83.4531 36.8947C83.466 36.9171 83.4852 36.9511 83.5094 36.9951C83.5579 37.0831 83.6263 37.211 83.704 37.3675C83.8605 37.6823 84.0509 38.1044 84.1956 38.5462C84.3429 38.9958 84.4298 39.4267 84.4112 39.7718C84.3932 40.1046 84.2859 40.2873 84.1076 40.3911L83.8457 40.5436L83.8596 40.8459V40.846L83.8597 40.8462L83.8597 40.8481L83.8601 40.8578L83.8615 40.8993C83.8626 40.9366 83.8639 40.9925 83.8646 41.0649C83.8661 41.2096 83.8653 41.4192 83.856 41.675C83.8375 42.1879 83.7852 42.879 83.6518 43.5995C83.5178 44.3234 83.3058 45.0546 82.9794 45.6605C82.6537 46.2651 82.2327 46.7121 81.6916 46.9339L81.6449 46.953L81.6042 46.9803L81.604 46.9804L81.6036 46.9807L81.6034 46.9809L81.603 46.9811L81.6023 46.9815L81.5894 46.9898C81.5768 46.9977 81.5563 47.0103 81.5286 47.0266C81.4731 47.0591 81.3888 47.106 81.2804 47.1591C81.0625 47.2659 80.7524 47.3951 80.3851 47.4854C79.6512 47.6659 78.7223 47.6852 77.8213 47.0991L77.8214 47.099L77.8118 47.0931L77.5487 47.5183C77.8118 47.0931 77.8118 47.0931 77.8117 47.093L77.8114 47.0929L77.8104 47.0922L77.8065 47.0898L77.7914 47.0805L77.7331 47.0447C77.682 47.0133 77.6069 46.9673 77.5105 46.9087C77.3177 46.7915 77.0395 46.6236 76.6974 46.4203C76.0133 46.0137 75.072 45.4649 74.0444 44.8963C73.0176 44.3282 71.9001 43.7379 70.8643 43.2497C69.838 42.7659 68.8588 42.3664 68.1196 42.1994L67.9836 42.1687L67.8512 42.2129L68.0095 42.6872C67.8512 42.2129 67.8512 42.2129 67.8511 42.2129L67.851 42.213L67.8504 42.2131L67.8487 42.2137L67.8423 42.2158L67.8189 42.2238C67.7985 42.2307 67.7689 42.2409 67.7309 42.2541C67.655 42.2805 67.5457 42.3191 67.4105 42.3684C67.1404 42.4671 66.7657 42.609 66.3472 42.7826C65.5208 43.1253 64.483 43.6076 63.7489 44.1383L62.7616 44.852L63.9655 45.0377L63.9655 45.0377L63.9656 45.0377L63.9659 45.0377L63.968 45.0381L63.9773 45.0395L64.0157 45.0457C64.0499 45.0513 64.1008 45.0598 64.1666 45.0713C64.2981 45.0942 64.4887 45.1289 64.7224 45.1755C65.1904 45.269 65.8284 45.4098 66.5101 45.5996C67.1935 45.7899 67.9108 46.0265 68.5414 46.3093C69.1812 46.5963 69.688 46.9117 69.99 47.2404L70.125 47.3873L70.3241 47.4009L70.3242 47.4009L70.3248 47.4009L70.3276 47.4011L70.3388 47.4019L70.3838 47.4051C70.4234 47.408 70.482 47.4123 70.5573 47.4181C70.708 47.4296 70.9255 47.4469 71.1916 47.4701C71.7242 47.5163 72.4502 47.5857 73.2254 47.6781C74.0016 47.7706 74.8214 47.8855 75.5432 48.0224C76.2779 48.1616 76.8674 48.3159 77.2095 48.4742L77.2522 48.4939L77.2978 48.5054L77.4181 48.0259C77.2978 48.5054 77.2979 48.5054 77.298 48.5054L77.2983 48.5055L77.299 48.5057L77.3012 48.5062L77.309 48.5081L77.3371 48.5149C77.3491 48.5178 77.3638 48.5213 77.3811 48.5253C77.3987 48.5294 77.419 48.5341 77.4418 48.5393C77.5323 48.5599 77.6634 48.5884 77.8287 48.6214C78.159 48.6873 78.6273 48.7709 79.1826 48.8425C80.2762 48.9835 81.7305 49.0813 83.142 48.8947L83.161 48.8956C83.203 48.8977 83.2652 48.9007 83.3459 48.905C83.5072 48.9135 83.7422 48.9266 84.0356 48.945C84.6225 48.9819 85.4424 49.04 86.3735 49.1251C88.2424 49.2958 90.5344 49.5729 92.291 49.9976L92.3024 50.0003L92.314 50.0026L92.4085 49.5116C92.314 50.0026 92.314 50.0026 92.3141 50.0026L92.3144 50.0026L92.3154 50.0028L92.3191 50.0036L92.3335 50.0063L92.389 50.0168C92.4375 50.0259 92.5088 50.0392 92.6002 50.056C92.7829 50.0894 93.0465 50.1368 93.3707 50.1923C94.0189 50.3035 94.9111 50.4478 95.886 50.5805C97.8098 50.8423 100.14 51.0718 101.524 50.8739L101.848 50.8275L101.935 50.5154L101.935 50.5152L101.935 50.514L101.935 50.5131L101.935 50.5126L101.936 50.512L101.937 50.5073C101.94 50.4983 101.945 50.4824 101.954 50.4608C101.97 50.4176 101.997 50.3529 102.036 50.2762C102.117 50.1211 102.244 49.9288 102.432 49.7641C102.774 49.4648 103.413 49.1687 104.628 49.6089L104.907 49.71L105.129 49.5136L108.223 46.7823L108.397 46.6283L108.392 46.3959V46.3958V46.3958L108.392 46.3955L108.391 46.3943L108.391 46.3861L108.391 46.3494C108.391 46.3164 108.391 46.2668 108.393 46.2034C108.395 46.0765 108.403 45.8957 108.421 45.6836C108.458 45.2539 108.538 44.7199 108.704 44.2495C108.875 43.766 109.104 43.4383 109.379 43.2934C109.608 43.1726 109.988 43.1188 110.638 43.4428C110.64 43.447 110.643 43.4512 110.646 43.4556C110.693 43.5334 110.762 43.6513 110.839 43.8046C110.994 44.1117 111.185 44.5569 111.321 45.1023C111.593 46.1887 111.651 47.6671 110.795 49.2682L110.79 49.2785L110.785 49.289L111.236 49.504C110.785 49.289 110.785 49.2891 110.785 49.2893L110.784 49.2896L110.784 49.2905L110.783 49.2928L110.779 49.3005L110.767 49.3269C110.764 49.3342 110.76 49.3426 110.756 49.352C110.747 49.3714 110.737 49.3951 110.725 49.423C110.689 49.5057 110.639 49.6251 110.581 49.7765C110.466 50.079 110.316 50.511 110.179 51.0352C109.909 52.0682 109.681 53.4816 109.868 54.9764C109.866 54.9953 109.864 55.0209 109.861 55.0524C109.854 55.1304 109.84 55.2427 109.816 55.3748C109.767 55.6441 109.679 55.9721 109.526 56.2577C109.375 56.5426 109.18 56.7483 108.932 56.8467C108.69 56.9426 108.309 56.9713 107.709 56.7254L107.669 56.7093L107.628 56.7L104.284 55.9545L104.279 55.9535L104.175 56.4425C104.279 55.9535 104.279 55.9535 104.279 55.9535L104.279 55.9534L104.278 55.9532L104.273 55.9522L104.257 55.9489L104.196 55.9362C104.142 55.9252 104.063 55.9093 103.961 55.8894C103.756 55.8496 103.459 55.7939 103.084 55.7295C102.335 55.6006 101.277 55.4367 100.034 55.2961C97.5562 55.0156 94.3223 54.8246 91.3575 55.2009L91.3456 55.2024L91.3338 55.2045L91.3338 55.2045L91.3337 55.2045L91.3328 55.2047L91.3285 55.2054L91.3102 55.2085L91.2354 55.221C91.169 55.2319 91.0701 55.2477 90.942 55.267C90.6856 55.3055 90.3123 55.3582 89.8475 55.4137C88.9175 55.5249 87.6241 55.6476 86.1713 55.6936C83.2429 55.7864 79.7547 55.5637 77.2699 54.3783C73.0817 52.3803 70.1483 53.3337 68.0518 54.0151C67.4523 54.2099 66.9213 54.3825 66.4489 54.4575L66.4458 54.458L66.5272 54.9508C66.4458 54.458 66.4458 54.458 66.4457 54.458L66.4453 54.4581L66.4436 54.4584L66.4372 54.4594L66.4114 54.4637L66.3108 54.4802L65.9272 54.5432C65.596 54.5975 65.1211 54.675 64.5466 54.768C63.3974 54.9541 61.85 55.2021 60.2566 55.4501C58.6627 55.6982 57.0247 55.9459 55.6935 56.1316C54.3413 56.3201 53.355 56.437 53.028 56.437H52.4682L52.5312 56.9933L53.252 63.3538C53.17 63.4492 53.0517 63.5833 52.9029 63.7422C52.5941 64.0722 52.158 64.5049 51.6466 64.9208C51.1331 65.3383 50.5574 65.7273 49.9698 65.982C49.3809 66.2373 48.8132 66.3436 48.2949 66.245L47.9273 66.1751L47.7565 66.508L48.2014 66.7362L47.7565 66.5081L47.7563 66.5084L47.7557 66.5096L47.7533 66.5144L47.7433 66.5338L47.7038 66.6104C47.669 66.6777 47.6176 66.7769 47.5514 66.9041C47.4189 67.1586 47.227 67.525 46.9897 67.9722C46.515 68.8667 45.859 70.0833 45.1338 71.3725C44.4082 72.6625 43.6154 74.0214 42.8666 75.2018C42.112 76.3914 41.4213 77.3688 40.8994 77.9178L40.8575 77.9619L40.8275 78.0146L40.8274 78.0146L40.8274 78.0147L40.8271 78.0151L40.8255 78.018L40.8179 78.0311C40.811 78.043 40.8003 78.0613 40.7861 78.0853C40.7576 78.1334 40.7148 78.2047 40.6587 78.2957C40.5463 78.4776 40.3807 78.7376 40.17 79.0464C39.7474 79.6653 39.1478 80.4733 38.4348 81.2399C37.7185 82.0101 36.9076 82.717 36.0662 83.1568C35.2291 83.5945 34.4026 83.7484 33.609 83.4925L33.5918 83.4869L33.5741 83.4826L33.4556 83.9684C33.5741 83.4826 33.5741 83.4826 33.574 83.4826L33.5737 83.4825L33.5729 83.4823L33.57 83.4816L33.5592 83.479L33.5183 83.4692C33.4825 83.4608 33.4299 83.4484 33.3615 83.4327C33.2249 83.4014 33.0254 83.3566 32.772 83.3027C32.2652 83.1948 31.5425 83.0498 30.6755 82.9011C28.9485 82.6049 26.6387 82.2918 24.3204 82.2289L24.3169 82.2286L24.2539 82.2222C24.1984 82.2165 24.1163 82.2079 24.0108 82.1966C23.7997 82.174 23.4948 82.1402 23.1207 82.0958C22.3721 82.007 21.3476 81.8758 20.2431 81.7062C19.1378 81.5365 17.9575 81.3291 16.8959 81.0884C15.8252 80.8456 14.9085 80.5762 14.3113 80.2913L14.2244 80.2499L14.1284 80.2436L14.096 80.7426C14.1284 80.2436 14.1284 80.2436 14.1283 80.2436L14.1281 80.2436L14.1274 80.2435L14.1251 80.2434L14.1162 80.2428L14.0825 80.2408C14.0532 80.239 14.0105 80.2365 13.956 80.2335C13.8471 80.2275 13.6911 80.2196 13.5017 80.2116C13.1235 80.1957 12.6097 80.1798 12.0703 80.1798C11.5331 80.1798 10.9603 80.1956 10.4674 80.2451C10.2212 80.2698 9.98529 80.3038 9.77888 80.3515C9.58269 80.3968 9.36936 80.4639 9.19901 80.5764L8.97461 80.7247V80.9936V82.2815L33.667 74.6261ZM11.597 76.0114C14.3048 76.229 17.6793 76.2997 20.181 75.6632L1.85265 74.7943L1.85275 74.7943L1.85445 74.7939L1.86254 74.7921L1.89686 74.7849C1.92755 74.7785 1.97347 74.7691 2.03262 74.7576C2.15098 74.7347 2.32189 74.7033 2.52928 74.6706C2.94563 74.6047 3.5018 74.5342 4.0718 74.5119C4.64845 74.4894 5.20667 74.5178 5.64139 74.6324C6.08813 74.7501 6.28717 74.9245 6.35503 75.1014L6.45628 75.3654L6.7347 75.4147L6.82187 74.9224C6.7347 75.4147 6.73479 75.4147 6.73491 75.4148L6.73531 75.4148L6.7367 75.4151L6.74176 75.416L6.7609 75.4193L6.83435 75.4319C6.89857 75.4427 6.99284 75.4583 7.1142 75.4778C7.35691 75.5166 7.70814 75.5705 8.14438 75.6312C9.01651 75.7526 10.2302 75.9015 11.597 76.0114ZM82.7512 36.4434C82.7497 36.445 82.7498 36.4448 82.7514 36.4433L82.7512 36.4434ZM79.5572 37.7797C79.5567 37.779 79.5604 37.7779 79.5697 37.7783C79.5623 37.7805 79.5577 37.7803 79.5572 37.7797Z" stroke="url(#paint0_linear_735_6108)"/>
<defs>
<linearGradient id="paint0_linear_735_6108" x1="-8.53026e-08" y1="29.8519" x2="78.0614" y2="50.0852" gradientUnits="userSpaceOnUse">
<stop stop-color="#323232"/>
<stop offset="1" stop-color="#F3F3F3"/>
</linearGradient>
</defs>
</svg>
