<svg width="71" height="110" viewBox="0 0 71 110" fill="none" xmlns="http://www.w3.org/2000/svg">
<path d="M70.4325 56.7146C70.369 56.7167 70.3015 56.7193 70.2306 56.7228C69.7724 56.745 69.1574 56.8003 68.5566 56.9363C67.9694 57.0691 67.3287 57.2931 66.8764 57.6951C66.6428 57.9027 66.4504 58.166 66.3525 58.4933C66.3046 58.6536 66.2821 58.8203 66.2842 58.9924C65.9915 59.0541 65.5961 59.1615 65.1483 59.3472C64.2211 59.7319 63.0655 60.4546 62.1403 61.8011L53.3517 71.5757L52.7529 72.2417L53.6329 72.4017L53.6333 72.4018L53.6335 72.4019L53.6336 72.4019L53.634 72.4019L53.6396 72.403C53.6419 72.4035 53.6448 72.4041 53.6483 72.4048C53.6542 72.406 53.6617 72.4076 53.6709 72.4096C53.7001 72.4158 53.7455 72.4262 53.8054 72.4414C53.9253 72.4717 54.1032 72.5215 54.3254 72.5975C54.7703 72.7494 55.3903 73.0052 56.0785 73.4175C57.4517 74.2403 59.0983 75.687 60.1731 78.1923L60.1902 78.2322L60.2139 78.2685L60.6326 77.9952C60.2139 78.2685 60.214 78.2686 60.2141 78.2688L60.2144 78.2692L60.2152 78.2705L60.218 78.2748L60.2279 78.2897C60.2364 78.3025 60.2488 78.3209 60.2648 78.3445C60.2968 78.3916 60.3437 78.4595 60.4045 78.5451C60.5262 78.7162 60.704 78.9581 60.9312 79.2455C61.3847 79.8193 62.0392 80.5796 62.841 81.3205C64.4097 82.7704 66.6639 84.2581 69.1351 83.905C69.1525 83.9055 69.1774 83.9067 69.2084 83.9095C69.2831 83.9162 69.3878 83.932 69.5032 83.9672C69.7336 84.0375 69.9828 84.1766 70.1492 84.4595C70.3169 84.7446 70.4469 85.2547 70.2751 86.1608C70.1028 87.0697 69.6333 88.3369 68.6543 90.0864L68.5862 90.2081L68.5909 90.347V90.3471L68.5909 90.3474L68.5909 90.3487L68.5912 90.3574L68.5918 90.3961C68.5923 90.4311 68.5926 90.4841 68.5918 90.5528C68.5903 90.6904 68.5847 90.8907 68.568 91.1362C68.5346 91.6285 68.4573 92.2949 68.2832 92.9978C67.9307 94.4207 67.2184 95.8552 65.8223 96.4446C65.8118 96.4472 65.7977 96.4507 65.7803 96.4546C65.7333 96.4651 65.6649 96.4783 65.584 96.4877C65.4145 96.5075 65.2263 96.5067 65.0698 96.46C64.9284 96.4178 64.8269 96.3448 64.7621 96.2063C64.6881 96.0484 64.6304 95.7369 64.7494 95.1583L64.7515 95.1481L64.7532 95.1378L65.2746 91.9264L65.3139 91.6841L65.1468 91.5053L65.1466 91.5051L65.1465 91.505L65.1463 91.5048L65.1441 91.5024L65.1316 91.4886C65.12 91.4757 65.102 91.4555 65.0787 91.4284C65.032 91.3743 64.964 91.2929 64.882 91.1879C64.7177 90.9772 64.5 90.6744 64.2878 90.308C63.8567 89.5635 63.4811 88.6129 63.5543 87.6602L63.5679 87.4828L63.4664 87.3368L63.0557 87.6219C63.4664 87.3368 63.4663 87.3366 63.4662 87.3365L63.466 87.3361L63.4652 87.335L63.4628 87.3316L63.4544 87.3196L63.4232 87.2759C63.3961 87.2383 63.3563 87.1837 63.3041 87.1141C63.1997 86.9747 63.0456 86.7747 62.8439 86.5275C62.4405 86.0334 61.8458 85.3499 61.0757 84.5863C59.5378 83.0615 57.2878 81.2044 54.4534 79.9043L53.9457 79.6714L53.7702 80.2017L54.2449 80.3587L53.7702 80.2017L53.7702 80.2018L53.7699 80.2026L53.7689 80.2058L53.7646 80.2188L53.7473 80.2705C53.732 80.3161 53.7093 80.3835 53.6799 80.4699C53.6211 80.6429 53.5354 80.8923 53.4282 81.1969C53.2137 81.8066 52.9137 82.6362 52.5712 83.5175C52.2282 84.3997 51.8447 85.3284 51.4634 86.1378C51.0767 86.9587 50.7102 87.6175 50.4071 87.9882L50.2124 88.2264L70.4325 56.7146ZM70.4325 56.7146C69.917 53.1375 68.3163 49.793 66.7933 47.2889C65.995 45.9764 65.2234 44.9034 64.6521 44.1595C64.3665 43.7877 64.1314 43.4985 63.9684 43.3032C63.8869 43.2055 63.8235 43.1314 63.7808 43.0821C63.7644 43.0631 63.751 43.0477 63.7409 43.0362C63.1236 42.5136 62.4205 41.5829 61.7274 40.5305C61.0132 39.4459 60.2779 38.1821 59.6168 36.9835C58.955 35.7838 58.3643 34.6434 57.9393 33.8033C57.7267 33.3831 57.5553 33.0376 57.4369 32.797C57.3984 32.7186 57.3655 32.6514 57.3386 32.5963C57.3242 32.5667 57.3115 32.5407 57.3006 32.5183L57.2651 32.4449L57.2559 32.4259L57.2554 32.4249C55.877 29.7323 53.273 28.3984 50.9413 27.741C49.7804 27.4137 48.706 27.26 47.9215 27.1884C47.5298 27.1526 47.2119 27.1375 46.9934 27.1312C46.8843 27.1281 46.8001 27.1272 46.7441 27.1271C46.7161 27.127 46.6951 27.1271 46.6817 27.1273L46.6671 27.1275L46.6641 27.1275H46.664L46.6638 27.1275L46.6637 27.1275L46.0243 27.1411L46.1658 26.5171C46.658 24.3462 46.3589 22.8847 45.8441 21.9098C45.3254 20.9274 44.5569 20.381 44.0158 20.1012L44.3649 19.1715C45.0975 19.3515 46.0955 19.2403 47.1277 18.9851C47.4075 18.9158 47.6846 18.8374 47.9529 18.7544C47.5038 18.5281 47.1111 18.2256 46.7919 17.9313C46.4003 17.5704 46.0866 17.1933 45.8716 16.9084C45.7636 16.7653 45.6793 16.6439 45.6213 16.5571C45.5923 16.5136 45.5698 16.4788 45.5541 16.4541L45.5357 16.4248L45.5317 16.4183C44.286 14.4689 43.1281 13.8058 42.3488 13.5939C41.954 13.4866 41.6366 13.4892 41.4261 13.5146C41.3204 13.5274 41.2411 13.546 41.1923 13.5597C41.1679 13.5665 41.1512 13.5721 41.1428 13.5751L41.138 13.5768L41.1376 13.577L41.1367 13.5773L41.0495 13.6142H40.9482C40.2632 13.6142 39.9975 13.8475 39.8701 14.088C39.713 14.3847 39.6862 14.8415 39.7777 15.4008C39.8664 15.9431 40.0519 16.4978 40.2207 16.9255C40.3043 17.1373 40.382 17.3136 40.4385 17.4362C40.4667 17.4974 40.4895 17.545 40.5049 17.5767L40.5223 17.612L40.5264 17.6201L40.5271 17.6216L40.5272 17.6217L40.5272 17.6218L40.5272 17.6218L40.8981 18.3488H40.0817C39.8381 18.3488 39.495 18.4754 39.0738 18.7448C38.6659 19.0057 38.244 19.3618 37.8566 19.7304C37.4712 20.0972 37.131 20.4656 36.8866 20.7432C36.7647 20.8817 36.6674 20.9967 36.6009 21.0767C36.5715 21.112 36.5482 21.1404 36.5315 21.1609L70.4325 56.7146ZM42.5376 38.4543L42.5377 38.4544L42.5388 38.4556L42.544 38.4612L42.5659 38.485C42.5856 38.5063 42.6153 38.5381 42.6543 38.5793C42.7323 38.6617 42.8473 38.7814 42.9938 38.9286C43.2869 39.2232 43.7045 39.6267 44.201 40.0611C45.2045 40.9391 46.4898 41.9068 47.7031 42.3845L47.8125 42.4276L47.8912 42.5149L50.4831 45.3886L50.7789 45.7166L50.4899 46.0506L46.6865 50.4475L46.3396 50.8486L46.3174 50.8269C46.2876 50.8581 46.2561 50.8908 46.2231 50.9251C45.9432 51.215 45.5481 51.6123 45.0868 52.0422C44.1756 52.8914 42.9644 53.9075 41.8581 54.4488L41.8493 54.4531L41.8403 54.4571L38.3896 55.9802L37.7587 56.2587L37.6902 55.5725L37.5215 53.8843L37.4976 53.6452L42.5376 38.4543ZM42.5376 38.4543L42.5375 38.4542L42.5376 38.4543ZM50.3371 88.5072L50.3371 88.5073L50.3371 88.5072ZM38.9384 92.1862C38.9461 92.1858 38.9546 92.1854 38.9639 92.1849C39.0118 92.1823 39.0806 92.1779 39.1678 92.1706C39.3422 92.1562 39.5908 92.1305 39.8945 92.0849C40.5007 91.994 41.3322 91.8233 42.2332 91.5033C44.0289 90.8656 46.1568 89.613 47.2697 87.1607L47.306 87.0809L47.3129 86.9934L48.1794 76.0086L48.2082 75.6429L47.8702 75.5065L47.8697 75.5063L47.869 75.506L47.8686 75.5058L47.8684 75.5057L47.8681 75.5056L47.853 75.499C47.8379 75.4922 47.8132 75.4807 47.7806 75.4643C47.7151 75.4314 47.6183 75.379 47.5022 75.3048C47.2691 75.1557 46.9643 74.9225 46.6794 74.588C46.1226 73.9344 45.61 72.8603 45.9257 71.161L45.9258 71.161L45.9275 71.1509L47.6528 60.6763L47.7274 60.2239L47.283 60.1105L43.3109 59.0976L43.0286 59.0256L42.8289 59.2336L42.8288 59.2336L42.8283 59.2341C42.8282 59.2343 42.8284 59.2341 42.828 59.2344C42.8278 59.2346 42.8276 59.2348 42.8273 59.2351C42.8273 59.2352 42.8272 59.2352 42.8271 59.2353C42.8247 59.2377 42.8198 59.2425 42.8124 59.2495C42.7975 59.2635 42.7729 59.286 42.7387 59.3147C42.6703 59.3723 42.5649 59.454 42.4251 59.5418C42.145 59.7179 41.7337 59.9146 41.2107 59.997C40.196 60.1569 38.623 59.9054 36.635 57.8811L36.4685 57.7116L36.2325 57.7336L36.2324 57.7336L36.2322 57.7336L36.2319 57.7336L36.2317 57.7337L36.2264 57.7341L36.2012 57.736C36.1782 57.7377 36.1429 57.74 36.0971 57.7423C36.0053 57.7468 35.8719 57.7512 35.7101 57.7499C35.3841 57.7474 34.9537 57.7222 34.5199 57.6353C33.6079 57.4525 32.92 57.0568 32.8001 56.2931L32.7513 55.9823L32.4499 55.8918L4.29983 47.4431L4.29134 47.4405L4.28317 47.4384L4.28304 47.4383L4.28295 47.4383L4.28275 47.4383L4.28063 47.4377L4.26866 47.4344C4.26437 47.4333 4.25916 47.4318 4.25305 47.4301C4.24327 47.4274 4.23119 47.4239 4.21695 47.4198C4.17067 47.4064 4.10168 47.3856 4.01441 47.3574C3.83962 47.3008 3.59293 47.2145 3.30954 47.0967C2.73682 46.8587 2.0409 46.5032 1.48245 46.024C0.923885 45.5448 0.548511 44.9831 0.504431 44.3273C0.462086 43.6974 0.717617 42.8621 1.65402 41.795C1.67462 41.7915 1.69698 41.7877 1.72097 41.7837C1.8665 41.7597 2.07018 41.7293 2.30171 41.7041C2.77771 41.6521 3.32254 41.6275 3.72345 41.6988C3.92713 41.735 4.03705 41.7868 4.08398 41.824C4.09267 41.8309 4.09721 41.8335 4.09934 41.8375C4.10179 41.842 4.10105 41.8483 4.09976 41.8648C4.09414 41.9363 4.04508 42.1052 3.83152 42.3983C3.62382 42.6833 3.29024 43.0457 2.78666 43.4983L2.77878 43.5054L2.7712 43.5128L3.12089 43.8702C2.7712 43.5128 2.77103 43.513 2.77084 43.5132L2.77046 43.5136L2.76961 43.5144L2.76762 43.5164L2.76251 43.5215L2.74802 43.5364C2.73661 43.5484 2.72169 43.5645 2.70431 43.5842C2.66986 43.6234 2.62412 43.6789 2.57634 43.7472C2.4868 43.8753 2.362 44.0877 2.3242 44.3467C2.28221 44.6343 2.35323 44.9582 2.62563 45.2247C2.86717 45.461 3.22768 45.613 3.68809 45.7061L33.1938 54.8225L33.5585 54.9352L33.7628 54.6138L33.7629 54.6137L33.763 54.6135L33.7631 54.6133L33.7633 54.6131L33.7635 54.6127L33.7685 54.605C33.7735 54.5976 33.7815 54.5855 33.7926 54.5694C33.8148 54.5372 33.8488 54.4891 33.8937 54.4295C33.9839 54.3099 34.1161 54.1466 34.2822 53.9743C34.6236 53.6201 35.0661 53.2719 35.546 53.1382L35.8323 53.0584L35.899 52.7687L35.8991 52.7685L35.8993 52.7677L35.9 52.7643L35.9033 52.7503L35.9163 52.6946C35.9278 52.6457 35.9448 52.5735 35.9669 52.4812C36.0111 52.2966 36.0755 52.0317 36.1561 51.7117C36.3172 51.071 36.5425 50.2114 36.7994 49.3322C37.0571 48.4506 37.3435 47.56 37.6262 46.8532C37.7678 46.4991 37.904 46.2028 38.0299 45.981C38.0927 45.8704 38.1487 45.7859 38.1966 45.7251C38.2203 45.6951 38.2398 45.6736 38.2549 45.6589C38.2623 45.6515 38.268 45.6466 38.2717 45.6436C38.2755 45.6404 38.2772 45.6393 38.2768 45.6396L38.5036 45.4916V45.2208H38.0036C38.5036 45.2208 38.5036 45.2208 38.5036 45.2207V45.2204V45.2194V45.2153L38.5036 45.1995L38.5036 45.1376L38.503 44.9001C38.5023 44.694 38.5009 44.3957 38.4982 44.0268C38.4928 43.289 38.482 42.2682 38.4604 41.136C38.4173 38.8774 38.3309 36.1566 38.1562 34.3604L38.1562 34.3601L38.9384 92.1862ZM47.5747 59.2228L47.6272 59.2342H47.6809H47.6886H48.1169L48.1827 58.811L49.0492 53.2361L49.2281 52.0849L48.2704 52.7483L44.1219 55.622L43.8843 55.7865L43.9083 56.0745L44.077 58.1004L44.1077 58.4689L44.4691 58.5475L47.5747 59.2228Z" stroke="url(#paint0_linear_735_6102)"/>
<defs>
<linearGradient id="paint0_linear_735_6102" x1="-5.40757e-08" y1="24.8222" x2="51.838" y2="31.9203" gradientUnits="userSpaceOnUse">
<stop stop-color="#323232"/>
<stop offset="1" stop-color="#F3F3F3"/>
</linearGradient>
</defs>
</svg>
