<svg width="71" height="110" viewBox="0 0 71 110" fill="none" xmlns="http://www.w3.org/2000/svg">
<path d="M15.7209 40.3229L15.6825 40.2848C15.3546 40.555 14.9647 40.8784 14.6216 41.1635C14.3836 41.3613 14.1685 41.5403 14.0129 41.6699L13.8288 41.8233L13.7788 41.865L13.7658 41.8759L13.7625 41.8786L13.7617 41.8793L13.7615 41.8795L13.7614 41.8795L13.4411 41.4956L13.7614 41.8796L13.6301 41.9891L13.4593 41.9953C12.4757 42.0311 11.3201 42.6217 10.3581 43.2665C9.88868 43.5812 9.48645 43.8941 9.20159 44.1285C9.05941 44.2455 8.94711 44.3424 8.871 44.4095C8.83296 44.443 8.80401 44.469 8.78493 44.4863L8.76383 44.5056L8.75902 44.51L8.75816 44.5108L8.75809 44.5109L8.75805 44.5109L8.758 44.511L8.71787 44.5483L8.67039 44.5761C8.03966 44.9459 7.69329 45.2266 7.51418 45.4244C7.45002 45.4953 7.41424 45.5475 7.39442 45.5825C7.39982 45.585 7.40508 45.5873 7.40998 45.5893C7.41504 45.5913 7.41887 45.5927 7.42102 45.5935L8.34635 45.8499L7.59698 46.461C7.32639 46.6816 7.14528 46.857 7.02931 46.9928C7.01247 47.0125 6.99748 47.0308 6.98413 47.0478C7.08873 47.0594 7.21637 47.0621 7.35026 47.0567C7.44861 47.0527 7.53647 47.045 7.59956 47.0384C7.63092 47.0351 7.65567 47.0321 7.67198 47.03L7.68974 47.0277L7.69321 47.0272L7.69336 47.0272L7.69344 47.0272L7.69361 47.0271L7.69377 47.0271L9.14555 46.8138L8.12544 47.8694C7.97734 48.0226 7.86221 48.1526 7.77406 48.2619C7.78199 48.2601 7.78997 48.2582 7.79799 48.2563C7.88156 48.2366 7.95616 48.2155 8.00978 48.1994C8.03641 48.1914 8.0574 48.1848 8.07122 48.1803L8.08624 48.1754L8.0891 48.1745L8.08927 48.1744L8.0893 48.1744L8.08945 48.1744L8.08959 48.1743L9.37541 47.7347L8.6806 48.9031C8.6734 48.9152 8.66648 48.927 8.65981 48.9386C8.83364 48.878 9.02078 48.7962 9.18513 48.7177C9.29143 48.667 9.38272 48.6203 9.44713 48.5864C9.47926 48.5696 9.5045 48.556 9.52135 48.5468L9.53634 48.5386L12.1169 46.9393L12.7082 47.7417C12.4327 47.9811 12.325 48.1648 12.2846 48.2816C12.3965 48.161 12.5087 48.0526 12.609 47.9608C12.7513 47.8306 12.8823 47.7222 12.978 47.6463C13.026 47.6082 13.0655 47.578 13.0935 47.5568L13.1268 47.532L13.1363 47.525L13.1392 47.5229L13.1402 47.5222L13.1406 47.5219L13.1407 47.5218C13.1408 47.5218 13.1408 47.5217 13.4335 47.9271L13.1408 47.5217L13.1519 47.5138L13.1633 47.5064C13.7839 47.1079 14.412 46.4364 14.8997 45.8354C15.1396 45.5397 15.338 45.2705 15.4763 45.0755C15.5453 44.9782 15.5991 44.8997 15.6353 44.8461C15.6439 44.8332 15.6516 44.8218 15.6582 44.8119C15.6651 44.8016 15.6708 44.793 15.6753 44.7861C16.18 43.8107 17.3175 42.7216 18.2666 41.9101C18.7568 41.4911 19.2177 41.1288 19.5559 40.8713C19.7252 40.7425 19.8642 40.6396 19.9612 40.5686C20.0098 40.5331 20.0478 40.5056 20.074 40.4868L20.1041 40.4652L20.1122 40.4594L20.1144 40.4579L20.115 40.4574L20.1153 40.4573C20.1153 40.4572 20.1154 40.4572 20.4043 40.8652L20.1154 40.4572L20.1498 40.4328L20.1878 40.4145C21.4304 39.8177 23.2633 38.8208 24.7943 37.9679C25.5579 37.5424 26.2432 37.1546 26.7375 36.8732C26.9847 36.7324 27.1841 36.6183 27.3216 36.5395L27.4797 36.4487L27.5206 36.4251L27.531 36.4191L27.5336 36.4176L27.5342 36.4173L27.5344 36.4172L27.7843 36.8502L27.5344 36.4172L27.7995 36.2642L28.0563 36.4307C28.5278 36.7364 29.3584 37.0864 30.3824 37.4433C31.3938 37.7957 32.5525 38.1409 33.6516 38.4453C34.7497 38.7494 35.7832 39.0112 36.5424 39.1971C36.9218 39.29 37.2325 39.3639 37.448 39.4145C37.5557 39.4398 37.6397 39.4592 37.6966 39.4723L37.7612 39.4872L37.7775 39.4909L37.7816 39.4918L37.7825 39.492L37.7827 39.4921L37.6722 39.9797L37.7828 39.4921L39.4027 39.8592L37.8493 40.4473C37.7217 40.4956 37.5188 40.6258 37.2432 40.8662C36.9766 41.0987 36.6742 41.4054 36.3489 41.7664C35.6987 42.4877 34.9821 43.3973 34.312 44.2955C33.6432 45.1922 33.0264 46.0698 32.5766 46.7239C32.3518 47.0507 32.1689 47.3213 32.0425 47.5099C31.9792 47.6042 31.9301 47.678 31.8968 47.7281L31.8591 47.7851L31.8496 47.7995L31.8473 47.803L31.8468 47.8038L31.8466 47.804L31.4288 47.5294L31.8466 47.804L31.7901 47.89L31.7043 47.9466C29.7434 49.2414 28.4137 51.2772 27.5697 53.0262C27.1501 53.8959 26.8561 54.6829 26.6674 55.2516C26.5732 55.5356 26.5054 55.7645 26.4616 55.921C26.4396 55.9993 26.4237 56.0594 26.4134 56.0992L26.4021 56.1435L26.3996 56.1538L26.3991 56.1558L26.3991 56.1558L26.3991 56.156L26.3991 56.156L26.3954 56.1714L26.3907 56.1868C25.7843 58.1566 24.708 59.2025 23.748 59.7467C23.2737 60.0156 22.8372 60.1569 22.5155 60.2311C22.3544 60.2683 22.2213 60.2889 22.1254 60.3003C22.087 60.3049 22.0545 60.308 22.0284 60.3101C21.1315 60.5726 20.1618 61.1231 19.1954 61.8307C18.216 62.5478 17.2657 63.4071 16.4308 64.2391C15.5969 65.0701 14.8844 65.8677 14.3802 66.4577C14.1284 66.7525 13.929 66.9949 13.793 67.1631C13.725 67.2472 13.6729 67.3126 13.6381 67.3568L13.5989 67.4066L13.5893 67.4189L13.5871 67.4218L13.5866 67.4224L13.5866 67.4224L13.5865 67.4225L13.5782 67.4333L13.5692 67.4437C12.3308 68.8753 10.6244 69.9533 9.25389 70.6678C8.56431 71.0273 7.95024 71.2997 7.50776 71.4825C7.28635 71.5739 7.10744 71.6431 6.98298 71.6898C6.92074 71.7132 6.87208 71.7309 6.83849 71.7429L6.79958 71.7567L6.78894 71.7605L6.78588 71.7615L6.78493 71.7618L6.7846 71.762C6.78447 71.762 6.78436 71.762 6.62179 71.2892L6.78436 71.762L6.71083 71.7873L6.6331 71.7891C5.88858 71.8059 5.42492 72.0007 5.12953 72.2375C4.83229 72.4758 4.6591 72.7937 4.56313 73.1368C4.46613 73.4836 4.45335 73.8392 4.46797 74.1165C4.47517 74.2533 4.48878 74.3664 4.50025 74.4436C4.50597 74.4821 4.51112 74.5114 4.51457 74.5299L4.51834 74.5492L4.5187 74.551L4.51879 74.5514L4.51887 74.5518L4.51897 74.5523L4.519 74.5524L4.5358 74.6284L4.52809 74.7074C4.41841 75.8311 3.76734 76.6896 3.05504 77.3081L4.94511 76.3721L5.23081 76.2306L5.47963 76.4299C6.06198 76.8965 6.87865 76.7203 7.74492 76.2171C8.15223 75.9805 8.51536 75.7012 8.77894 75.4781C8.90992 75.3673 9.01442 75.2719 9.08541 75.2051C9.12086 75.1717 9.14784 75.1455 9.16546 75.1281L9.18473 75.109L9.18887 75.1049L9.18923 75.1045L9.1894 75.1043L9.1895 75.1042L9.18953 75.1042L9.25631 75.036L9.34396 74.9972L13.1552 73.3086L13.1694 73.3023L13.1839 73.2969C13.664 73.119 13.8521 72.8118 13.9358 72.5511C13.98 72.4134 13.9954 72.2842 13.9993 72.1894C14.0013 72.1426 14.0003 72.1061 13.9992 72.0835C13.9986 72.0722 13.998 72.0646 13.9977 72.0611C13.9977 72.0606 13.9977 72.0608 13.9977 72.0605C13.9976 72.0597 13.9975 72.0588 13.9975 72.0591L13.9766 71.8902L14.0678 71.7411C14.298 71.365 14.6682 71.0159 15.0536 70.7139C15.4462 70.4062 15.8897 70.1208 16.3007 69.8789C16.713 69.6363 17.1005 69.433 17.3845 69.2905C17.5268 69.2191 17.6437 69.1627 17.7256 69.1238C17.7665 69.1044 17.7987 69.0894 17.821 69.0791L17.8468 69.0672L17.8538 69.064L17.8558 69.0631L17.8564 69.0628L17.8566 69.0627C17.8567 69.0627 17.8568 69.0626 18.063 69.5181L17.8568 69.0626L17.9113 69.038L17.97 69.0268C19.5772 68.7226 21.01 67.9231 22.0529 67.1834C22.5716 66.8155 22.9872 66.4672 23.2721 66.2119C23.4144 66.0844 23.5237 65.9804 23.5965 65.9092C23.6329 65.8736 23.6602 65.8463 23.6779 65.8284L23.6971 65.8086L23.7013 65.8043L23.7017 65.8039L23.7019 65.8037L23.702 65.8036L23.802 65.6985L23.9432 65.6633C24.518 65.5202 25.3364 65.1114 26.0467 64.7103C26.3938 64.5143 26.7019 64.3279 26.9231 64.1904C27.0337 64.1217 27.1222 64.0655 27.1828 64.0266C27.2106 64.0088 27.2326 63.9946 27.248 63.9845C27.5744 63.7022 28.1041 63.2374 28.5584 62.8378C28.7912 62.633 29.0037 62.4458 29.1579 62.3097L29.3409 62.1483L29.3908 62.1043L29.4038 62.0928L29.4071 62.0899L29.4079 62.0892L29.4081 62.089L29.4082 62.0889L29.7391 62.4637L29.4082 62.0889L29.4321 62.0678L29.4585 62.0499C30.1901 61.5537 30.9547 60.86 31.545 60.279C31.8381 59.9906 32.084 59.7341 32.2564 59.55C32.3426 59.4581 32.4102 59.3843 32.456 59.3339C32.4789 59.3087 32.4963 59.2893 32.5079 59.2765L32.5103 59.2738C33.2126 58.3268 34.3175 57.4806 35.2138 56.8834C35.6711 56.5787 36.0865 56.3309 36.3877 56.159C36.5386 56.073 36.6612 56.0057 36.7468 55.9597C36.7896 55.9367 36.8231 55.9189 36.8463 55.9068L36.8732 55.8927L36.8805 55.8889L36.8827 55.8879L36.8833 55.8875L36.8835 55.8874C36.8836 55.8874 36.8837 55.8873 37.1116 56.3324L36.8837 55.8873L37.9426 55.3452L37.589 56.481L35.9675 61.6893L35.9512 61.7415L35.9241 61.7889C35.7851 62.0318 35.7018 62.2483 35.6348 62.45C35.6186 62.4989 35.6016 62.5531 35.5838 62.6098C35.5367 62.7601 35.4839 62.9286 35.4238 63.0666C35.3277 63.2876 35.1866 63.5067 34.9377 63.6833C34.7008 63.8515 34.404 63.9541 34.0431 64.021L34.0426 64.0211C33.8116 64.0636 33.4558 64.225 33.014 64.4915C32.5864 64.7495 32.1257 65.0765 31.6973 65.4021C31.2701 65.7268 30.8819 66.0449 30.6001 66.2821C30.4594 66.4006 30.3457 66.4986 30.2674 66.5667C30.2283 66.6007 30.198 66.6273 30.1778 66.6452L30.1549 66.6653L30.1494 66.6703L30.1481 66.6714L30.1478 66.6716L30.1478 66.6717L30.0056 66.7986H29.8149H27.2427L19.6443 70.0504C18.294 70.6683 17.9032 71.4771 17.8011 72.0767C17.7472 72.3928 17.7697 72.6768 17.8064 72.8823C17.8247 72.9844 17.846 73.0649 17.8619 73.1174C17.8698 73.1436 17.8762 73.1626 17.8801 73.1735L17.8832 73.1823L17.8836 73.1831L17.8838 73.1837L17.8838 73.1838L17.884 73.1842L17.884 73.1844L18.0335 73.5557L17.6994 73.782L16.769 74.4121L18.1293 73.586L18.4201 73.4094L18.6911 73.6151C19.6624 74.3523 20.9526 74.093 22.1592 73.4958C22.7424 73.2072 23.2585 72.8616 23.6308 72.5858C23.8162 72.4485 23.9641 72.3299 24.0647 72.2464C24.115 72.2046 24.1534 72.1718 24.1786 72.1498L24.2005 72.1307C25.3611 70.9051 26.9146 70.3972 28.1367 70.1885C28.7556 70.0828 29.3039 70.0512 29.6984 70.0461C29.8959 70.0435 30.0559 70.0475 30.168 70.0522C30.2241 70.0546 30.2682 70.0572 30.2992 70.0593L30.3357 70.0619L30.3463 70.0628L30.3496 70.063L30.3507 70.0631L30.3512 70.0632C30.3513 70.0632 30.3515 70.0632 30.3074 70.5613L30.3515 70.0632L30.3606 70.064L30.3696 70.0651C33.4622 70.453 35.7335 69.7746 37.2243 69.0137C37.9719 68.632 38.5263 68.2279 38.8909 67.9226C39.0731 67.7701 39.2076 67.6424 39.2947 67.555C39.3382 67.5114 39.3699 67.4778 39.3897 67.4563C39.3996 67.4455 39.4066 67.4377 39.4105 67.4332L39.4137 67.4297L39.414 67.4293L39.4142 67.429L39.4143 67.4289L39.4145 67.4287L39.479 67.3532L39.5689 67.3079C41.9356 66.1162 44.3101 63.5463 46.1186 61.2154C47.0156 60.0592 47.7603 58.9793 48.2806 58.1884C48.5406 57.7932 48.7443 57.4707 48.8826 57.2476C48.9517 57.1361 49.0045 57.0494 49.0398 56.991L49.0794 56.925L49.0892 56.9087L49.0914 56.9048L49.0919 56.904L49.092 56.9039L49.092 56.9038L49.0998 56.8907L49.1084 56.878C49.7772 55.8881 50.6246 54.8662 51.2985 54.0975C51.6367 53.7118 51.9337 53.387 52.1464 53.1584C52.2528 53.0441 52.3382 52.9537 52.3972 52.8917L52.4654 52.8204L52.4834 52.8017L52.4881 52.7967L52.4894 52.7954L52.4898 52.795L52.4899 52.7949C52.4899 52.7949 52.4899 52.7949 52.5234 52.8273L52.49 52.7948L52.5499 52.733L52.627 52.6948C52.7692 52.6244 52.9728 52.5711 53.1675 52.5277C53.3783 52.4807 53.6353 52.4337 53.9171 52.3878C54.4817 52.2958 55.168 52.2046 55.8287 52.1241C56.4905 52.0434 57.1311 51.973 57.6061 51.9228C57.8436 51.8976 58.04 51.8775 58.177 51.8637L58.3359 51.8478L58.3778 51.8437L58.3886 51.8426L58.3914 51.8423L58.3921 51.8423L58.3923 51.8423L58.4408 52.3399L58.3924 51.8422L58.7641 51.8061L58.9043 52.1524C59.2728 53.0632 60.169 54.1894 61.0198 55.1221C61.4375 55.58 61.831 55.9771 62.12 56.2597C62.2644 56.4009 62.3824 56.5131 62.4639 56.5897C62.5047 56.628 62.5363 56.6574 62.5575 56.677L62.5813 56.699L62.5871 56.7043L62.5884 56.7054L62.5886 56.7056L62.5886 56.7057L62.7748 56.8752L62.7494 57.1258L62.1021 63.5078C62.1785 64.6948 61.9663 66.0741 61.7441 67.1365C61.6304 67.6796 61.5118 68.1505 61.4215 68.486C61.3763 68.6539 61.3381 68.7883 61.311 68.8812C61.2975 68.9277 61.2867 68.9638 61.2793 68.9886L61.2706 69.0173L61.2682 69.025L61.2675 69.0272L61.2673 69.0278L61.2673 69.0281C61.2672 69.0281 61.2672 69.0282 60.7896 68.8802L61.2672 69.0282L61.2604 69.0501L61.2516 69.0713C60.8433 70.0585 60.7838 71.079 60.8322 71.8664C60.8562 72.2579 60.9065 72.5852 60.9503 72.8129C60.9722 72.9266 60.9923 73.0149 61.0066 73.0733C61.0137 73.1025 61.0194 73.1242 61.0231 73.1379L61.027 73.1522L61.0274 73.1539L61.0275 73.1542L61.0276 73.1544L61.0276 73.1547L61.0277 73.1547L61.0398 73.1968L61.0445 73.2411C61.1766 74.5092 60.8892 75.5783 60.5718 76.3268C60.4129 76.7015 60.2453 76.9987 60.1157 77.2045C60.0806 77.2603 60.0483 77.3094 60.0195 77.3517C60.0451 77.4806 60.0736 77.5557 60.0937 77.5972C60.113 77.588 60.1382 77.5744 60.17 77.5543C60.3101 77.4656 60.4643 77.3177 60.5948 77.1727C60.6571 77.1035 60.7086 77.0411 60.7441 76.9964L15.7209 40.3229ZM15.7209 40.3229L16.073 39.9753M15.7209 40.3229L16.073 39.9753M15.7217 39.6195L16.0731 39.9752L16.0733 39.975L16.0741 39.9742L16.0779 39.9705L16.0932 39.9554L16.1539 39.8959C16.2075 39.8436 16.2867 39.7664 16.3888 39.6677C16.5931 39.4704 16.8888 39.1871 17.2536 38.8443C17.9836 38.1583 18.9888 37.2352 20.0914 36.2853C21.195 35.3345 22.3901 34.3621 23.5004 33.575C24.5815 32.8086 25.5354 32.2522 26.229 32.0357C26.2856 32.0407 26.367 32.0481 26.4703 32.0577C26.6857 32.0777 26.9963 32.1077 27.376 32.1475C28.1358 32.227 29.1707 32.3455 30.2726 32.5011C31.3757 32.6568 32.5395 32.8489 33.5592 33.075C34.5939 33.3045 35.4292 33.5585 35.9089 33.8215L35.9506 33.8444L35.9959 33.859L36.1493 33.3831C35.9959 33.859 35.9961 33.859 35.9962 33.8591L35.9965 33.8592L35.9973 33.8594L35.9997 33.8602L36.007 33.8625L36.0327 33.8704C36.0546 33.8771 36.086 33.8865 36.1267 33.8981C36.2079 33.9214 36.3259 33.9537 36.4777 33.9913C36.7813 34.0665 37.2208 34.1632 37.7729 34.252C38.8764 34.4293 40.4342 34.5754 42.2597 34.4523L42.2597 34.4525L42.2732 34.4512L42.2733 34.4512L42.2734 34.4512L42.2735 34.4512L42.2738 34.4511L42.2777 34.4508L42.2957 34.4493C42.3121 34.4479 42.3373 34.4459 42.3701 34.4437C42.4359 34.4392 42.5323 34.4336 42.6515 34.4295C42.8908 34.4212 43.2178 34.419 43.5713 34.4429C43.9268 34.4669 44.2965 34.5164 44.6255 34.6066C44.9604 34.6984 45.2142 34.8219 45.3743 34.9681L45.7976 35.3546L46.1227 34.8832L46.1228 34.883L46.123 34.8827L46.1243 34.8809L46.1323 34.8696C46.1398 34.859 46.1518 34.8424 46.1681 34.8204C46.2006 34.7762 46.2504 34.7103 46.3166 34.6272C46.4491 34.4608 46.6466 34.2262 46.9025 33.9593C47.4164 33.4232 48.1548 32.7681 49.0643 32.2688C49.9717 31.7707 51.0351 31.4349 52.213 31.5107C53.3775 31.5856 54.7006 32.0656 56.1382 33.2723L56.1491 33.2853C56.1735 33.3149 56.2099 33.3596 56.2558 33.4179C56.3477 33.5347 56.4775 33.7052 56.6257 33.9172C56.9237 34.3432 57.29 34.927 57.5768 35.5706C57.8657 36.2192 58.0585 36.8948 58.0457 37.514C58.0333 38.1143 57.8297 38.6651 57.3027 39.1214L56.8554 39.5087L57.3117 39.885L57.3117 39.885L57.3118 39.8851L57.3119 39.8851L57.3132 39.8862L57.32 39.8919L57.3497 39.917C57.3764 39.9398 57.4167 39.9745 57.469 40.0207C57.5736 40.1132 57.7261 40.2513 57.9142 40.4314C58.2905 40.7917 58.8077 41.3183 59.3669 41.9798C60.4895 43.3078 61.7604 45.155 62.4185 47.2725L62.4245 47.2916L62.4319 47.3102L62.896 47.1241C62.4319 47.3102 62.4319 47.3102 62.4319 47.3103L62.432 47.3105L62.4324 47.3113L62.4336 47.3144L62.4385 47.3264L62.4572 47.373C62.4737 47.4137 62.4978 47.4734 62.5289 47.5498C62.5911 47.7024 62.6808 47.9216 62.7915 48.1883C63.0129 48.7214 63.3184 49.4454 63.6547 50.2077C63.9905 50.9692 64.3589 51.7731 64.7059 52.4647C65.0437 53.138 65.3817 53.7473 65.6614 54.096C65.6632 54.0982 65.6649 54.1003 65.6667 54.1025L66.0555 53.7884C65.6623 54.097 65.6621 54.0967 65.6619 54.0965L65.664 54.0994C65.6653 54.1012 65.6669 54.1034 65.6688 54.1061C65.6736 54.1129 65.6804 54.1226 65.6889 54.1352C65.7124 54.1703 65.7491 54.228 65.7942 54.3087C65.8845 54.4702 66.009 54.7244 66.1304 55.0762C66.3714 55.7742 66.6033 56.8639 66.5276 58.3867L66.5205 58.4288C66.5125 58.4751 66.5006 58.5439 66.4849 58.6328C66.4534 58.8106 66.4067 59.0687 66.3457 59.3887C66.2238 60.0289 66.0453 60.9157 65.8193 61.9017C65.3641 63.8866 64.7262 66.2271 63.9832 67.7787L63.9611 67.8249L63.9488 67.8746L64.4341 67.9946C63.9488 67.8746 63.9487 67.8748 63.9487 67.8749L63.9486 67.8754L63.9483 67.8766L63.9475 67.8798L63.9451 67.8899L63.9372 67.9246C63.9306 67.954 63.9218 67.9956 63.9115 68.0483C63.891 68.1535 63.8648 68.3032 63.8408 68.4872C63.7929 68.8539 63.7528 69.3632 63.7853 69.9313C63.8497 71.0548 64.2057 72.4959 65.4554 73.4567L65.4622 73.4619C65.5239 73.5095 65.6085 73.5747 65.7057 73.6336C66.9087 74.4282 67.932 75.1633 68.6548 75.7C69.017 75.9689 69.3034 76.1878 69.4988 76.3391C69.5966 76.4148 69.6715 76.4735 69.7218 76.5131L69.7785 76.5579L69.7925 76.5691L69.7958 76.5718L69.7965 76.5724L69.7967 76.5725L69.8207 76.5917L69.8465 76.6076L69.8466 76.6077L15.7217 39.6195ZM15.7217 39.6195L16.073 39.9753M15.7217 39.6195L16.073 39.9753M61.2233 75.3285L61.2629 75.2668C61.6972 74.59 62.2048 74.1927 62.7597 74.0387C63.3097 73.8862 63.828 73.9944 64.2456 74.1743C64.661 74.3532 65.0069 74.6153 65.2426 74.8228C65.3622 74.9281 65.4578 75.0231 65.5243 75.093C65.5577 75.1279 65.584 75.1568 65.6027 75.1778L65.625 75.2031L65.6317 75.2109L65.6339 75.2136L65.6343 75.214L61.2233 75.3285ZM61.2233 75.3285L61.2031 75.3988M61.2233 75.3285L61.2031 75.3988M61.2031 75.3988L60.7445 76.996L61.2031 75.3988ZM0.327313 78.4772C0.327378 78.4772 0.328675 78.4776 0.33102 78.4786C0.32842 78.4778 0.327249 78.4773 0.327313 78.4772ZM0.477934 78.881C0.477891 78.881 0.478309 78.8802 0.479328 78.8785C0.478488 78.8802 0.477977 78.881 0.477934 78.881ZM8.49827 49.3012C8.49824 49.3012 8.49829 49.3004 8.49854 49.2987L8.49827 49.3012ZM7.35046 48.3086C7.35058 48.3085 7.35277 48.3088 7.35667 48.3099C7.35228 48.3092 7.35034 48.3087 7.35046 48.3086ZM6.79214 47.0041C6.79218 47.0041 6.79286 47.0045 6.7941 47.0052C6.79273 47.0045 6.79211 47.0041 6.79214 47.0041ZM7.3441 45.5513C7.34421 45.5513 7.3452 45.5521 7.34675 45.5539C7.34478 45.5522 7.344 45.5513 7.3441 45.5513ZM7.37086 45.6359C7.37069 45.6374 7.37051 45.6382 7.37047 45.6382L7.37086 45.6359ZM60.0462 77.615C60.0423 77.6158 60.0405 77.6158 60.0406 77.6156C60.0407 77.6154 60.0426 77.615 60.0462 77.615Z" stroke="url(#paint0_linear_735_6110)"/>
<defs>
<linearGradient id="paint0_linear_735_6110" x1="-5.40757e-08" y1="37.7556" x2="49.9423" y2="49.7229" gradientUnits="userSpaceOnUse">
<stop stop-color="#323232"/>
<stop offset="1" stop-color="#F3F3F3"/>
</linearGradient>
</defs>
</svg>
