<svg width="38" height="110" viewBox="0 0 38 110" fill="none" xmlns="http://www.w3.org/2000/svg">
<mask id="path-1-inside-1_735_6100" fill="white">
<path d="M36.5446 38.1013L36.237 37.3849C39.4858 30.3415 37.2499 21.2621 37.2499 21.2621L37.7601 20.8549L36.5896 16.4207H35.9294L32.2754 8.78911C32.1703 8.27631 31.7652 7.7409 31.7652 7.7409C30.9548 7.2281 29.9419 3.42739 29.9419 3.42739C29.4317 2.00213 27.6085 0.350628 27.6085 0.350628C26.6931 -0.365776 26.2879 0.23751 26.2879 0.23751C22.9416 -0.275284 21.2159 0.938832 21.2159 0.938832C17.0517 3.79691 19.5052 8.26877 19.5052 8.26877C18.5148 9.4678 21.411 11.0514 21.411 11.0514L21.2084 12.1751L17.9596 17.484C15.8287 21.4657 19.1751 27.8907 19.1751 27.8907C20.0904 29.9343 19.3776 34.6249 19.3776 34.6249C18.8674 35.4393 19.5802 45.3408 19.5802 45.3408C18.2597 47.2788 19.2726 48.7041 19.2726 48.7041L17.9521 50.2349C15.1084 51.253 16.6315 52.5802 16.6315 52.5802C15.6186 52.9874 16.2264 54.8275 16.2264 54.8275C14.0955 55.5439 15.5136 57.3764 15.5136 57.3764C15.7162 59.0052 14.5982 65.6414 15.1084 65.9506L15.0034 66.8706L15.4085 67.0742L15.2059 69.5251C15.2059 71.1539 12.97 73.6048 12.97 73.6048C10.9367 74.932 10.2314 78.2954 10.2314 78.2954C9.51863 79.8262 7.59035 82.9859 7.59035 82.9859C6.9826 82.5787 5.55702 86.6584 5.55702 86.6584C4.64165 86.7565 4.34153 88.8001 4.34153 88.8001C2.21066 90.2254 1.8055 93.4906 1.8055 93.4906C1.70046 94.8179 0.995169 95.5343 0.995169 95.5343C-1.6459 99.1088 1.8055 101.348 1.8055 101.348C4.24399 103.799 5.45948 99.7196 5.45948 99.7196C5.35444 98.7996 5.76711 97.1707 5.76711 97.1707C6.4799 95.3307 7.89798 93.2946 7.89798 93.2946L10.539 94.109C11.7545 94.3126 10.6366 93.7018 10.6366 93.7018L8.10056 92.6838C8.40818 92.0729 8.30314 90.7457 8.30314 90.7457L8.40818 90.2329C9.21851 89.2149 9.32355 87.4804 9.32355 87.4804C10.1339 85.4368 13.5853 81.5606 13.5853 81.5606C16.0238 80.0298 18.2522 75.1356 18.2522 75.1356C20.1805 74.1176 21.501 70.4451 21.501 70.4451C22.2138 70.4451 23.2267 69.7287 23.2267 69.7287L24.2396 71.0559C23.8345 72.4812 24.8474 72.074 24.8474 72.074L25.4551 73.1976C26.8732 78.7101 25.4551 82.7898 25.4551 82.7898C23.4218 84.9315 24.7423 88.9132 24.7423 88.9132L23.932 92.2841C23.3242 91.8768 23.7294 93.4077 23.7294 93.4077C22.814 97.691 20.9908 98.611 20.9908 98.611C19.7753 99.1238 18.7549 100.549 18.7549 100.549C18.0421 102.284 21.396 104.531 21.396 104.531C23.7294 105.247 22.9191 106.982 22.9191 106.982C23.7294 108.92 25.0499 109.531 25.0499 109.531C28.4038 111.167 27.2859 108 27.2859 108C25.2525 105.345 26.1679 100.956 26.1679 100.956L27.691 101.673C27.9386 101.695 28.1037 101.741 28.2162 101.801C28.2087 101.741 28.2012 101.665 28.2012 101.567L26.6781 100.549L27.5935 99.7347C28.5089 98.513 27.4884 98.8147 27.4884 98.8147C27.0833 99.7347 26.3705 98.7091 26.3705 98.7091C27.0833 97.4874 27.691 94.0185 27.691 94.0185C28.2988 92.7969 27.691 92.8949 27.691 92.8949C30.8348 87.4879 30.6322 81.9754 30.6322 81.9754C32.3579 78.9137 32.2529 72.8959 32.2529 72.8959L32.8606 72.6923C33.671 70.6487 32.3504 66.2673 32.3504 66.2673C33.2658 65.2493 32.658 63.1076 32.658 63.1076C33.776 62.7004 32.8606 61.4787 32.8606 61.4787L32.2529 60.6643C32.0503 59.7443 32.7631 57.5046 32.7631 57.5046C33.1682 56.6901 32.7631 55.8757 32.7631 55.8757L31.8477 53.5304L31.7502 51.4868L31.8477 50.8759C32.7631 49.1415 36.5146 38.124 36.5146 38.124L36.5446 38.1013ZM31.7727 28.5091L31.5701 26.669C31.5701 26.669 32.8906 25.8546 31.7727 23.7129C31.7727 23.7129 31.8777 19.9348 28.8315 18.9168C28.8315 18.9168 26.1904 18.6076 25.1775 21.164C25.1775 21.164 23.962 24.0221 24.2621 24.8365L23.5493 24.3238C23.5493 24.3238 23.2417 21.4657 22.0262 20.9604C22.0262 20.9604 23.5493 17.1823 22.739 14.6335L23.4518 12.899L24.3672 12.6954C24.3672 12.6954 28.1262 11.0665 29.2366 9.12092C29.2366 9.12092 29.9494 9.01534 30.7598 12.3862L31.9753 17.2804L31.5701 17.484C31.5701 17.484 32.4855 19.422 32.1778 21.0585C32.1778 21.0585 32.583 21.4657 32.8906 22.4837L32.9882 26.4654L31.7727 28.5091Z"/>
</mask>
<path d="M36.5446 38.1013L36.237 37.3849C39.4858 30.3415 37.2499 21.2621 37.2499 21.2621L37.7601 20.8549L36.5896 16.4207H35.9294L32.2754 8.78911C32.1703 8.27631 31.7652 7.7409 31.7652 7.7409C30.9548 7.2281 29.9419 3.42739 29.9419 3.42739C29.4317 2.00213 27.6085 0.350628 27.6085 0.350628C26.6931 -0.365776 26.2879 0.23751 26.2879 0.23751C22.9416 -0.275284 21.2159 0.938832 21.2159 0.938832C17.0517 3.79691 19.5052 8.26877 19.5052 8.26877C18.5148 9.4678 21.411 11.0514 21.411 11.0514L21.2084 12.1751L17.9596 17.484C15.8287 21.4657 19.1751 27.8907 19.1751 27.8907C20.0904 29.9343 19.3776 34.6249 19.3776 34.6249C18.8674 35.4393 19.5802 45.3408 19.5802 45.3408C18.2597 47.2788 19.2726 48.7041 19.2726 48.7041L17.9521 50.2349C15.1084 51.253 16.6315 52.5802 16.6315 52.5802C15.6186 52.9874 16.2264 54.8275 16.2264 54.8275C14.0955 55.5439 15.5136 57.3764 15.5136 57.3764C15.7162 59.0052 14.5982 65.6414 15.1084 65.9506L15.0034 66.8706L15.4085 67.0742L15.2059 69.5251C15.2059 71.1539 12.97 73.6048 12.97 73.6048C10.9367 74.932 10.2314 78.2954 10.2314 78.2954C9.51863 79.8262 7.59035 82.9859 7.59035 82.9859C6.9826 82.5787 5.55702 86.6584 5.55702 86.6584C4.64165 86.7565 4.34153 88.8001 4.34153 88.8001C2.21066 90.2254 1.8055 93.4906 1.8055 93.4906C1.70046 94.8179 0.995169 95.5343 0.995169 95.5343C-1.6459 99.1088 1.8055 101.348 1.8055 101.348C4.24399 103.799 5.45948 99.7196 5.45948 99.7196C5.35444 98.7996 5.76711 97.1707 5.76711 97.1707C6.4799 95.3307 7.89798 93.2946 7.89798 93.2946L10.539 94.109C11.7545 94.3126 10.6366 93.7018 10.6366 93.7018L8.10056 92.6838C8.40818 92.0729 8.30314 90.7457 8.30314 90.7457L8.40818 90.2329C9.21851 89.2149 9.32355 87.4804 9.32355 87.4804C10.1339 85.4368 13.5853 81.5606 13.5853 81.5606C16.0238 80.0298 18.2522 75.1356 18.2522 75.1356C20.1805 74.1176 21.501 70.4451 21.501 70.4451C22.2138 70.4451 23.2267 69.7287 23.2267 69.7287L24.2396 71.0559C23.8345 72.4812 24.8474 72.074 24.8474 72.074L25.4551 73.1976C26.8732 78.7101 25.4551 82.7898 25.4551 82.7898C23.4218 84.9315 24.7423 88.9132 24.7423 88.9132L23.932 92.2841C23.3242 91.8768 23.7294 93.4077 23.7294 93.4077C22.814 97.691 20.9908 98.611 20.9908 98.611C19.7753 99.1238 18.7549 100.549 18.7549 100.549C18.0421 102.284 21.396 104.531 21.396 104.531C23.7294 105.247 22.9191 106.982 22.9191 106.982C23.7294 108.92 25.0499 109.531 25.0499 109.531C28.4038 111.167 27.2859 108 27.2859 108C25.2525 105.345 26.1679 100.956 26.1679 100.956L27.691 101.673C27.9386 101.695 28.1037 101.741 28.2162 101.801C28.2087 101.741 28.2012 101.665 28.2012 101.567L26.6781 100.549L27.5935 99.7347C28.5089 98.513 27.4884 98.8147 27.4884 98.8147C27.0833 99.7347 26.3705 98.7091 26.3705 98.7091C27.0833 97.4874 27.691 94.0185 27.691 94.0185C28.2988 92.7969 27.691 92.8949 27.691 92.8949C30.8348 87.4879 30.6322 81.9754 30.6322 81.9754C32.3579 78.9137 32.2529 72.8959 32.2529 72.8959L32.8606 72.6923C33.671 70.6487 32.3504 66.2673 32.3504 66.2673C33.2658 65.2493 32.658 63.1076 32.658 63.1076C33.776 62.7004 32.8606 61.4787 32.8606 61.4787L32.2529 60.6643C32.0503 59.7443 32.7631 57.5046 32.7631 57.5046C33.1682 56.6901 32.7631 55.8757 32.7631 55.8757L31.8477 53.5304L31.7502 51.4868L31.8477 50.8759C32.7631 49.1415 36.5146 38.124 36.5146 38.124L36.5446 38.1013ZM31.7727 28.5091L31.5701 26.669C31.5701 26.669 32.8906 25.8546 31.7727 23.7129C31.7727 23.7129 31.8777 19.9348 28.8315 18.9168C28.8315 18.9168 26.1904 18.6076 25.1775 21.164C25.1775 21.164 23.962 24.0221 24.2621 24.8365L23.5493 24.3238C23.5493 24.3238 23.2417 21.4657 22.0262 20.9604C22.0262 20.9604 23.5493 17.1823 22.739 14.6335L23.4518 12.899L24.3672 12.6954C24.3672 12.6954 28.1262 11.0665 29.2366 9.12092C29.2366 9.12092 29.9494 9.01534 30.7598 12.3862L31.9753 17.2804L31.5701 17.484C31.5701 17.484 32.4855 19.422 32.1778 21.0585C32.1778 21.0585 32.583 21.4657 32.8906 22.4837L32.9882 26.4654L31.7727 28.5091Z" stroke="url(#paint0_linear_735_6100)" stroke-width="2" mask="url(#path-1-inside-1_735_6100)"/>
<defs>
<linearGradient id="paint0_linear_735_6100" x1="-2.89419e-08" y1="15.4815" x2="28.1762" y2="17.0583" gradientUnits="userSpaceOnUse">
<stop stop-color="#323232"/>
<stop offset="1" stop-color="#F3F3F3"/>
</linearGradient>
</defs>
</svg>
