<svg width="56" height="110" viewBox="0 0 56 110" fill="none" xmlns="http://www.w3.org/2000/svg">
<path d="M16.7638 35.1156L16.7635 35.1155L16.7625 35.1152L16.7538 35.1128C16.7454 35.1106 16.7321 35.1071 16.7142 35.1025C16.6783 35.0934 16.6239 35.08 16.5537 35.0644C16.413 35.0331 16.21 34.9927 15.9654 34.9577C15.4722 34.8871 14.8292 34.8413 14.1951 34.9256C13.559 35.0103 12.9736 35.2201 12.5449 35.6236C12.128 36.0159 11.8032 36.644 11.7792 37.6858L11.775 37.8693L11.6531 38.0064L11.2793 37.6743L11.653 38.0064L11.653 38.0065L11.6526 38.007L11.6511 38.0087L11.6451 38.0154L11.6216 38.0419L11.5319 38.1429L11.2095 38.5066C10.9412 38.8096 10.5801 39.2181 10.209 39.64C9.45543 40.4967 8.6913 41.3743 8.5439 41.5713L8.5014 41.6281L8.44678 41.6693L8.44661 41.6695L8.44653 41.6695L8.44642 41.6696L8.44587 41.67L8.44212 41.673C8.43719 41.677 8.42871 41.6839 8.41766 41.6934C8.39521 41.7127 8.36413 41.741 8.33142 41.7752C8.28109 41.8279 8.24555 41.8752 8.22409 41.9114C8.29373 41.9547 8.45372 42.0269 8.78398 42.0856L9.15485 42.1515L9.19381 42.5262L9.3074 43.6184L9.31187 43.6615L9.30901 43.7028L9.309 43.7031L9.309 43.7031L9.30897 43.7034L9.30894 43.704L9.30892 43.7043L9.30869 43.7092C9.30841 43.7157 9.30801 43.7266 9.30781 43.741C9.3074 43.7703 9.3078 43.8118 9.31102 43.8584C9.31289 43.8854 9.31549 43.9106 9.31859 43.9337C9.36972 43.8998 9.4368 43.8494 9.52118 43.7746C9.52674 43.7667 9.53281 43.7582 9.53939 43.7491C9.57454 43.7004 9.62489 43.6342 9.6886 43.5597C9.81291 43.4142 10.0024 43.2199 10.2432 43.0668C10.4837 42.9139 10.8122 42.7795 11.1934 42.8224C11.585 42.8665 11.9395 43.0869 12.2436 43.4625L12.3628 43.6098L12.3545 43.7991L12.3545 43.7991L12.3545 43.7993L12.3544 43.8004L12.3542 43.8051L12.3534 43.8246L12.3505 43.9018C12.3481 43.9696 12.3448 44.0688 12.3416 44.1936C12.335 44.4432 12.3285 44.7944 12.3285 45.1997C12.3285 46.0118 12.3548 47.0248 12.4564 47.8714L12.4595 47.8928C12.4623 47.9128 12.4655 47.9398 12.4685 47.9723C12.4744 48.0369 12.4794 48.1264 12.476 48.23C12.4697 48.4256 12.4323 48.7259 12.2639 48.9976C12.077 49.2991 11.7584 49.516 11.3085 49.5471C10.8998 49.5754 10.4093 49.4494 9.81807 49.1676L8.45402 48.707C8.5037 48.7394 8.5609 48.7743 8.62657 48.8119L8.67971 48.8423L8.72381 48.8845L8.72386 48.8845L8.72394 48.8846L8.72455 48.8852L8.72808 48.8885L8.74372 48.9033C8.75787 48.9165 8.77935 48.9365 8.80753 48.9623C8.86392 49.014 8.94699 49.0888 9.0517 49.1796C9.26154 49.3617 9.55617 49.6062 9.89559 49.8566C10.599 50.3755 11.4065 50.8521 12.033 50.9433L12.0401 50.9443L12.0401 50.9443L14.7593 51.3797L15.4407 51.4888L15.1249 52.102L15.1249 52.1021L15.1248 52.1022L15.1247 52.1024L15.1245 52.1027L15.1222 52.1073L15.1115 52.1287C15.1019 52.1483 15.0872 52.1783 15.0685 52.218C15.0311 52.2973 14.9776 52.4148 14.9153 52.5632C14.7904 52.8606 14.6315 53.2787 14.4959 53.7608C14.2191 54.7449 14.064 55.9086 14.3948 56.8567L14.4829 57.1092L14.3225 57.3219L14.3224 57.3219L14.3223 57.3221L14.3221 57.3223L14.3219 57.3226L14.3205 57.3245L14.3099 57.3392C14.2999 57.3531 14.2842 57.3753 14.264 57.4052C14.2235 57.4651 14.1648 57.5554 14.0961 57.6721C13.9583 57.9062 13.7825 58.2422 13.6321 58.6469C13.3291 59.4623 13.1452 60.5109 13.5225 61.5657L13.6333 61.8754L13.3929 62.0997L11.8704 63.5204L11.5294 63.8386L11.1932 63.525L11.1933 63.5251C11.1933 63.5251 11.1929 63.5248 11.1921 63.5241C11.192 63.5239 11.1918 63.5237 11.1916 63.5236C11.1915 63.5235 11.1914 63.5235 11.1913 63.5234C11.1879 63.5205 11.1805 63.5145 11.1697 63.5064C11.1475 63.4899 11.1141 63.4677 11.0736 63.4472C10.9874 63.4036 10.9063 63.3865 10.8365 63.3998C10.7402 63.418 10.2824 63.5945 9.95949 65.2227C9.79722 66.0409 9.69921 66.4939 9.64354 66.706C9.63008 66.7573 9.61486 66.8111 9.59796 66.8565L9.59765 66.8573C9.59176 66.8731 9.57223 66.9255 9.53622 66.9797L9.5355 66.9808C9.52254 67.0004 9.4639 67.0889 9.34908 67.1493C9.27931 67.1861 9.17198 67.2209 9.04261 67.202C8.91202 67.183 8.81704 67.1179 8.75823 67.0586C8.66282 66.9623 8.63443 66.8549 8.62836 66.8319L8.628 66.8305C8.61775 66.7919 8.61394 66.7596 8.61229 66.7428C8.60882 66.7077 8.60895 66.6762 8.60927 66.6577C8.60983 66.6263 8.61192 66.5921 8.61452 66.5592L8.32164 66.7461L8.12771 66.8699L7.91775 66.8062C7.91698 66.806 7.91607 66.8059 7.91502 66.8057C7.90565 66.804 7.88707 66.8012 7.8621 66.8004C7.81152 66.7987 7.74343 66.8053 7.67109 66.837C7.55664 66.8872 7.27829 67.0693 7.13538 67.8368L7.07067 68.1843L6.72568 68.2386C6.72573 68.2385 6.72568 68.2385 6.72553 68.2386C6.7255 68.2386 6.7247 68.2387 6.72467 68.2387L16.7638 35.1156ZM16.7638 35.1156L16.764 35.1156L16.7638 35.1156ZM21.8762 27.1398C21.8723 27.1385 21.8679 27.1371 21.863 27.1356C21.8327 27.1262 21.786 27.1123 21.7249 27.0956C21.6025 27.0622 21.4229 27.0181 21.201 26.9774C20.7551 26.8955 20.1505 26.8296 19.5021 26.8862C18.2519 26.9953 16.8517 27.5502 16.0628 29.3759L21.8762 27.1398ZM21.8762 27.1398C23.1978 27.8014 23.8852 29.4548 24.2193 31.1235C24.3831 31.9412 24.4527 32.7164 24.4811 33.2888C24.4953 33.5743 24.4991 33.8077 24.4995 33.9686C24.4996 34.049 24.4989 34.1112 24.4982 34.1526L24.4972 34.1989L24.4969 34.2097L24.4968 34.2119L24.4968 34.2119L24.4968 34.2121L24.4968 34.2122L24.4855 34.5331L24.7729 34.6768L25.644 35.1121L25.89 35.2351L26.1255 35.0932C26.2164 35.0385 26.4199 34.9501 26.7138 34.8413C26.9952 34.7371 27.3244 34.6268 27.6412 34.5252C27.9571 34.4238 28.2568 34.3325 28.4777 34.2664C28.5881 34.2333 28.6786 34.2067 28.7413 34.1883L28.7517 34.1853C29.4138 34.2299 30.2915 34.1148 30.9789 33.9978C31.349 33.9347 31.6802 33.8682 31.9189 33.8174C32.0384 33.792 32.135 33.7704 32.2021 33.7551L32.2799 33.7372L32.3007 33.7323L32.3063 33.731L32.3079 33.7306L32.3084 33.7305L32.3085 33.7305C32.3086 33.7305 32.3086 33.7304 32.1921 33.2442L32.3086 33.7304L32.432 33.7009L32.5264 33.616C32.6914 33.4677 32.9444 33.3442 33.2704 33.2522C33.5914 33.1615 33.9495 33.1107 34.2926 33.085C34.6338 33.0594 34.9484 33.0595 35.1781 33.0662C35.2926 33.0696 35.3849 33.0745 35.4479 33.0785C35.4556 33.079 35.4629 33.0795 35.4698 33.08C35.4906 33.0814 35.5072 33.0826 35.519 33.0835L35.536 33.0849L35.5396 33.0852L35.5398 33.0852L35.54 33.0853L35.5401 33.0853L35.5401 33.0853L35.6488 33.0952L35.752 33.0588L39.168 31.852L39.2331 31.829L39.2896 31.7891C39.7842 31.4404 40.6079 31.0474 41.3399 30.7323C41.6995 30.5774 42.0263 30.4459 42.2632 30.3531C42.3816 30.3067 42.4772 30.2701 42.543 30.2452L42.6183 30.2168L42.6374 30.2097L42.642 30.208L42.6431 30.2076L42.6433 30.2076L42.6643 30.1998L42.6846 30.1902C43.5167 29.796 44.8321 29.0754 45.9277 28.4606C46.4781 28.1517 46.9772 27.8671 47.3388 27.6597C47.5196 27.556 47.6661 27.4716 47.7674 27.4131L47.8843 27.3455L47.9148 27.3278L47.9226 27.3232L47.9246 27.3221L47.9251 27.3218L47.9253 27.3217L47.6741 26.8893L47.9253 27.3216L48.1741 27.1771V26.8893V25.7971V25.4689L47.873 25.3384C46.5094 24.7471 45.8769 23.7726 45.5766 22.9423C45.4249 22.5229 45.3582 22.1395 45.3297 21.862C45.3155 21.7237 45.3109 21.6132 45.3097 21.5395C45.3091 21.5027 45.3094 21.4752 45.3098 21.4582L45.3103 21.4407L45.3103 21.44L45.3103 21.4395L45.3103 21.4391L45.3103 21.4388C45.3103 21.4387 45.3104 21.4386 45.3104 21.4385C45.3104 21.4385 45.3104 21.4384 45.3104 21.4384C45.4601 18.5535 46.7815 17.2334 48.0139 16.6019C48.6463 16.2778 49.2743 16.1264 49.7472 16.0569C49.9826 16.0223 50.1767 16.0084 50.3097 16.0031C50.355 16.0013 50.393 16.0004 50.4231 16.0001C52.3715 16.7913 53.4954 17.7128 54.1158 18.6119C54.7403 19.5168 54.8844 20.4416 54.7993 21.2873C54.7131 22.1432 54.3908 22.9195 54.0802 23.491C53.9261 23.7746 53.7778 24.0024 53.6691 24.158C53.6148 24.2356 53.5707 24.2949 53.5409 24.3337C53.5261 24.3531 53.5149 24.3674 53.5078 24.3762L53.5004 24.3854L53.4997 24.3864L53.4994 24.3867L53.4992 24.3869L53.4992 24.387L53.4494 24.4472L53.4203 24.5205C53.3038 24.8142 53.0346 25.1318 52.6352 25.4533C52.243 25.769 51.7657 26.0563 51.2935 26.3014C50.8234 26.5453 50.3708 26.7408 50.0349 26.8756C49.8673 26.9428 49.7298 26.9944 49.6349 27.0291C49.5874 27.0464 49.5507 27.0594 49.5263 27.068L49.499 27.0774L49.4927 27.0796L49.4914 27.08L49.4913 27.0801L49.4913 27.0801L49.4655 27.0887L49.4407 27.1003C48.6767 27.4546 47.7136 28.1431 46.9668 28.7177C46.5876 29.0095 46.2536 29.2801 46.0145 29.4778C45.8949 29.5767 45.7987 29.6576 45.7323 29.7139C45.699 29.7421 45.6732 29.7641 45.6555 29.7793L45.6352 29.7967L45.6299 29.8013L45.6284 29.8025L45.628 29.8029L45.6279 29.803C45.6278 29.803 45.6278 29.8031 45.9548 30.1813L45.6278 29.8031L45.6069 29.8211L45.5881 29.8414C45.2412 30.2156 44.6217 30.726 43.8596 31.2944C43.1054 31.857 42.2376 32.4573 41.4132 33.0092C40.5895 33.5606 39.8126 34.0612 39.2414 34.4242C38.9559 34.6056 38.7221 34.7524 38.5597 34.8538C38.4786 34.9045 38.4153 34.9438 38.3724 34.9704L38.3237 35.0006L38.3114 35.0082L38.3084 35.0101L38.3076 35.0105L38.3075 35.0106L38.5698 35.4363L38.3074 35.0107L38.0752 35.1538L38.0699 35.4264C38.0439 36.7408 37.8772 37.5247 37.6775 37.9739C37.4861 38.4046 37.2956 38.47 37.2031 38.4845C37.0661 38.5058 36.887 38.4531 36.6976 38.3427C36.6105 38.2919 36.5368 38.2379 36.4851 38.1967C36.4596 38.1763 36.4403 38.1597 36.4284 38.1492L36.4165 38.1386L36.4163 38.1383L36.4162 38.1382L36.4158 38.1379L36.4153 38.1374L36.4148 38.137L36.2177 37.9476L35.95 38.0139C35.8197 38.0461 35.7009 38.111 35.6117 38.1666C35.5154 38.2267 35.4166 38.2996 35.3214 38.3757C35.1308 38.5281 34.9279 38.7146 34.7463 38.8904C34.5634 39.0674 34.3954 39.2401 34.2735 39.368C34.2123 39.4322 34.1625 39.4854 34.1277 39.5229L34.0872 39.5667L34.0763 39.5786L34.0733 39.5818L34.0725 39.5827L34.0722 39.583L34.0721 39.5831L34.4417 39.9199L34.0721 39.5832L33.9272 39.7422L33.9431 39.9568C33.9829 40.4952 33.6853 40.929 33.2921 41.2651C33.1002 41.4292 32.9022 41.5544 32.7507 41.6389C32.6756 41.6807 32.6137 41.7116 32.5719 41.7314C32.5511 41.7413 32.5354 41.7484 32.5258 41.7526L32.5162 41.7568L32.5161 41.7569L32.5159 41.757L32.5156 41.7571L32.5152 41.7572L32.5149 41.7574L32.0223 41.9609L32.2588 42.4401C32.3876 42.7013 32.4361 43.1185 32.3922 43.6656C32.3495 44.1983 32.2252 44.7886 32.0732 45.3484C31.9218 45.9056 31.7469 46.4185 31.6094 46.793C31.5408 46.9798 31.4818 47.1312 31.4403 47.2353C31.4195 47.2874 31.4031 47.3275 31.392 47.3543L31.3796 47.3843L31.3766 47.3914L31.376 47.3929L31.3759 47.393L31.3759 47.3931L21.8762 27.1398ZM35.1398 60.2625L35.1397 60.2629L35.1397 60.2633L35.1397 60.2637L35.1397 60.2639L35.0903 60.9535L35.7617 60.7828C35.8156 60.7691 35.9661 60.7751 36.2391 60.8885C36.4918 60.9935 36.7737 61.158 37.0462 61.3407C37.3159 61.5216 37.5621 61.7105 37.7417 61.8552C37.8311 61.9272 37.9032 61.9875 37.9524 62.0295C37.977 62.0504 37.9959 62.0667 38.0083 62.0775L38.022 62.0895L38.0251 62.0922L38.0255 62.0926L38.0256 62.0927L38.0257 62.0928L38.0983 62.1573L38.19 62.1899C40.8629 63.1412 42.9728 64.8396 44.4212 66.3141C45.1437 67.0496 45.6968 67.7247 46.0683 68.2144C46.2539 68.459 46.3939 68.657 46.4866 68.7925C46.533 68.8603 46.5676 68.9124 46.5901 68.9469L46.6149 68.9852L46.6205 68.994L46.6215 68.9956L46.6215 68.9957L46.6216 68.9958L46.6216 68.9959L46.6271 69.0047L46.6331 69.0134L48.505 71.7424C48.5233 72.7179 48.2525 74.2427 47.9529 75.595C47.7983 76.2927 47.6403 76.9265 47.5209 77.3861C47.4612 77.6158 47.4112 77.8016 47.3763 77.9296C47.3588 77.9937 47.3451 78.0433 47.3358 78.0767L47.3264 78.1103C46.8826 79.3442 46.5795 80.6238 46.3874 81.5912C46.2907 82.0784 46.2216 82.4892 46.1766 82.779C46.154 82.9239 46.1375 83.0387 46.1266 83.1178C46.1211 83.1573 46.117 83.188 46.1142 83.209L46.1111 83.2332L46.1103 83.2398L46.11 83.2416L46.11 83.2422L46.11 83.2424C46.1099 83.2424 46.1099 83.2425 46.6061 83.304L46.1099 83.2425L46.1032 83.2972L46.1084 83.352C46.1436 83.7165 46.2855 84.0542 46.6072 84.2372C46.9029 84.4055 47.2202 84.3645 47.4244 84.3108C47.5047 84.2897 47.5822 84.2628 47.6546 84.2335C47.628 84.2775 47.607 84.3159 47.5914 84.3459C47.5818 84.3646 47.5741 84.3802 47.5684 84.3922L47.5613 84.4075L47.5588 84.413L47.5578 84.4153L47.5574 84.4162L47.5572 84.4167C47.5571 84.4169 47.557 84.4171 48.015 84.6178L47.557 84.4171L47.3322 84.9302L47.8674 85.0955C48.7814 85.3777 49.2105 85.612 49.3838 85.7625C49.2885 85.8324 49.1308 85.9108 48.9405 85.9813C48.8333 86.021 48.734 86.0517 48.6614 86.0724C48.6254 86.0827 48.5966 86.0903 48.5774 86.0953L48.5565 86.1005L48.5522 86.1016L48.5521 86.1016L48.5519 86.1016C48.5519 86.1016 48.5519 86.1016 48.5522 86.1026L48.5701 87.079C48.5659 87.0782 48.5666 87.0785 48.5728 87.081C48.5874 87.087 48.6333 87.1056 48.7191 87.1523C48.8257 87.2104 48.9596 87.2925 49.1145 87.3941C49.4235 87.5968 49.7913 87.8607 50.1481 88.1259C50.5038 88.3901 50.8432 88.6516 51.0942 88.8473C51.2195 88.945 51.3225 89.0262 51.394 89.0828L51.4765 89.1482L51.4979 89.1653L51.5032 89.1696L51.5045 89.1706L51.5048 89.1708L51.5049 89.1709L51.5308 89.1917L51.5593 89.2088C51.8344 89.3745 52.6245 89.8418 53.343 90.2661C53.7029 90.4786 54.0458 90.6808 54.2986 90.8299L54.6013 91.0083L54.685 91.0576L54.7069 91.0705L54.7125 91.0739L54.7139 91.0747L54.7143 91.0749L54.7144 91.075L54.944 90.6852L54.7144 91.075C55.2873 91.4126 55.4517 91.7227 55.4895 91.9416C55.5302 92.1766 55.4508 92.45 55.2533 92.7539C55.0588 93.0535 54.7857 93.3255 54.5487 93.5291C54.4324 93.629 54.3294 93.7085 54.2563 93.7624C54.2246 93.7858 54.1987 93.8042 54.1801 93.8172C53.3858 94.1497 52.2622 93.9862 51.2326 93.6668C50.7275 93.5101 50.2786 93.3266 49.9555 93.182C49.7943 93.1098 49.6655 93.0478 49.5779 93.0043C49.5549 92.9928 49.5347 92.9827 49.5175 92.974C48.6701 92.0811 47.7286 91.4422 46.9978 91.0253C46.6226 90.8112 46.2999 90.6539 46.0692 90.5494C45.9538 90.4971 45.8611 90.4579 45.7962 90.4314C45.7839 90.4264 45.7726 90.4218 45.7622 90.4177C45.7454 90.4109 45.7314 90.4054 45.7202 90.4011L45.6988 90.3928L45.6925 90.3905L45.6905 90.3897L45.6898 90.3894L45.6895 90.3893C45.6894 90.3893 45.6892 90.3892 45.5154 90.858L45.6892 90.3892L45.5759 90.3472L45.4559 90.3616C44.5684 90.468 43.6203 90.4687 42.8867 90.4415C42.5216 90.4279 42.2132 90.4076 41.9967 90.3907C41.8885 90.3823 41.8034 90.3747 41.7459 90.3693L41.6808 90.363L41.6649 90.3614L41.6612 90.361L41.6605 90.3609L41.6605 90.3607L41.6473 90.3597C41.5739 90.3537 41.4501 90.3053 41.3195 89.9864C41.1921 89.6754 41.1186 89.2356 41.0862 88.7536C41.0544 88.2805 41.0643 87.8055 41.0828 87.4455C41.0845 87.4127 41.0862 87.3809 41.088 87.3503C41.0976 87.261 41.1058 87.1613 41.1119 87.0805C41.1171 87.0132 41.1213 86.9514 41.1243 86.9065L41.1278 86.8529L41.1287 86.838L41.129 86.8339L41.129 86.8328L41.129 86.8325L41.129 86.8324L41.0259 86.8261L41.1291 86.8324L41.0259 86.8235C41.0246 86.6971 41.0239 86.5461 41.0239 86.3669C41.0239 85.4708 41.5096 84.8023 42.0488 84.3334C42.3163 84.1008 42.5859 83.9278 42.7892 83.8131C42.8903 83.7561 42.9735 83.7142 43.0299 83.6873C43.058 83.6739 43.0794 83.6643 43.0928 83.6583L43.1067 83.6523L43.1078 83.6518L43.1081 83.6517L43.1084 83.6516L43.1087 83.6514L43.1089 83.6513L43.3418 83.5554L43.4027 83.3098C43.7476 81.9188 43.7691 79.4396 43.7146 77.3713C43.6869 76.3238 43.6388 75.3597 43.5977 74.6576C43.5771 74.3064 43.5582 74.0205 43.5444 73.8221C43.5376 73.7229 43.532 73.6455 43.5281 73.5928L43.5236 73.5326L43.5224 73.517L43.5221 73.513L43.522 73.5119L43.522 73.5116C43.522 73.5115 43.522 73.5115 43.0235 73.5502L35.1398 60.2625ZM40.5663 87.9684C40.5538 89.1405 40.6996 90.7846 41.607 90.858L40.5663 87.9684ZM41.1269 86.8575C41.1269 86.8575 41.1269 86.8576 41.0261 86.8464L41.1269 86.8575ZM49.4507 85.8331C49.4507 85.8331 49.4503 85.8326 49.4498 85.8316L49.4507 85.8331ZM44.811 21.4129C44.811 21.4129 44.6444 24.4834 47.6741 25.7971L44.811 21.4129Z" stroke="url(#paint0_linear_735_6120)"/>
<defs>
<linearGradient id="paint0_linear_735_6120" x1="-4.26513e-08" y1="26.6185" x2="41.1108" y2="31.3395" gradientUnits="userSpaceOnUse">
<stop stop-color="#323232"/>
<stop offset="1" stop-color="#F3F3F3"/>
</linearGradient>
</defs>
</svg>
