<svg width="56" height="110" viewBox="0 0 56 110" fill="none" xmlns="http://www.w3.org/2000/svg">
<path d="M53.4995 53.7154L53.5283 53.705C54.3942 53.3911 54.8801 52.971 55.152 52.5529C55.4254 52.1324 55.513 51.6666 55.4985 51.2108C55.4839 50.7516 55.3658 50.3192 55.2462 49.995C55.187 49.8346 55.129 49.7049 55.0867 49.6168C55.072 49.5863 55.0592 49.5609 55.0491 49.5411C54.5897 49.05 54.311 48.4068 54.1403 47.7562C53.962 47.0768 53.8914 46.3504 53.8735 45.6942C53.8555 45.0357 53.8902 44.4331 53.9292 43.996C53.9487 43.7769 53.9694 43.5982 53.9853 43.4733C53.9933 43.4108 54.0001 43.3618 54.005 43.3278L54.0108 43.2883L54.0125 43.2774L54.013 43.2742L54.0131 43.2732L54.0132 43.2729C54.0132 43.2727 54.0132 43.2726 54.507 43.3509L54.0132 43.2726L54.0148 43.2623L54.0149 43.2623C54.5481 40.2997 54.5148 37.7421 54.3487 35.9279C54.2657 35.0211 54.1496 34.301 54.055 33.8103C54.0077 33.565 53.9658 33.3771 53.9361 33.252C53.9213 33.1894 53.9095 33.1425 53.9016 33.1121L53.8929 33.0787L53.8909 33.0714L53.8906 33.0704L53.8906 33.0702L53.8906 33.0701L53.8905 33.07L53.8364 32.8753L53.9331 32.6975C54.6024 31.4669 54.4631 30.5686 54.2047 29.9893C54.0706 29.6885 53.8967 29.4578 53.7565 29.3029C53.6867 29.2258 53.6265 29.1689 53.5859 29.1329C53.5656 29.1149 53.5503 29.1022 53.5414 29.095L53.5341 29.0891L53.5334 29.0886L53.533 29.0883L53.5329 29.0882L53.5325 29.088L53.4379 29.0175L53.3846 28.9089C53.0365 28.1994 52.8557 27.6899 52.7618 27.346C52.7324 27.2384 52.7114 27.1468 52.6965 27.0701C52.3965 26.8796 52.0727 26.6593 51.8099 26.4766C51.6469 26.3633 51.5053 26.263 51.4044 26.1909C51.3539 26.1549 51.3136 26.1259 51.2857 26.1058L51.2536 26.0827L51.2451 26.0765L51.2429 26.0749L51.2423 26.0745L51.2421 26.0744L51.2421 26.0743L51.5358 25.6697L51.242 26.0743L51.1633 26.0171L51.1117 25.9345C50.7284 25.3205 50.4072 25.0152 50.1703 24.8722C49.9488 24.7386 49.7986 24.7437 49.6995 24.769C49.5818 24.799 49.4721 24.8754 49.3815 24.9661C49.3384 25.0093 49.3054 25.0499 49.284 25.0784C49.2735 25.0925 49.2663 25.103 49.2625 25.1087L49.26 25.1124L49.26 25.1126L49.2595 25.1133L49.0517 25.457L48.6683 25.3222L45.1508 24.0858L44.527 23.8666L44.9079 23.3261C44.9335 23.2897 44.9771 23.1957 45.0139 23.0118C45.0491 22.8362 45.0711 22.6155 45.08 22.358C45.0979 21.8435 45.0622 21.2295 45.0041 20.6301C44.9464 20.0334 44.8678 19.4642 44.8034 19.0433C44.7713 18.8331 44.7428 18.6607 44.7224 18.5411C44.7122 18.4814 44.7041 18.4349 44.6985 18.4035L44.6922 18.3682L44.6919 18.3667C44.1874 16.1518 42.9618 15.2191 41.8918 14.8123C41.3431 14.6037 40.8215 14.5292 40.4358 14.5076C40.2437 14.4968 40.0877 14.4993 39.982 14.5042C39.9293 14.5066 39.8893 14.5096 39.8639 14.5119C39.8512 14.513 39.8422 14.5139 39.837 14.5145L39.8335 14.5149L39.833 14.5149L39.8326 14.515L39.8323 14.515L39.8321 14.515L39.818 14.5168L39.8024 14.5178C37.8604 14.6404 36.8452 15.7282 36.293 16.8132C36.0132 17.3629 35.8555 17.9093 35.7682 18.321C35.7247 18.5259 35.6992 18.6949 35.6847 18.8107C35.6774 18.8686 35.6729 18.913 35.6703 18.9418C35.669 18.9562 35.6682 18.9666 35.6677 18.9729L35.6673 18.9789L35.6673 18.9792L35.6673 18.9793L35.6673 18.9796L35.6673 18.9798L35.6654 19.0103L35.6596 19.0413C35.4161 20.3408 35.7529 21.1608 36.111 21.6517C36.2949 21.9038 36.4926 22.0797 36.642 22.1913C36.7164 22.2469 36.7779 22.2859 36.8182 22.3096C36.8383 22.3215 36.853 22.3295 36.8613 22.3338L36.8671 22.3369L36.8681 22.3374L36.8683 22.3375L36.8685 22.3376L37.1924 22.492L37.1459 22.8514L37.0037 23.9513L36.9801 24.1345L36.8429 24.2583L35.4733 25.4947L35.3703 25.5877L35.234 25.6143C31.8286 26.2789 29.2618 27.9709 27.5417 29.5046C26.6822 30.271 26.0374 30.9949 25.6089 31.5253C25.3948 31.7904 25.235 32.0066 25.1298 32.1549C25.0772 32.2291 25.0383 32.2863 25.0131 32.324C25.0057 32.335 24.9995 32.3443 24.9945 32.352C24.9909 32.3575 24.9879 32.3621 24.9855 32.3658L24.9794 32.3752L24.9785 32.3767L24.9783 32.377L24.9783 32.377L24.9782 32.3771L24.9244 32.4622L24.8414 32.52L22.4765 34.166L22.4437 34.1887L22.4078 34.206L19.8863 35.4205L17.2248 37.4455L17.1835 37.4769L17.1366 37.4992C16.1961 37.9459 15.7278 38.4373 15.4951 38.7837C15.3776 38.9586 15.3164 39.1023 15.2852 39.1937C15.2696 39.2396 15.2615 39.2727 15.2577 39.2903C15.2565 39.2959 15.2557 39.3 15.2553 39.3024L15.2341 39.4952L15.0785 39.6244C14.4083 40.1808 13.8707 41.0045 13.4942 41.719C13.3085 42.0714 13.1672 42.3871 13.0726 42.614C13.0254 42.7272 12.9901 42.8178 12.9668 42.8793C12.9606 42.8958 12.9552 42.9102 12.9507 42.9224L12.2841 48.2148L12.2832 48.222L12.2821 48.2291C12.0763 49.5539 11.8346 50.4718 11.6401 51.066C11.5429 51.3632 11.4575 51.5795 11.3942 51.7253C11.3626 51.7982 11.3365 51.8535 11.3172 51.8924C11.3076 51.9119 11.2997 51.9273 11.2937 51.9387L11.2861 51.953L11.2833 51.958L11.2823 51.9599L11.2818 51.9608L11.2816 51.9611C11.2815 51.9613 11.2814 51.9615 10.845 51.7174L11.2814 51.9615L11.2725 51.9773L11.2626 51.9924C10.4274 53.2604 10.6173 54.2629 10.9822 54.9607C11.1719 55.3235 11.4157 55.6134 11.6152 55.8138C11.7141 55.9133 11.8001 55.9887 11.8597 56.038C11.8894 56.0626 11.9124 56.0806 11.9268 56.0916L11.9419 56.103L11.9428 56.1036L11.9432 56.1039L11.9435 56.1041L11.944 56.1045L11.9442 56.1046L11.9785 56.129L12.0092 56.1601L12.6828 56.8428L12.7101 56.8705L12.7328 56.9021C12.9765 57.2411 13.1656 57.3881 13.2852 57.4486C13.3913 57.5023 13.4481 57.4919 13.4767 57.4838C13.5197 57.4716 13.5669 57.4409 13.6111 57.397C13.6315 57.3767 13.6468 57.3581 13.6559 57.3461C13.6591 57.3418 13.6614 57.3387 13.6626 57.3369L13.9195 56.9174L14.3454 57.1763C14.3825 57.1989 14.4039 57.2038 14.4106 57.205C14.4166 57.206 14.4193 57.2056 14.4226 57.2048C14.4342 57.202 14.4707 57.1873 14.5266 57.1311C14.5806 57.077 14.6288 57.0082 14.6654 56.9462C14.6828 56.9166 14.6958 56.8917 14.7039 56.8754C14.7079 56.8674 14.7106 56.8617 14.7119 56.8588L14.7118 56.859L14.7117 56.8593C14.7117 56.8593 14.7117 56.8594 14.7129 56.8599L15.3643 56.9942C15.4022 56.951 15.4449 56.8949 15.4874 56.828C15.5636 56.7079 15.6115 56.5961 15.6283 56.5281L15.6284 56.5276L15.6288 56.5261L15.6299 56.5206C15.6309 56.5157 15.6321 56.5092 15.6336 56.5009C15.6364 56.484 15.6397 56.4622 15.6434 56.435C15.6506 56.3805 15.6583 56.3107 15.6662 56.2264C15.6821 56.0579 15.6981 55.8423 15.7137 55.5942C15.7449 55.0988 15.7742 54.4865 15.7994 53.8885C15.8246 53.291 15.8456 52.7103 15.8603 52.2788C15.8677 52.063 15.8735 51.8847 15.8774 51.7604L15.8781 51.7376C15.0146 50.5248 14.921 49.4685 15.1015 48.6774C15.1928 48.2772 15.3499 47.9636 15.4856 47.7484C15.5536 47.6405 15.6169 47.5561 15.6654 47.4966C15.6897 47.4667 15.7103 47.443 15.7261 47.4255C15.7275 47.4239 15.729 47.4223 15.7303 47.4208C16.3436 46.6028 16.8915 45.1843 17.2937 43.9088C17.4929 43.2771 17.6507 42.6994 17.7586 42.2795C17.8126 42.0698 17.854 41.8999 17.8818 41.7829C17.8957 41.7244 17.9062 41.6792 17.9131 41.6488L17.9209 41.6147L17.9228 41.6064L17.9232 41.6045L17.9233 41.6041L17.9233 41.6041L18.2321 40.213L18.8602 41.4921L19.6685 43.1381L19.6897 43.1814L19.7023 43.228L20.0049 44.3466L20.5588 44.3377L20.5668 44.3375V44.3376H21.1112L21.4265 42.9588L21.4751 42.7463L21.6638 42.6373L24.5003 40.9989L24.7817 40.8363L25.0445 41.0275L27.881 43.0907L28.0996 43.2497L28.0862 43.5198L27.6977 51.3597L28.3717 51.7255L28.7709 51.9421L28.5935 52.3603L26.5653 57.139L26.5187 57.2486L26.4277 57.3255C25.3017 58.2771 24.5978 59.5933 24.1743 60.6998C23.964 61.2491 23.8266 61.7371 23.742 62.0864C23.6998 62.2608 23.6709 62.4 23.6527 62.4943C23.6437 62.5414 23.6373 62.5772 23.6333 62.6005L23.6291 62.6259L23.6282 62.6313L23.6282 62.6316L23.6282 62.6318L23.6281 62.632L23.6281 62.6321L23.6136 62.7277L23.5641 62.8113L20.9598 67.2129L21.5336 67.6282L21.8153 67.8322L21.7221 68.1673C21.0922 70.431 20.0792 72.1309 19.221 73.2669C18.7919 73.835 18.4009 74.263 18.1146 74.5511C17.9713 74.6952 17.8542 74.8044 17.7713 74.8788C17.7299 74.9161 17.697 74.9446 17.6738 74.9644L17.6462 74.9877L17.638 74.9944L17.6354 74.9966L17.6344 74.9973L17.6341 74.9977C17.6339 74.9978 17.6337 74.9979 17.3187 74.6096L17.6337 74.9979L17.5858 75.0368L17.5298 75.0629C16.3759 75.6004 15.3265 76.5561 14.3962 77.724C13.4684 78.8889 12.679 80.2393 12.0375 81.5308C11.3967 82.8207 10.9089 84.0408 10.5813 84.9389C10.4176 85.3876 10.2943 85.7549 10.2121 86.0092C10.171 86.1363 10.1402 86.2351 10.1199 86.3016C10.1097 86.3348 10.1022 86.36 10.0972 86.3766L10.0918 86.395L10.0905 86.3992L10.0903 86.4001L10.0902 86.4002L10.082 86.4286L10.0704 86.4559C9.42064 87.9871 8.44714 89.0103 7.6363 89.6502C7.23092 89.9701 6.86479 90.1953 6.59707 90.3419C6.46309 90.4152 6.35337 90.469 6.2752 90.5053C6.2361 90.5234 6.20486 90.5372 6.18237 90.5468L6.15531 90.5582L6.1469 90.5616L6.14401 90.5628L6.1429 90.5632L6.14243 90.5634C6.14222 90.5635 6.14202 90.5636 5.95791 90.0987L6.14202 90.5636L5.86069 90.675L5.63148 90.4774L5.00137 89.9343L4.00371 90.7626C3.91181 91.5462 3.39681 92.136 2.96388 92.5066C2.71675 92.7182 2.47204 92.8797 2.29009 92.9881C2.19857 93.0426 2.12153 93.0846 2.06612 93.1135C2.04881 93.1225 2.03357 93.1303 2.02061 93.1368C1.18998 93.7559 0.786383 94.2247 0.612003 94.554C0.449111 94.8616 0.499921 95.0122 0.542516 95.0904C0.606141 95.2071 0.74392 95.3166 0.919186 95.4039C1.00021 95.4442 1.07574 95.4731 1.13051 95.4916C1.13682 95.4937 1.14282 95.4957 1.14846 95.4975L8.52048 95.2409L8.84394 93.7048L8.85363 93.6588L8.87174 93.6154C9.45715 92.2119 10.9471 90.5388 12.2268 89.2588C12.8773 88.6081 13.4927 88.0405 13.9453 87.6357C14.1718 87.4331 14.3579 87.271 14.4878 87.1591C14.5527 87.1032 14.6036 87.0599 14.6385 87.0303L14.6785 86.9965L14.6891 86.9876L14.6919 86.9852L14.6927 86.9846L14.693 86.9844C14.693 86.9843 14.6931 86.9843 15.0136 87.368L14.6931 86.9843L14.7531 86.9341L14.8256 86.9047C16.7037 86.1426 18.2891 84.2686 19.4262 82.5051C19.9878 81.6343 20.4262 80.8124 20.7241 80.2082C20.8729 79.9064 20.9862 79.6597 21.062 79.4895C21.0998 79.4044 21.1283 79.3384 21.147 79.2943L21.1679 79.2448L21.1728 79.233L21.1738 79.2304L21.1739 79.2301L53.4995 53.7154ZM53.4995 53.7154L53.4722 53.7293L53.4573 53.7369L53.3027 53.8154L53.2302 53.9722L53.2301 53.9724L53.2301 53.9725L53.2301 53.9726L53.23 53.9728L53.229 53.975L53.2227 53.9879C53.2169 54 53.2079 54.0185 53.1958 54.0422C53.1716 54.0898 53.136 54.1575 53.0913 54.2354C52.9992 54.3955 52.8794 54.5799 52.7519 54.7223C52.6684 54.8156 52.6088 54.8601 52.5757 54.8808C52.5573 54.859 52.5314 54.8224 52.4988 54.7626L51.5887 55.1694L52.8086 58.598L52.8346 58.6711L52.8798 58.7305L52.8802 58.7311L52.8808 58.7318L52.8811 58.7323L52.8816 58.7329L52.8817 58.7332C52.8828 58.7346 52.8842 58.7367 52.8861 58.7393C52.8886 58.7428 52.8918 58.7474 52.8956 58.753C52.9089 58.7726 52.9301 58.8049 52.9565 58.849C53.0095 58.9374 53.0831 59.0728 53.1576 59.2498C53.3066 59.604 53.4575 60.1207 53.4579 60.7612C53.4587 62.0178 52.8786 63.872 50.2631 65.9912L50.1399 66.0911L50.0971 66.2426L50.097 66.243L50.0969 66.2433L50.0968 66.2437L50.095 66.2497C50.093 66.2562 50.0897 66.2672 50.0848 66.2824C50.0751 66.3128 50.0594 66.3603 50.0369 66.4231C49.9918 66.5489 49.9194 66.7363 49.813 66.973C49.6002 67.4465 49.2516 68.1164 48.7137 68.8841C47.6392 70.4177 45.8061 72.3467 42.7778 73.8831L42.7649 73.8897L42.7523 73.897L43.004 74.329C42.7523 73.897 42.7523 73.897 42.7522 73.897L42.7519 73.8972L42.7509 73.8978L42.7472 73.9L42.733 73.9083L42.6786 73.9403C42.6311 73.9683 42.5616 74.0094 42.4731 74.0622C42.296 74.168 42.0427 74.3207 41.7363 74.5096C41.1239 74.8869 40.2978 75.4095 39.445 75.9891C38.5938 76.5675 37.7079 77.2083 36.9797 77.8219C36.6157 78.1286 36.2844 78.4341 36.0143 78.7264C35.7493 79.0133 35.5199 79.3122 35.3864 79.6066L35.2532 79.9005L35.4644 80.1411L35.4645 80.1412L35.465 80.1419L35.4655 80.1423L35.4657 80.1426L35.466 80.1429L35.4683 80.1458C35.4726 80.1509 35.4801 80.1602 35.49 80.1731C35.51 80.199 35.5391 80.2388 35.5716 80.2893C35.6383 80.3932 35.7099 80.5284 35.7515 80.6724C35.7928 80.8155 35.7982 80.9444 35.7641 81.0574C35.7324 81.1625 35.6517 81.3036 35.4283 81.4536L35.1524 81.6389L35.2157 81.961C35.2157 81.9609 35.2158 81.9618 35.2159 81.9621C35.2159 81.9624 35.2158 81.962 35.2159 81.9626C35.216 81.9631 35.2161 81.9635 35.2162 81.9641C35.2169 81.9684 35.2182 81.9771 35.2197 81.9896C35.2229 82.0148 35.2267 82.0546 35.2282 82.1048C35.2313 82.2071 35.2244 82.3419 35.1884 82.4812C35.1222 82.737 34.9595 83.0268 34.4772 83.1726L34.1835 83.2614L34.1297 83.5634L33.8635 85.0544L33.8633 85.0551C33.8604 85.0659 33.8553 85.0839 33.8476 85.108C33.8323 85.1563 33.8073 85.2278 33.7704 85.3126C33.6957 85.4849 33.5784 85.6977 33.407 85.8844C33.2383 86.0681 33.0218 86.222 32.7385 86.2963C32.4635 86.3684 32.0873 86.3754 31.5765 86.2105C31.5662 86.2047 31.554 86.1977 31.5399 86.1897C31.4887 86.1603 31.4133 86.1165 31.3181 86.0596C31.1277 85.9457 30.8587 85.7797 30.5472 85.5728C29.9212 85.157 29.1372 84.585 28.4745 83.9464C27.797 83.2935 27.3136 82.6343 27.1824 82.0515C27.1204 81.7761 27.1388 81.5268 27.2461 81.2918C27.3541 81.0551 27.5711 80.792 27.9757 80.525L28.0248 80.4988C28.0705 80.4741 28.1369 80.4378 28.2219 80.3901C28.3918 80.2946 28.636 80.1533 28.9376 79.9676C29.5405 79.5966 30.3743 79.0475 31.3027 78.3329C33.1542 76.9077 35.4071 74.8047 36.942 72.1195L36.9521 72.1017L36.9608 72.0832L36.9608 72.0831L36.961 72.0826L36.9621 72.0803L36.9669 72.0701L36.9868 72.0284C37.0045 71.9914 37.031 71.9364 37.0658 71.8656C37.1352 71.724 37.2374 71.5195 37.3674 71.2698C37.6275 70.77 37.9974 70.0919 38.4371 69.3771C38.8777 68.6609 39.3832 67.9162 39.9136 67.2793C40.4502 66.6352 40.9841 66.1358 41.4747 65.8718L42.1246 65.5221L41.5589 65.0482L38.453 62.4465L37.8939 61.9782L37.6588 62.668L37.6588 62.6681L37.6587 62.6682L37.6586 62.6685L37.6584 62.6691L37.6562 62.6753L37.646 62.7041C37.6365 62.7302 37.6217 62.7701 37.6015 62.8221C37.5611 62.9261 37.4993 63.0783 37.4154 63.2658C37.2472 63.6413 36.9917 64.1547 36.6439 64.7042C35.941 65.8144 34.8972 67.0147 33.4865 67.5763L33.4652 67.5847L33.4449 67.5951L33.6714 68.0408C33.4449 67.5951 33.4447 67.5951 33.4446 67.5952L33.4443 67.5954L33.4435 67.5958L33.4411 67.597L33.4334 67.601L33.4065 67.6151C33.3837 67.6272 33.351 67.6447 33.3092 67.6678C33.2258 67.7139 33.1061 67.782 32.9567 67.8724C32.6579 68.0532 32.2392 68.3234 31.752 68.6853C30.7873 69.4019 29.5463 70.4838 28.4361 71.9497C28.4176 71.9665 28.3925 71.9895 28.3613 72.0182C28.2911 72.0829 28.1902 72.1767 28.0665 72.2943C27.8192 72.5292 27.4794 72.8598 27.1093 73.2431C26.391 73.987 25.5245 74.9637 25.0159 75.8336C25.002 75.8493 24.9836 75.87 24.9609 75.8953C24.9039 75.959 24.8199 76.0517 24.7135 76.1661C24.5003 76.3953 24.1981 76.7107 23.8423 77.055C23.1219 77.7523 22.2152 78.5354 21.3983 78.9794L21.2413 79.0647L21.174 79.23L53.4995 53.7154ZM52.6084 54.9099C52.6084 54.9108 52.6044 54.9093 52.5968 54.9028C52.6047 54.9058 52.6085 54.909 52.6084 54.9099ZM15.2707 57.0824C15.2707 57.0823 15.2712 57.082 15.2723 57.0814L15.2707 57.0824ZM50.118 51.8663L50.118 51.8664L50.2312 52.2098H50.5929H50.6003H50.9412L51.0658 51.8925C51.22 51.4995 51.3446 50.943 51.4465 50.3597C51.55 49.7674 51.6355 49.1138 51.7034 48.5087C51.7715 47.9028 51.8225 47.3409 51.8564 46.9308C51.8734 46.7256 51.8861 46.558 51.8947 46.4415C51.8989 46.3833 51.9021 46.3378 51.9043 46.3067L51.9067 46.2711L51.9073 46.2618L51.9075 46.2594L51.9075 46.2587L51.9076 46.2585C51.9076 46.2584 51.9076 46.2584 51.4086 46.2257L51.9076 46.2584L51.9201 46.0675L51.8019 45.917C51.3203 45.3034 50.8028 44.0762 50.3936 42.9364C50.1937 42.3794 50.0267 41.8638 49.9096 41.4873C49.8511 41.2992 49.8052 41.1463 49.774 41.0407C49.7584 40.9879 49.7465 40.9469 49.7386 40.9194L49.7296 40.8884L49.7275 40.8808L49.727 40.879L49.7269 40.8786L49.7269 40.8786L49.7265 40.8787L48.7481 41.0635C48.8725 42.3314 48.5596 43.6218 48.1993 44.6161C48.0207 45.1092 47.8339 45.52 47.6924 45.8065C47.6217 45.9496 47.5625 46.0611 47.5217 46.1358C47.5013 46.1732 47.4854 46.2013 47.475 46.2195L47.4636 46.2393L47.4612 46.2435L47.4611 46.2437L47.4609 46.2439L47.4609 46.244L47.4608 46.2441L47.2415 46.6139L47.5749 46.8861C47.8406 47.103 48.1414 47.5027 48.4502 48.0298C48.7528 48.5462 49.0395 49.1435 49.2887 49.7162C49.5373 50.2876 49.7451 50.8264 49.8909 51.2228C49.9637 51.4208 50.0208 51.5827 50.0596 51.6946C50.0696 51.7236 50.0784 51.7491 50.0859 51.7711C50.0929 51.7917 50.0988 51.8091 50.1036 51.8232L50.1146 51.8561L50.1173 51.8641L50.1179 51.866L50.118 51.8663Z" stroke="url(#paint0_linear_735_6112)"/>
<defs>
<linearGradient id="paint0_linear_735_6112" x1="-4.26513e-08" y1="25.5407" x2="41.1493" y2="30.0932" gradientUnits="userSpaceOnUse">
<stop stop-color="#323232"/>
<stop offset="1" stop-color="#F3F3F3"/>
</linearGradient>
</defs>
</svg>
